<svg width="63" height="64" viewBox="0 0 63 64" fill="none" xmlns="http://www.w3.org/2000/svg">
<g clip-path="url(#clip0)">
<path d="M49.3444 62.4299C49.3444 63.2971 48.6536 64 47.8013 64H15.0955C14.2432 64 13.5524 63.2971 13.5524 62.4299C13.5524 61.5626 14.2432 60.8597 15.0955 60.8597H47.8013C48.6536 60.8597 49.3444 61.5626 49.3444 62.4299ZM25.0707 32.7916C24.8945 31.9432 24.0754 31.4025 23.2418 31.5803C19.1423 32.4627 17.0637 33.9211 17.0637 35.9152C17.0637 40.8878 29.9763 41.0314 31.4484 41.0314C32.9205 41.0314 45.8326 40.8878 45.8326 35.9152C45.8326 33.9212 43.7542 32.4629 39.6548 31.5804C38.8214 31.402 38.0023 31.9433 37.8259 32.7916C37.6495 33.6398 38.1824 34.4732 39.0162 34.6528C41.0671 35.0942 42.1103 35.6073 42.5516 35.9229C41.498 36.7047 37.6807 37.8908 31.4484 37.8908C25.2158 37.8908 21.3983 36.7047 20.3445 35.9231C20.7859 35.6071 21.8292 35.0942 23.8803 34.6528C24.7143 34.4732 25.2472 33.64 25.0707 32.7916ZM28.6691 36.2153C28.6862 36.2158 28.7032 36.2162 28.7202 36.2162C29.5494 36.2162 30.2345 35.5464 30.2616 34.6971C30.2863 33.9256 30.2621 33.1923 30.1899 32.5177L29.9128 29.9295C29.8204 29.0676 29.0604 28.4448 28.2116 28.5385C27.3645 28.6323 26.7524 29.4073 26.8446 30.2695L27.1217 32.8577C27.1783 33.3862 27.1968 33.9706 27.1769 34.5948C27.1493 35.4616 27.8173 36.1872 28.6691 36.2153ZM25.4579 22.0095C25.6839 22.6506 26.2774 23.0502 26.9105 23.0502C27.0835 23.0502 27.2592 23.0203 27.4313 22.9575C28.2336 22.6648 28.6506 21.7657 28.363 20.9494C25.7814 13.6257 20.6761 4.46686 14.0894 0.725809C13.3455 0.302906 12.4054 0.574199 11.9899 1.33155C11.5745 2.0889 11.8411 3.04532 12.5852 3.46787C17.3985 6.20174 22.4512 13.4797 25.4579 22.0095ZM25.7452 7.36437C25.7452 4.01866 27.849 1.08887 30.98 0.0741824C31.2847 -0.0245647 31.612 -0.0245647 31.9167 0.0741824C35.0478 1.08887 37.1514 4.01866 37.1514 7.36437C37.1514 10.7097 35.0476 13.6395 31.9168 14.6547C31.7644 14.7041 31.6063 14.7289 31.4484 14.7289C31.2905 14.7289 31.1322 14.7041 30.98 14.6547C27.849 13.6395 25.7452 10.7097 25.7452 7.36437ZM28.8315 7.36437C28.8315 9.16485 29.8647 10.7612 31.4484 11.481C33.032 10.7612 34.0654 9.16502 34.0654 7.36437C34.0654 5.56372 33.0323 3.96737 31.4484 3.24787C29.8647 3.96737 28.8315 5.56372 28.8315 7.36437ZM42.1487 18.543C41.3077 18.4036 40.514 18.9827 40.376 19.8383C40.2381 20.694 40.8082 21.5016 41.6491 21.6421C43.926 22.022 45.1917 22.4383 45.8743 22.741C44.0296 23.5324 39.0825 24.5696 31.4484 24.5696C23.8141 24.5696 18.8671 23.5324 17.0229 22.7408C17.7192 22.4319 19.0226 22.0044 21.3884 21.6185C22.2297 21.4812 22.8025 20.6759 22.6678 19.8194C22.5328 18.9633 21.7424 18.3813 20.8997 18.5176C15.6622 19.3717 13.3266 20.6727 13.3266 22.7353C13.3266 24.5992 15.206 25.8163 19.42 26.6816C22.6487 27.3448 26.9204 27.7099 31.4482 27.7099C35.9761 27.7099 40.2479 27.3448 43.4768 26.6816C47.6912 25.8163 49.5705 24.5991 49.5705 22.7353C49.5707 20.6924 47.2818 19.3995 42.1487 18.543ZM50.9069 1.33155C50.4914 0.574199 49.5513 0.302906 48.8074 0.725809C42.2195 4.46738 37.1147 13.6259 34.5339 20.9494C34.2462 21.7659 34.6634 22.6648 35.4656 22.9575C35.6378 23.0203 35.8135 23.0502 35.9865 23.0502C36.6194 23.0502 37.2131 22.6506 37.4391 22.0095C40.4447 13.4801 45.4976 6.20226 50.3117 3.46787C51.0557 3.04532 51.3223 2.0889 50.9069 1.33155ZM36.0515 30.2692C36.1436 29.4071 35.5315 28.6322 34.6841 28.5385C33.8365 28.4443 33.0754 29.0676 32.9833 29.9298L32.7069 32.5177C32.6347 33.1923 32.6105 33.9256 32.6352 34.6971C32.6623 35.5464 33.3475 36.2162 34.1766 36.2162C34.1936 36.2162 34.2106 36.2158 34.2277 36.2153C35.0795 36.1872 35.7475 35.4616 35.7197 34.5948C35.6999 33.9706 35.7184 33.3862 35.7749 32.8574L36.0515 30.2692ZM26.3042 44.1178L24.6618 55.3785H22.5582C21.7059 55.3785 21.0151 56.0814 21.0151 56.9487C21.0151 57.816 21.7059 58.5189 22.5582 58.5189H25.9927C26.7573 58.5189 27.4068 57.9489 27.519 57.1792L29.3568 44.5788C29.4818 43.7209 28.9 42.9224 28.057 42.795C27.2134 42.6672 26.4292 43.2602 26.3042 44.1178ZM38.235 55.3785L36.5926 44.1178C36.4676 43.2602 35.6815 42.6673 34.8397 42.7952C33.9966 42.9224 33.4147 43.7211 33.5398 44.579L35.3777 57.1793C35.4898 57.9491 36.1393 58.5191 36.904 58.5191H40.3378C41.1901 58.5191 41.8809 57.8161 41.8809 56.9489C41.8809 56.0816 41.1901 55.3787 40.3378 55.3787H38.235V55.3785Z" fill="url(#paint0_linear)"/>
</g>
<defs>
<linearGradient id="paint0_linear" x1="11.7939" y1="0.00012207" x2="68.8774" y2="35.0609" gradientUnits="userSpaceOnUse">
<stop offset="0.34375" stop-color="#0086B5"/>
<stop offset="1" stop-color="#46AEF7"/>
</linearGradient>
<clipPath id="clip0">
<rect width="62.8965" height="64" fill="white"/>
</clipPath>
</defs>
</svg>
