<svg width="64" height="64" viewBox="0 0 64 64" fill="none" xmlns="http://www.w3.org/2000/svg">
<path d="M14.38 18.6511C16.5915 10.8018 23.8369 5.31984 32 5.31984C40.163 5.31984 47.4086 10.8018 49.6201 18.6511C49.8434 19.4435 49.382 20.2669 48.5896 20.4902C47.7973 20.7134 46.974 20.2522 46.7506 19.4597C44.8995 12.8896 38.8337 8.30114 31.9998 8.30114C25.1659 8.30114 19.1003 12.8898 17.2491 19.4597C17.064 20.1169 16.4659 20.5463 15.8152 20.5465C15.6814 20.5465 15.5454 20.5284 15.4103 20.4903C14.6179 20.2669 14.1565 19.4435 14.38 18.6511ZM18.3835 6.30344C18.6595 6.78159 19.1605 7.04906 19.6758 7.04906C19.9287 7.04906 20.1849 6.98463 20.4197 6.84916C21.1327 6.4376 21.3768 5.52587 20.9653 4.81304L20.5827 4.15057C20.1713 3.43758 19.2597 3.19329 18.5466 3.60502C17.8336 4.01658 17.5895 4.92815 18.001 5.64114L18.3835 6.30344ZM32 3.74613C32.8232 3.74613 33.4905 3.07885 33.4905 2.25556V1.49057C33.4905 0.667443 32.8232 0 32 0C31.1767 0 30.5094 0.667443 30.5094 1.49057V2.25556C30.5094 3.07885 31.1767 3.74613 32 3.74613ZM43.5798 6.84883C43.8147 6.98447 44.0709 7.04889 44.324 7.04889C44.8389 7.04889 45.34 6.78159 45.6161 6.30361L45.9989 5.64114C46.4106 4.92831 46.1665 4.01658 45.4537 3.60485C44.7407 3.19313 43.8291 3.43708 43.4174 4.15007L43.0346 4.81255C42.6229 5.52553 42.867 6.4371 43.5798 6.84883ZM11.9425 15.3263C12.3539 14.6134 12.1097 13.7018 11.3967 13.2902L10.734 12.9078C10.0212 12.4963 9.10964 12.7405 8.69791 13.4537C8.28635 14.1667 8.5308 15.0782 9.24379 15.4898L9.90643 15.8722C10.1411 16.0077 10.3973 16.0721 10.6502 16.0721C11.1653 16.072 11.6665 15.8045 11.9425 15.3263ZM41.7397 26.8451C42.5495 26.9864 43.3226 26.444 43.4642 25.633C43.579 24.975 43.6371 24.2992 43.6371 23.6245C43.6371 17.2076 38.4167 11.9871 31.9998 11.9871C25.5829 11.9871 20.3624 17.2076 20.3624 23.6245C20.3624 24.2982 20.4207 24.9738 20.5353 25.6326C20.6615 26.3572 21.2911 26.8676 22.0021 26.8676C22.087 26.8676 22.1731 26.8604 22.2596 26.8453C23.0706 26.704 23.6135 25.9321 23.4723 25.121C23.3868 24.6308 23.3436 24.1273 23.3436 23.6245C23.3436 18.8514 27.2267 14.9683 31.9998 14.9683C36.7729 14.9683 40.656 18.8515 40.656 23.6245C40.656 24.128 40.6128 24.6313 40.5273 25.1205C40.3861 25.9316 40.9286 26.7037 41.7397 26.8451ZM51.955 23.8862H48.7231C47.9593 23.8862 47.3192 24.4635 47.2405 25.2232C46.4305 33.0477 39.8784 38.948 32 38.948C24.1215 38.948 17.5694 33.0477 16.7594 25.2232C16.6807 24.4635 16.0406 23.8862 15.2768 23.8862H12.0447C11.2214 23.8862 10.5542 24.5535 10.5542 25.3767C10.5542 26.2 11.2214 26.8673 12.0447 26.8673H13.9825C14.6913 30.8281 16.6927 34.4523 19.7048 37.185C22.7073 39.909 26.4979 41.5433 30.5092 41.8689V51.7359H17.4954C14.1141 51.7359 11.3632 54.4867 11.3632 57.8678C11.3632 61.2491 14.1141 64 17.4954 64H27.3585C27.6591 64 27.9526 63.9091 28.2005 63.7393L34.9798 59.0977C35.6591 58.6326 35.8327 57.705 35.3676 57.0258C34.9026 56.3466 33.975 56.1729 33.2956 56.6379L26.8971 61.0189H17.4954C15.7579 61.0189 14.3443 59.6053 14.3443 57.8678C14.3443 56.1305 15.7579 54.7171 17.4954 54.7171H46.5043C48.2418 54.7171 49.6554 56.1305 49.6554 57.8678C49.6554 59.6053 48.2418 61.0189 46.5043 61.0189H36.6414C35.8181 61.0189 35.1508 61.6861 35.1508 62.5094C35.1508 63.3327 35.8181 64 36.6414 64H46.5043C49.8856 64 52.6365 61.2491 52.6365 57.8678C52.6365 54.4867 49.8856 51.7359 46.5043 51.7359H33.4904V41.8689C37.5016 41.5433 41.2921 39.9091 44.2947 37.185C47.3069 34.4523 49.3081 30.8279 50.0171 26.8673H51.9548C52.7781 26.8673 53.4454 26.2 53.4454 25.3767C53.4454 24.5535 52.7783 23.8862 51.955 23.8862ZM32.4523 22.3534C35.4766 23.3168 37.5086 26.098 37.5086 29.2741C37.5086 32.45 35.4766 35.2312 32.4523 36.1946C32.305 36.2415 32.1523 36.265 31.9998 36.265C31.8471 36.265 31.6946 36.2415 31.5473 36.1946C28.5228 35.2309 26.4908 32.4498 26.4908 29.2741C26.4908 26.0982 28.523 23.3169 31.5475 22.3534C31.8418 22.2598 32.1581 22.2598 32.4523 22.3534ZM32 25.3663C30.47 26.0495 29.472 27.5647 29.472 29.2741C29.472 30.9834 30.47 32.4987 32 33.1819C33.5298 32.4987 34.5276 30.9834 34.5276 29.2741C34.5275 27.5647 33.5298 26.0493 32 25.3663ZM55.3017 13.4532C54.8899 12.7404 53.978 12.4963 53.2655 12.9078L52.6031 13.2904C51.8901 13.7021 51.646 14.6137 52.0577 15.3267C52.3338 15.8048 52.8348 16.0721 53.3498 16.0721C53.6027 16.0721 53.8591 16.0077 54.0938 15.8721L54.7563 15.4895C55.4691 15.0779 55.7132 14.1662 55.3017 13.4532Z" fill="url(#paint0_linear)"/>
<defs>
<linearGradient id="paint0_linear" x1="8.49805" y1="0" x2="69.5659" y2="44.8501" gradientUnits="userSpaceOnUse">
<stop offset="0.34375" stop-color="#0086B5"/>
<stop offset="1" stop-color="#46AEF7"/>
</linearGradient>
</defs>
</svg>
