<svg width="64" height="63" viewBox="0 0 64 63" fill="none" xmlns="http://www.w3.org/2000/svg">
<g clip-path="url(#clip0)">
<path d="M34.9226 39.8612C35.4696 40.3872 35.4801 41.2501 34.9458 41.7887C34.3237 42.4158 33.2709 42.7956 32.0577 42.8309C31.9967 42.8327 31.9358 42.8336 31.8753 42.8336C30.7363 42.8336 29.7366 42.5179 29.1119 41.9562C28.5473 41.4486 28.5077 40.5865 29.0236 40.0307C29.536 39.4784 30.4038 39.4363 30.969 39.9342C31.0387 39.9795 31.3799 40.1258 31.9758 40.1063C32.5736 40.089 32.9076 39.9239 32.9739 39.8749C33.5088 39.3454 34.3784 39.3385 34.9226 39.8612ZM33.0652 29.9138C32.6413 30.5405 32.8136 31.3866 33.45 31.8038C34.0869 32.2208 34.9463 32.0512 35.3699 31.4249C35.4296 31.3366 35.6962 31.1543 36.1391 31.1543C36.5819 31.1543 36.8483 31.3366 36.908 31.4249C37.1748 31.8192 37.6141 32.0324 38.0617 32.0324C38.3255 32.0324 38.592 31.9584 38.8279 31.8038C39.4644 31.3864 39.6367 30.5403 39.2127 29.9138C38.5929 28.9976 37.4151 28.4284 36.1391 28.4284C34.8629 28.4285 33.6851 28.9976 33.0652 29.9138ZM33.3514 50.083H30.6495C27.0752 50.083 24.017 51.994 21.8058 55.6093C21.4114 56.2542 21.6228 57.0917 22.2777 57.48C22.9332 57.8684 23.7838 57.6602 24.1781 57.0155C25.8854 54.2242 28.0625 52.8091 30.6495 52.8091H33.3514C35.9376 52.8091 38.1146 54.2244 39.8221 57.0155C40.0819 57.4404 40.5399 57.6756 41.0096 57.6755C41.2526 57.6755 41.4991 57.6125 41.7225 57.48C42.3775 57.0918 42.5889 56.2541 42.1943 55.6093C39.9827 51.994 36.9249 50.083 33.3514 50.083ZM29.7845 32.0324C30.0481 32.0324 30.3146 31.9584 30.5506 31.8038C31.187 31.3864 31.3593 30.5403 30.9353 29.9138C30.3155 28.9976 29.1376 28.4284 27.8614 28.4284C26.5853 28.4284 25.4077 28.9976 24.7879 29.9138C24.3639 30.5405 24.5362 31.3866 25.1726 31.8038C25.8091 32.2205 26.6686 32.0514 27.0926 31.4249C27.1522 31.3366 27.4187 31.1543 27.8614 31.1543C28.3044 31.1543 28.571 31.3366 28.6306 31.4249C28.8976 31.8192 29.3368 32.0324 29.7845 32.0324ZM13.6757 22.7079C13.6757 18.3645 15.8361 14.3999 19.4825 11.998C21.3037 6.31928 25.7912 1.87946 31.5802 0.0641932C31.8536 -0.0215198 32.1473 -0.0215198 32.4207 0.0641932C38.21 1.87946 42.6973 6.31913 44.5177 11.9977C48.1647 14.3995 50.3252 18.3644 50.3252 22.7079C50.3252 27.3973 47.3019 31.1303 44.2685 33.2245C44.0671 36.4754 42.9279 39.5538 40.9436 42.1835C38.7912 45.0358 35.8441 47.111 32.421 48.1845C32.2842 48.2273 32.1424 48.2489 32.0007 48.2489C31.859 48.2489 31.717 48.2273 31.5804 48.1845C28.1573 47.111 25.2102 45.0358 23.0578 42.1835C21.1243 39.6212 19.9933 36.6337 19.7502 33.475C15.9851 31.0487 13.6757 26.9867 13.6757 22.7079ZM16.4448 22.7079C16.4448 25.4901 17.7018 28.1637 19.8311 30.094C20.2607 26.6976 21.7341 23.5034 24.0867 20.935C24.8111 20.1438 26.1349 19.4232 27.6681 18.5887C30.2946 17.1591 33.8918 15.2009 33.3989 13.1501C33.2229 12.4175 33.6835 11.6832 34.4277 11.5101C35.1727 11.3358 35.9178 11.7901 36.0937 12.5226C37.0703 16.5858 32.4107 19.1222 29.0082 20.9742C27.8031 21.6301 26.5572 22.3085 26.1435 22.7603C23.7741 25.3473 22.4692 28.6919 22.4692 32.1778C22.4692 32.7071 22.4987 33.2307 22.5566 33.7468C22.7153 33.9616 23.0826 34.3665 23.6807 34.8422C24.4383 35.4447 25.0086 35.7187 25.166 35.757C25.9069 35.9372 26.3632 36.6749 26.1818 37.4048C26.0004 38.1347 25.2551 38.5828 24.5145 38.4062C24.2854 38.3517 24.047 38.263 23.8102 38.1546C25.3977 41.5019 28.3 44.1648 32.0004 45.4486C35.7025 44.1643 38.6058 41.4993 40.1928 38.1499C39.9576 38.2597 39.7201 38.3496 39.4918 38.405C38.75 38.5857 37.9992 38.1387 37.8161 37.4078C37.6332 36.6771 38.0866 35.9387 38.8287 35.7584C38.9832 35.719 39.5396 35.4452 40.2756 34.8495C41.0057 34.2589 41.3846 33.778 41.4562 33.6345C41.506 33.1547 41.5314 32.6688 41.5314 32.1778C41.5314 29.5125 40.7705 26.9178 39.3309 24.6734C38.4623 23.3209 37.3748 22.1309 36.0988 21.137C35.4992 20.67 35.3975 19.8129 35.8721 19.2226C36.3464 18.6323 37.2174 18.532 37.8169 18.9994C39.3387 20.1843 40.6356 21.6036 41.672 23.2175C42.9644 25.2323 43.7988 27.4827 44.1336 29.8269C46.0034 28.0927 47.5558 25.6211 47.5558 22.7079C47.5558 19.1426 45.7089 15.9005 42.6156 14.035C42.3195 13.8563 42.1023 13.5747 42.0072 13.246C40.5906 8.34853 36.8673 4.47251 32.0002 2.79959C27.1333 4.47266 23.4098 8.34883 21.9924 13.2464C21.8974 13.5751 21.6803 13.8566 21.3843 14.0351C18.2914 15.9008 16.4448 19.1429 16.4448 22.7079ZM27.9525 23.4729C27.275 23.8222 27.0135 24.6457 27.3679 25.3124C27.7227 25.9792 28.5593 26.2368 29.2366 25.8879C29.5462 25.7283 30.5413 25.4981 32.0056 25.5246C33.4545 25.5488 34.4295 25.8099 34.7038 25.9688C34.9244 26.0966 35.1659 26.1573 35.4045 26.1572C35.8791 26.1572 36.3413 25.9168 36.5993 25.4851C36.9871 24.8363 36.7671 24.001 36.1081 23.6194C34.9007 22.9202 32.87 22.8128 32.0528 22.799C30.3364 22.77 28.8391 23.0159 27.9525 23.4729ZM46.4187 54.021C45.6814 53.8238 44.9205 54.2547 44.7213 54.9814C44.5219 55.7082 44.9588 56.4564 45.6971 56.6525C47.415 57.1092 48.1793 57.5328 48.5005 57.7683C48.0027 58.1286 46.6293 58.7754 43.6458 59.3372C40.437 59.9413 36.3011 60.2741 32.0004 60.2741C27.6995 60.2741 23.5636 59.9414 20.3548 59.3372C17.3714 58.7754 15.9982 58.1286 15.5002 57.7683C15.8213 57.5328 16.5854 57.1091 18.3034 56.6525C19.0416 56.4564 19.4785 55.7082 19.2792 54.9814C19.0799 54.2548 18.32 53.8247 17.5815 54.021C15.427 54.5936 12.5625 55.6049 12.5625 57.7656C12.5625 59.6087 14.589 60.9017 18.9401 61.8348C22.4438 62.5862 27.0822 63 32.0005 63C36.9188 63 41.5569 62.5862 45.0609 61.8348C49.412 60.9017 51.4385 59.6087 51.4385 57.7656C51.4382 55.605 48.5736 54.5936 46.4187 54.021Z" fill="url(#paint0_linear)"/>
</g>
<defs>
<linearGradient id="paint0_linear" x1="12.5625" y1="-9.15527e-05" x2="68.8725" y2="34.7476" gradientUnits="userSpaceOnUse">
<stop offset="0.34375" stop-color="#0086B5"/>
<stop offset="1" stop-color="#46AEF7"/>
</linearGradient>
<clipPath id="clip0">
<rect width="64" height="63" fill="white"/>
</clipPath>
</defs>
</svg>
