<svg width="60" height="61" viewBox="0 0 60 61" fill="none" xmlns="http://www.w3.org/2000/svg">
<path d="M29.55 12.9655C29.611 12.9739 29.6726 12.9781 29.7338 12.9781C29.9557 12.9781 30.1753 12.9235 30.3735 12.818C32.9709 11.4333 34.3738 8.52876 33.8644 5.59036C33.3546 2.65226 31.0592 0.410576 28.1526 0.0125855C27.87 -0.026 27.5819 0.0254991 27.3293 0.160237C24.7316 1.5448 23.3288 4.44929 23.8382 7.38785C24.3477 10.3258 26.6431 12.5673 29.55 12.9655ZM28.2242 2.87366C29.726 3.2561 30.8771 4.49519 31.1515 6.07657C31.4257 7.6581 30.7606 9.22268 29.4782 10.1042C27.9765 9.7218 26.8252 8.48287 26.5509 6.90149C26.2767 5.31979 26.9416 3.75506 28.2242 2.87366ZM40.6159 51.9713H9.27947V30.5229L13.4247 26.3089L14.9996 27.9102C15.5377 28.457 16.4096 28.457 16.9476 27.9102C17.4856 27.3633 17.4856 26.4767 16.9476 25.9299L8.59892 17.442C8.06084 16.8951 7.189 16.8953 6.65092 17.442C6.113 17.9889 6.113 18.8754 6.65092 19.4223L11.4768 24.3286L6.92807 28.9527C6.66975 29.2154 6.52467 29.5715 6.52467 29.9429V52.0564C4.487 52.465 2.94531 54.2958 2.94531 56.4856C2.94531 58.9749 4.93707 61 7.38534 61H40.6157C43.0641 61 45.056 58.9749 45.056 56.4856C45.056 53.9964 43.0643 51.9713 40.6159 51.9713ZM40.6159 58.1994H7.38549C6.45626 58.1994 5.70011 57.4307 5.70011 56.4856C5.70011 55.5408 6.45611 54.7719 7.38549 54.7719H40.6159C41.5452 54.7719 42.3015 55.5406 42.3015 56.4856C42.3014 57.4307 41.5452 58.1994 40.6159 58.1994ZM12.5777 17.0462C12.0917 16.4512 12.1721 15.5684 12.7574 15.0743C13.3421 14.5801 14.2107 14.6618 14.6969 15.2568L15.0001 15.6291C16.8757 17.9338 17.5775 18.7961 20.4264 19.1759C22.4664 19.4481 26.5162 17.3046 30.09 15.4139C34.4341 13.1158 38.5373 10.945 41.4973 11.304C45.5266 11.7931 46.9991 13.5992 49.0374 16.0991L49.2696 16.3835C49.7556 16.9784 49.6753 17.8613 49.0902 18.3554C48.505 18.8496 47.6367 18.7679 47.1506 18.1731L46.9166 17.8864C44.9881 15.521 44.1078 14.4414 41.1709 14.0848C39.3582 13.8646 36.0881 15.4254 32.9188 17.0782C33.1352 17.737 33.3717 18.441 33.6178 19.1734C34.215 20.9503 34.8919 22.9644 35.4893 24.9627C35.6469 25.4899 35.7948 25.9728 35.9307 26.4172C36.775 29.1765 37.24 30.6964 36.7433 32.2082C36.2546 33.6952 35.0377 34.6637 32.6133 36.5934C30.9749 37.8977 30.8923 38.484 31.1396 47.0492L31.1795 48.4431C31.1901 48.8213 31.0499 49.1877 30.7905 49.459C30.5312 49.7304 30.175 49.8835 29.8028 49.8835H26.7373C25.9766 49.8835 25.36 49.2566 25.36 48.4832C25.36 47.7098 25.9766 47.0829 26.7373 47.0829H28.3849C28.26 42.7567 28.1921 40.3678 28.4552 38.6221C28.7796 36.4694 29.6371 35.4062 30.9152 34.3886C32.7795 32.905 33.9045 32.0094 34.1308 31.3212C34.346 30.6662 33.9525 29.38 33.3006 27.2494C33.1632 26.7997 33.0135 26.3112 32.854 25.7777C32.2703 23.8249 31.6013 21.835 31.0113 20.0793C30.8147 19.4939 30.6238 18.9264 30.4439 18.3835C26.47 20.4769 22.7596 22.3119 20.0683 21.9529C16.1457 21.43 14.8457 19.8326 12.878 17.4148L12.5777 17.0462ZM57.0545 37.3077C57.0545 38.0812 56.4379 38.708 55.6772 38.708H53.2708C50.3722 40.5463 47.8401 41.4537 45.593 41.4538C44.9941 41.4538 44.4159 41.3894 43.8556 41.2609C41.5596 40.7342 39.6308 39.1485 37.959 36.4133C37.5576 35.7564 37.7559 34.893 38.402 34.4848C39.0483 34.0765 39.8973 34.2783 40.2989 34.9352C41.5786 37.0291 42.9016 38.1711 44.4621 38.5291C46.45 38.9854 48.9568 38.1999 52.1274 36.1296C52.3493 35.9846 52.6077 35.9076 52.8716 35.9076H55.6772C56.4378 35.9075 57.0545 36.5343 57.0545 37.3077Z" fill="url(#paint0_linear)"/>
<defs>
<linearGradient id="paint0_linear" x1="2.94531" y1="0.00012207" x2="63.5095" y2="53.7229" gradientUnits="userSpaceOnUse">
<stop offset="0.34375" stop-color="#0086B5"/>
<stop offset="1" stop-color="#46AEF7"/>
</linearGradient>
</defs>
</svg>
