<svg width="68" height="68" viewBox="0 0 68 68" fill="none" xmlns="http://www.w3.org/2000/svg">
<g clip-path="url(#clip0)">
<path d="M12.3707 21.2817C11.8423 17.5442 12.5806 14.9609 14.8391 12.6434C16.5188 10.9197 18.9009 9.89072 21.2108 9.89072H24.8288C25.9427 9.89072 27.5686 8.35305 28.0771 6.29497L28.1786 5.88517C28.3513 5.18903 29.0481 4.76624 29.7344 4.94154C30.4212 5.1164 30.838 5.82265 30.6653 6.51864L30.564 6.92742C29.7934 10.0462 27.274 12.4899 24.8288 12.4899H21.2108C19.596 12.4899 17.8535 13.2487 16.6631 14.4701C14.9664 16.2111 14.4908 17.9573 14.9088 20.9131L16.5604 32.5916C16.661 33.302 16.1742 33.9604 15.4734 34.0625C15.4117 34.0715 15.3505 34.0758 15.2898 34.0758C14.6623 34.0758 14.114 33.6085 14.0225 32.9605L12.3707 21.2817ZM23.1109 25.8308C23.0469 24.6378 23.0097 23.3974 23.0164 22.1272C23.0201 21.4095 22.4494 20.8246 21.7413 20.8207C21.0327 20.8207 20.4563 21.3955 20.4524 22.1132C20.4343 25.5456 20.7345 28.8547 20.9981 31.3544C21.0685 32.0211 21.6245 32.5159 22.2713 32.5159C22.3169 32.5159 22.3629 32.5133 22.4092 32.5084C23.1132 32.4322 23.623 31.7916 23.5478 31.078C23.4777 30.4139 23.4074 29.7166 23.3419 28.9916C24.4537 29.4472 25.7903 29.7016 27.2117 29.7016C29.8834 29.7016 32.254 28.8036 33.3985 27.3581C33.8417 26.7984 33.7534 25.9804 33.2011 25.5312C32.649 25.0821 31.842 25.1715 31.3989 25.7314C30.876 26.3918 29.3427 27.1026 27.2117 27.1026C25.1876 27.1025 23.7027 26.4612 23.1109 25.8308ZM42.4246 29.7016C45.0964 29.7016 47.467 28.8035 48.6112 27.3581C48.7768 27.149 48.8745 26.893 48.8909 26.6255C48.9097 26.3194 48.9305 26.0095 48.9514 25.6974C49.0298 24.5279 49.1107 23.3186 49.1044 22.1134C49.1005 21.398 48.5274 20.8208 47.8225 20.8208C47.8203 20.8208 47.8178 20.8208 47.8156 20.8208C47.1076 20.8246 46.5367 21.4097 46.5404 22.1273C46.5464 23.2374 46.4684 24.3985 46.3932 25.5215C46.3828 25.6767 46.3724 25.8315 46.3623 25.9856C45.687 26.562 44.2832 27.1026 42.4246 27.1026C40.2937 27.1026 38.7603 26.3918 38.2374 25.7314C37.7944 25.1716 36.9874 25.0819 36.4352 25.5312C35.8831 25.9804 35.7946 26.7984 36.2378 27.3581C37.3823 28.8036 39.7529 29.7016 42.4246 29.7016ZM9.22676 33.1349C9.04799 33.8295 9.45852 34.5393 10.1437 34.7204C10.2522 34.749 10.3609 34.7627 10.4682 34.7627C11.0375 34.7627 11.5573 34.3753 11.7077 33.7909C12.4125 31.0514 11.0775 27.6988 8.45414 25.6321C8.30927 25.5196 8.15871 25.4143 8.00373 25.3162L8.32095 23.9857C8.48733 23.2881 8.06426 22.5859 7.37597 22.4173C6.68796 22.2477 5.99497 22.6775 5.82873 23.3752L5.60538 24.3117C4.70213 24.0663 3.80074 23.9236 3.03325 23.802C2.93496 23.7866 2.83739 23.771 2.74223 23.7558L3.8657 16.6193C3.96341 16.635 4.06327 16.6509 4.16526 16.667C5.51735 16.881 7.36899 17.1744 8.42266 17.9925C8.9846 18.4289 9.78928 18.3209 10.22 17.7512C10.6506 17.1814 10.5439 16.3657 9.982 15.9292C8.41012 14.7085 6.18541 14.3562 4.56111 14.099C4.00373 14.0108 3.47725 13.9275 3.18253 13.8368C2.82813 13.7275 2.44438 13.7793 2.13029 13.9783C1.8162 14.1773 1.60239 14.5046 1.54398 14.8754L0.0161193 24.5784C-0.0847318 25.2196 0.296594 25.838 0.909535 26.0266C1.37604 26.1703 1.96049 26.2628 2.63739 26.37C3.98948 26.584 5.84113 26.8774 6.88767 27.69C8.66054 29.0865 9.66606 31.4273 9.22676 33.1349ZM38.9476 6.92641C39.7185 10.046 42.238 12.4897 44.6832 12.4897H48.3011C49.9159 12.4897 51.6584 13.2485 52.8488 14.47C54.5455 16.211 55.0211 17.957 54.6033 20.9128L53.7797 26.734C53.6792 27.4444 54.1659 28.1029 54.8667 28.2049C54.9285 28.2139 54.9898 28.2182 55.0503 28.2182C55.6777 28.2182 56.2261 27.751 56.3177 27.1029L57.1413 21.2816C57.6695 17.544 56.9312 14.9608 54.6726 12.6434C52.9929 10.9197 50.6108 9.89072 48.3009 9.89072H44.6829C43.569 9.89072 41.9431 8.3529 41.4343 6.29439L41.3332 5.8856C41.1608 5.18947 40.464 4.76653 39.7777 4.94139C39.0909 5.11611 38.6739 5.82207 38.8462 6.5182L38.9476 6.92641ZM45.9468 46.6006C45.239 46.6172 44.6785 47.2123 44.6949 47.9299C44.7595 50.7571 45.054 53.3797 45.595 55.948C45.7236 56.5586 46.2555 56.9765 46.8475 56.9765C46.9362 56.9765 47.0263 56.9671 47.1164 56.9476C47.8089 56.7977 48.2503 56.1072 48.1024 55.4053C47.5952 52.9975 47.319 50.5325 47.2582 47.8696C47.2418 47.1521 46.6523 46.5811 45.9468 46.6006ZM51.0381 52.158C50.3618 51.9454 49.6437 52.3295 49.4344 53.0153C49.225 53.701 49.6037 54.4288 50.2801 54.641C53.2487 55.5722 53.8913 56.4664 53.8913 56.6376C53.8913 56.8604 53.0011 57.9857 48.8893 59.0264C45.1359 59.9762 40.1245 60.4993 34.7786 60.4993C29.4327 60.4993 24.4215 59.9762 20.6679 59.0264C16.556 57.9857 15.666 56.8604 15.666 56.6376C15.666 56.4661 16.3086 55.5722 19.277 54.641C19.9534 54.4288 20.3319 53.701 20.1227 53.0153C19.9133 52.3295 19.1951 51.9454 18.519 52.158C14.9246 53.2856 13.1021 54.7926 13.1021 56.6375C13.1021 58.7295 15.4388 60.3817 20.047 61.5479C23.9977 62.5477 29.2295 63.0983 34.7787 63.0983C40.3279 63.0983 45.5598 62.5477 49.5105 61.5479C54.1189 60.3817 56.4554 58.7295 56.4554 56.6375C56.4553 54.7928 54.6327 53.2856 51.0381 52.158ZM15.0248 48.2911C15.0958 48.281 15.1663 48.2706 15.2368 48.2602L61.0876 41.4816C61.7881 41.3781 62.2733 40.7185 62.1712 40.0082C62.069 39.2979 61.4178 38.8081 60.7175 38.9098L57.7735 39.3451L57.7581 38.6042C57.7433 37.8867 57.1584 37.3237 56.4493 37.3322C55.7415 37.3473 55.1797 37.9413 55.1945 38.659L55.2166 39.7232L47.3439 40.887L47.3285 40.1461C47.3139 39.4378 46.7428 38.8738 46.0474 38.8738C46.0383 38.8738 46.029 38.874 46.0199 38.8741C45.3121 38.8891 44.7503 39.4832 44.7651 40.2008L44.7872 41.265L36.9145 42.4289L36.8991 41.6881C36.8843 40.9798 36.3134 40.4158 35.6178 40.4158C35.6087 40.4158 35.5996 40.416 35.5903 40.4161C34.8825 40.4311 34.3207 41.0252 34.3356 41.7428L34.3576 42.8069L26.4848 43.9709L26.4694 43.2301C26.4546 42.5125 25.8708 41.9461 25.1607 41.9581C24.4529 41.9731 23.8911 42.5672 23.9059 43.2848L23.9279 44.3487L16.0553 45.5127L16.0399 44.7717C16.0249 44.0539 15.4375 43.4889 14.7311 43.4997C14.0232 43.5147 13.4615 44.1088 13.4763 44.8264L13.4978 45.8627C9.80922 46.2427 8.28676 45.5428 7.30019 43.2344C6.45748 41.2629 5.67389 37.3325 6.46162 35.3833C6.70363 34.7845 7.00917 34.6014 7.218 34.5158C7.87439 34.2466 8.19133 33.4891 7.92581 32.8236C7.66029 32.1584 6.91288 31.8368 6.25664 32.1061C5.28317 32.5054 4.53348 33.2978 4.08891 34.398C2.85519 37.4511 4.13463 42.3659 4.94742 44.2677C6.41333 47.6977 9.05668 48.5585 11.875 48.5585C12.8907 48.5585 13.9302 48.4466 14.9442 48.3028C14.972 48.2994 14.9986 48.2957 15.0248 48.2911ZM65.4772 35.8292C65.3138 35.4372 65.1595 35.0668 65.0356 34.7451C63.7664 31.4513 61.3711 29.7265 58.6278 30.1324L9.16807 37.4443C8.46753 37.548 7.98236 38.2076 8.08449 38.9179C8.18663 39.6281 8.83845 40.1191 9.53814 40.0163L58.9979 32.7043C61.131 32.3877 62.2608 34.6878 62.6474 35.6906C62.784 36.0454 62.9449 36.4316 63.1153 36.8406C63.7895 38.4588 64.8084 40.9045 64.4427 42.1552C64.0503 43.4964 62.2022 44.0972 60.2459 44.7334C57.7574 45.5426 54.9368 46.46 54.4626 49.3867C54.3478 50.095 54.8211 50.7634 55.5198 50.8798C55.5902 50.8915 55.6601 50.8971 55.7292 50.8971C56.3459 50.8971 56.8894 50.445 56.9927 49.8081C57.198 48.541 58.6546 47.9806 61.029 47.2084C63.4167 46.432 66.123 45.5519 66.9009 42.8941C67.5277 40.7505 66.3907 38.0217 65.4772 35.8292ZM22.1971 50.056C22.0655 51.9075 21.8226 53.6574 21.4544 55.4055C21.3065 56.1074 21.7481 56.7979 22.4405 56.9478C22.5307 56.9673 22.6207 56.9766 22.7095 56.9766C23.3015 56.9766 23.8335 56.5585 23.962 55.9481C24.355 54.0815 24.6144 52.2153 24.7544 50.2427C24.8053 49.527 24.2741 48.9047 23.5678 48.8532C22.86 48.8012 22.2479 49.3402 22.1971 50.056ZM33.4964 51.7251V52.2657C33.4964 52.9835 34.0703 53.5653 34.7784 53.5653C35.4865 53.5653 36.0604 52.9835 36.0604 52.2657V51.7251C36.0604 51.0073 35.4865 50.4255 34.7784 50.4255C34.0703 50.4255 33.4964 51.0073 33.4964 51.7251Z" fill="url(#paint0_linear)"/>
</g>
<defs>
<linearGradient id="paint0_linear" x1="0" y1="4.90192" x2="57.6139" y2="71.3117" gradientUnits="userSpaceOnUse">
<stop offset="0.34375" stop-color="#0086B5"/>
<stop offset="1" stop-color="#46AEF7"/>
</linearGradient>
<clipPath id="clip0">
<rect width="67.0811" height="68" fill="white"/>
</clipPath>
</defs>
</svg>
