<svg width="64" height="64" viewBox="0 0 64 64" fill="none" xmlns="http://www.w3.org/2000/svg">
<path d="M8.8486 23.2262C8.8486 22.4964 9.44009 21.905 10.1699 21.905H11.4229C12.1527 21.905 12.7442 22.4964 12.7442 23.2262C12.7442 23.956 12.1527 24.5475 11.4229 24.5475H10.1699C9.44024 24.5475 8.8486 23.956 8.8486 23.2262ZM25.8259 19.9335C25.8259 16.2602 28.1762 13.0435 31.674 11.9292C31.9349 11.8461 32.2155 11.8461 32.4763 11.9292C35.9742 13.0436 38.3243 16.2602 38.3243 19.9335C38.3243 23.6068 35.9742 26.8236 32.4763 27.9379C32.3458 27.9794 32.2105 28.0003 32.0753 28.0003C31.9401 28.0003 31.8046 27.9794 31.6742 27.9379C28.1762 26.8236 25.8259 23.6069 25.8259 19.9335ZM28.4685 19.9335C28.4685 22.3085 29.901 24.4048 32.0751 25.2761C34.2492 24.4048 35.6816 22.3085 35.6816 19.9335C35.6816 17.5586 34.2491 15.4623 32.0751 14.591C29.901 15.4623 28.4685 17.5587 28.4685 19.9335ZM16.5372 9.55721C16.7953 9.8153 17.1336 9.94435 17.4717 9.94435C17.8098 9.94435 18.1477 9.81545 18.4058 9.55751C18.9218 9.04148 18.922 8.20496 18.4061 7.68879L17.5206 6.80295C17.0045 6.28691 16.1682 6.28662 15.6518 6.80265C15.1358 7.31868 15.1357 8.1552 15.6515 8.67137L16.5372 9.55721ZM52.7272 24.5475H53.9798C54.7096 24.5475 55.301 23.956 55.301 23.2262C55.301 22.4964 54.7096 21.905 53.9798 21.905H52.7272C51.9974 21.905 51.4059 22.4964 51.4059 23.2262C51.4059 23.956 51.9976 24.5475 52.7272 24.5475ZM46.6781 9.9442C47.0164 9.9442 47.3543 9.81516 47.6124 9.55721L48.4983 8.67137C49.0143 8.15534 49.0143 7.31868 48.4983 6.80265C47.9821 6.28677 47.1457 6.28677 46.6295 6.80265L45.7437 7.68849C45.2277 8.20452 45.2277 9.04118 45.7437 9.55721C46.0019 9.81516 46.3399 9.9442 46.6781 9.9442ZM32.0748 3.89541C32.8046 3.89541 33.3961 3.30392 33.3961 2.57413V1.32127C33.3961 0.59149 32.8046 0 32.0748 0C31.345 0 30.7535 0.59149 30.7535 1.32127V2.57413C30.7535 3.30392 31.3452 3.89541 32.0748 3.89541ZM32.0001 60.5509C31.2703 60.5509 30.6788 61.1424 30.6788 61.8722V62.6787C30.6788 63.4085 31.2703 64 32.0001 64C32.7299 64 33.3214 63.4085 33.3214 62.6787V61.8722C33.3214 61.1425 32.7297 60.5509 32.0001 60.5509ZM42.938 54.9734L42.2398 54.5701C41.6077 54.2048 40.7996 54.4215 40.4348 55.0532C40.0698 55.6852 40.2861 56.4934 40.918 56.8582L41.6162 57.2615C41.8244 57.3817 42.0516 57.439 42.2758 57.439C42.7324 57.439 43.1765 57.2021 43.4212 56.7784C43.7862 56.1464 43.5698 55.3382 42.938 54.9734ZM39.2118 59.5856C38.8468 58.9536 38.0386 58.7374 37.4067 59.1023C36.7747 59.4672 36.5585 60.2753 36.9235 60.9072L37.3267 61.6057C37.5716 62.0295 38.0156 62.2665 38.4723 62.2665C38.6965 62.2665 38.9237 62.2092 39.1317 62.0891C39.7638 61.7242 39.98 60.916 39.615 60.2841L39.2118 59.5856ZM21.761 54.5699L21.0625 54.9732C20.4304 55.338 20.214 56.1461 20.5789 56.7781C20.8236 57.202 21.2675 57.439 21.7244 57.439C21.9484 57.439 22.1757 57.3817 22.3837 57.2617L23.0822 56.8584C23.7142 56.4936 23.9306 55.6855 23.5658 55.0535C23.201 54.4216 22.393 54.205 21.761 54.5699ZM48.9545 36.8277C44.4067 33.8083 38.3857 32.1453 32.0001 32.1453C25.6147 32.1453 19.5933 33.8082 15.0458 36.8277C10.3317 39.9577 7.73535 44.1741 7.73535 48.7002C7.73535 49.43 8.32684 50.0215 9.05663 50.0215H18.652C19.091 50.0215 19.5013 49.8035 19.7469 49.4397C19.9927 49.0759 20.0417 48.6139 19.8777 48.2068L18.3393 44.3858C18.0668 43.7089 17.2968 43.3814 16.6202 43.6537C15.9432 43.9262 15.6154 44.696 15.888 45.3728L16.6958 47.3791H10.4755C10.9391 44.2572 13.0401 41.3315 16.5074 39.0293C20.6267 36.2942 26.1287 34.788 32 34.788C37.8713 34.788 43.3735 36.2942 47.4928 39.0293C50.9601 41.3315 53.0611 44.2572 53.5247 47.3791H47.3047L48.1126 45.373C48.3851 44.696 48.0574 43.9263 47.3806 43.6537C46.7035 43.3814 45.934 43.7088 45.6613 44.3857L44.1226 48.2067C43.9587 48.6139 44.0077 49.0759 44.2533 49.4397C44.4991 49.8035 44.9094 50.0215 45.3483 50.0215H54.944C55.6738 50.0215 56.2653 49.43 56.2653 48.7002C56.2651 44.1741 53.6688 39.9578 48.9545 36.8277ZM26.5932 59.102C25.9609 58.7371 25.153 58.9539 24.7883 59.5859L24.3852 60.2844C24.0205 60.9164 24.237 61.7246 24.869 62.0893C25.0771 62.2094 25.3042 62.2665 25.5282 62.2665C25.9849 62.2665 26.4292 62.0294 26.6739 61.6054L27.077 60.9069C27.4417 60.2749 27.225 59.4667 26.5932 59.102ZM38.7061 51.0302C38.7061 56.0398 35.3326 58.6609 32 58.6609C28.6673 58.6609 25.2938 56.0398 25.2938 51.0302C25.2938 47.2439 27.8688 42.1407 31.1561 39.4123C31.6453 39.0062 32.3546 39.0062 32.8438 39.4123C36.1311 42.1407 38.7061 47.2439 38.7061 51.0302ZM36.0636 51.0302C36.0636 48.3651 34.2747 44.584 32 42.2316C29.7252 44.5839 27.9363 48.3649 27.9363 51.0302C27.9363 54.476 29.9772 56.0183 32 56.0183C34.0227 56.0183 36.0636 54.4758 36.0636 51.0302ZM31.6592 52.037C30.9294 52.0398 30.3403 52.6335 30.3429 53.3633C30.3457 54.0913 30.9368 54.6796 31.6641 54.6796C31.6658 54.6796 31.6674 54.6796 31.6692 54.6796C33.26 54.6736 34.8703 53.3767 34.8703 50.9099C34.8703 50.1801 34.2789 49.5886 33.5491 49.5886C32.8193 49.5886 32.2278 50.1801 32.2278 50.9099C32.2278 51.6486 31.9418 52.036 31.6592 52.037Z" fill="url(#paint0_linear)"/>
<defs>
<linearGradient id="paint0_linear" x1="7.73535" y1="0" x2="69.3611" y2="46.7296" gradientUnits="userSpaceOnUse">
<stop offset="0.34375" stop-color="#0086B5"/>
<stop offset="1" stop-color="#46AEF7"/>
</linearGradient>
</defs>
</svg>
