<svg width="23" height="16" viewBox="0 0 23 16" fill="none" xmlns="http://www.w3.org/2000/svg">
<path fill-rule="evenodd" clip-rule="evenodd" d="M0.5625 8.00001C0.5625 7.78452 0.64481 7.57786 0.791322 7.42549C0.937835 7.27311 1.13655 7.18751 1.34375 7.18751L19.7703 7.18751L14.8531 2.07526C14.7064 1.9227 14.624 1.71577 14.624 1.50001C14.624 1.28425 14.7064 1.07733 14.8531 0.924761C14.9998 0.772195 15.1988 0.686486 15.4063 0.686485C15.6137 0.686485 15.8127 0.772195 15.9594 0.924761L22.2094 7.42476C22.2821 7.50023 22.3399 7.5899 22.3792 7.68861C22.4186 7.78732 22.4389 7.89314 22.4389 8.00001C22.4389 8.10688 22.4186 8.2127 22.3792 8.31141C22.3399 8.41013 22.2821 8.49979 22.2094 8.57526L15.9594 15.0753C15.8127 15.2278 15.6137 15.3135 15.4063 15.3135C15.1988 15.3135 14.9998 15.2278 14.8531 15.0753C14.7064 14.9227 14.624 14.7158 14.624 14.5C14.624 14.2843 14.7064 14.0773 14.8531 13.9248L19.7703 8.81251L1.34375 8.81251C1.13655 8.81251 0.937835 8.72691 0.791323 8.57453C0.64481 8.42216 0.5625 8.2155 0.5625 8.00001Z" fill="white"/>
</svg>
