<svg width="38" height="46" viewBox="0 0 38 46" fill="none" xmlns="http://www.w3.org/2000/svg">
<path d="M30.4069 29.1094C30.4069 30.1018 29.6024 30.9062 28.61 30.9062H26.6334C24.2493 30.8114 24.2511 27.4066 26.6334 27.3125H28.61C29.6024 27.3125 30.4069 28.117 30.4069 29.1094ZM34.0006 29.8281V15.0938H4V38.8125C4 40.7941 5.61215 42.4062 7.59375 42.4062H30.4069C32.3885 42.4062 34.0006 40.7941 34.0006 38.8125C34.0006 37.8201 34.8051 37.0156 35.7975 37.0156C36.7899 37.0156 37.5944 37.8201 37.5944 38.8125C37.5944 42.7757 34.3701 46 30.4069 46H7.59375C3.63056 46 0.40625 42.7757 0.40625 38.8125V7.1875C0.40625 3.22431 3.63056 0 7.59375 0H30.4069C34.3701 0 37.5944 3.22431 37.5944 7.1875V29.8281C37.4995 32.2122 34.0947 32.2104 34.0006 29.8281ZM34.0006 11.5V7.1875C34.0006 5.20591 32.3885 3.59375 30.4069 3.59375H7.59375C5.61215 3.59375 4 5.20591 4 7.1875V11.5H34.0006ZM28.61 20.4844H26.6334C24.2493 20.5793 24.2511 23.9841 26.6334 24.0781H28.61C30.9941 23.9832 30.9923 20.5784 28.61 20.4844ZM28.61 34.1406H26.6334C24.2493 34.2355 24.2511 37.6403 26.6334 37.7344H28.61C30.9941 37.6395 30.9923 34.2347 28.61 34.1406ZM19.985 27.3125H18.0084C15.6243 27.4074 15.6261 30.8122 18.0084 30.9062H19.985C22.3691 30.8114 22.3673 27.4066 19.985 27.3125ZM19.985 20.4844H18.0084C15.6243 20.5793 15.6261 23.9841 18.0084 24.0781H19.985C22.3691 23.9832 22.3673 20.5784 19.985 20.4844ZM9.39062 24.0781H11.3672C13.7513 23.9832 13.7495 20.5784 11.3672 20.4844H9.39062C7.00653 20.5793 7.00833 23.9841 9.39062 24.0781ZM9.47328 37.7344H19.8053C22.1894 37.6395 22.1876 34.2347 19.8053 34.1406H9.47328C7.08919 34.2355 7.09098 37.6403 9.47328 37.7344ZM9.39062 30.9062H11.3672C13.7513 30.8114 13.7495 27.4066 11.3672 27.3125H9.39062C7.00653 27.4074 7.00833 30.8122 9.39062 30.9062Z" fill="white"/>
</svg>
