<svg width="24" height="24" viewBox="0 0 24 24" fill="none" xmlns="http://www.w3.org/2000/svg">
<path d="M14.5849 11.9999L22.4682 4.13493C22.8134 3.78971 23.0074 3.32149 23.0074 2.83327C23.0074 2.34505 22.8134 1.87682 22.4682 1.5316C22.123 1.18638 21.6548 0.992432 21.1666 0.992432C20.6783 0.992432 20.2101 1.18638 19.8649 1.5316L11.9999 9.41494L4.13489 1.5316C3.78966 1.18638 3.32144 0.992432 2.83322 0.992432C2.345 0.992432 1.87678 1.18638 1.53155 1.5316C1.18633 1.87682 0.992387 2.34505 0.992387 2.83327C0.992387 3.32149 1.18633 3.78971 1.53155 4.13493L9.41489 11.9999L1.53155 19.8649C1.35972 20.0354 1.22333 20.2381 1.13025 20.4615C1.03718 20.685 0.989258 20.9246 0.989258 21.1666C0.989258 21.4086 1.03718 21.6483 1.13025 21.8717C1.22333 22.0951 1.35972 22.2978 1.53155 22.4683C1.70199 22.6401 1.90476 22.7765 2.12816 22.8696C2.35157 22.9626 2.5912 23.0106 2.83322 23.0106C3.07524 23.0106 3.31487 22.9626 3.53828 22.8696C3.76169 22.7765 3.96446 22.6401 4.13489 22.4683L11.9999 14.5849L19.8649 22.4683C20.0353 22.6401 20.2381 22.7765 20.4615 22.8696C20.6849 22.9626 20.9245 23.0106 21.1666 23.0106C21.4086 23.0106 21.6482 22.9626 21.8716 22.8696C22.095 22.7765 22.2978 22.6401 22.4682 22.4683C22.6401 22.2978 22.7764 22.0951 22.8695 21.8717C22.9626 21.6483 23.0105 21.4086 23.0105 21.1666C23.0105 20.9246 22.9626 20.685 22.8695 20.4615C22.7764 20.2381 22.6401 20.0354 22.4682 19.8649L14.5849 11.9999Z" fill="#E5E5E5"/>
</svg>
