<svg width="56" height="56" viewBox="0 0 56 56" fill="none" xmlns="http://www.w3.org/2000/svg">
<g clip-path="url(#clip0)">
<path fill-rule="evenodd" clip-rule="evenodd" d="M15.1361 14.2092H8.96588C8.37345 14.2092 7.85259 13.8522 7.63885 13.2998C7.42523 12.7473 7.57029 12.1327 8.0085 11.7341L20.245 0.603372C21.1295 -0.201124 22.4634 -0.201124 23.3478 0.603372L35.5845 11.7341C36.0227 12.1326 36.1678 12.7472 35.9541 13.2997C35.7405 13.8522 35.2197 14.2092 34.6272 14.2092H28.457V18.251C28.457 18.7143 28.0815 19.0898 27.6182 19.0898C27.1548 19.0898 26.7793 18.7143 26.7793 18.251V13.3704C26.7793 12.907 27.1548 12.5316 27.6182 12.5316H33.968L22.219 1.84428C21.978 1.62507 21.6147 1.62507 21.374 1.84428L9.62509 12.5316H15.9749C16.4382 12.5316 16.8138 12.907 16.8138 13.3704V17.9517C16.8138 18.415 16.4382 18.7905 15.9749 18.7905C15.5117 18.7905 15.1361 18.415 15.1361 17.9517V14.2092ZM49.3973 22.1662L44.3891 16.4282C44.1124 16.1113 43.7126 15.9295 43.2919 15.9295C42.8712 15.9295 42.4713 16.1113 42.1946 16.4282L37.1863 22.1662C36.8061 22.6019 36.7183 23.1998 36.9577 23.7264C37.1971 24.2531 37.7052 24.5802 38.2835 24.5802H39.8808V30.2348C39.8808 30.6981 40.2562 31.0736 40.7196 31.0736C41.183 31.0736 41.5584 30.6981 41.5584 30.2348V24.3589C41.5584 23.5559 40.9052 22.9026 40.1021 22.9026H38.7703L43.2917 17.7225L47.8131 22.9026H46.4814C45.6783 22.9026 45.0251 23.5559 45.0251 24.3589V30.2348C45.0251 30.6981 45.4005 31.0736 45.8639 31.0736C46.3273 31.0736 46.7027 30.6981 46.7027 30.2348V24.5802H48.3C48.8784 24.5802 49.3865 24.2531 49.6258 23.7264C49.8652 23.1999 49.7777 22.6019 49.3973 22.1662ZM42.5522 35.9682C42.5522 33.9938 40.946 32.3875 38.9715 32.3875H38.0168C37.5534 32.3875 37.1779 32.763 37.1779 33.2263C37.1779 33.6897 37.5534 34.0652 38.0168 34.0652H38.9715C40.0208 34.0652 40.8745 34.9189 40.8745 35.9682C40.8745 37.0176 40.0208 37.8714 38.9715 37.8714C38.5081 37.8714 38.1326 38.2468 38.1326 38.7102C38.1326 39.1736 38.5081 39.549 38.9715 39.549C40.0208 39.549 40.8745 40.4026 40.8745 41.4519C40.8745 42.5014 40.0208 43.3551 38.9715 43.3551C38.5081 43.3551 38.1326 43.7305 38.1326 44.1939C38.1326 44.6573 38.5081 45.0327 38.9715 45.0327C40.0208 45.0327 40.8745 45.8863 40.8745 46.9357C40.8745 47.9851 40.0208 48.8388 38.9715 48.8388C38.5081 48.8388 38.1326 49.2143 38.1326 49.6776C38.1326 50.141 38.5081 50.5165 38.9715 50.5165C40.0208 50.5165 40.8745 51.3702 40.8745 52.4195C40.8745 53.4688 40.0208 54.3225 38.9715 54.3225H25.9463C23.5981 54.3225 21.3107 53.6546 19.3307 52.3905L19.2148 52.3167C19.0801 52.2308 18.9237 52.1853 18.7641 52.1853H16.3606C16.371 52.0693 16.3772 51.9521 16.3772 51.8334V49.0695C16.3772 48.6062 16.0017 48.2307 15.5384 48.2307C15.0752 48.2307 14.6996 48.6062 14.6996 49.0695V51.8334C14.6996 53.0557 13.7052 54.05 12.4829 54.05H7.07907C6.61581 54.05 6.24023 54.4254 6.24023 54.8888C6.24023 55.3522 6.61581 55.7276 7.07907 55.7276H12.4828C13.887 55.7276 15.1198 54.9804 15.805 53.863H18.5201C20.7485 55.2616 23.3137 56.0002 25.9462 56.0002H38.9714C40.9458 56.0002 42.5521 54.394 42.5521 52.4195C42.5521 51.3203 42.0541 50.335 41.2719 49.6776C42.0541 49.0202 42.5521 48.035 42.5521 46.9357C42.5521 45.8365 42.0541 44.8512 41.272 44.1939C42.0541 43.5365 42.5521 42.5513 42.5521 41.4519C42.5521 40.3527 42.0541 39.3675 41.272 38.7102C42.0542 38.0528 42.5522 37.0675 42.5522 35.9682ZM15.975 20.6877C15.5117 20.6877 15.1361 21.0632 15.1361 21.5265V27.3021C15.1361 27.7654 15.5117 28.1409 15.975 28.1409C16.4382 28.1409 16.8138 27.7654 16.8138 27.3021V21.5265C16.8138 21.0633 16.4382 20.6877 15.975 20.6877ZM12.4828 33.3286H7.07907C6.61581 33.3286 6.24023 32.9532 6.24023 32.4899C6.24023 32.0265 6.61581 31.651 7.07907 31.651H12.4827C13.8937 31.651 15.132 32.4054 15.8151 33.5321H18.2444L25.0278 27.702C25.746 27.0848 26.262 26.277 26.5203 25.3661L27.3165 22.5571C27.6286 21.4565 28.6454 20.6878 29.7894 20.6878C30.8366 20.6878 31.7699 21.3138 32.1673 22.2825L32.2513 22.4869C32.8984 24.0644 33.2266 25.7288 33.2266 27.4336C33.2266 28.5314 33.0875 29.6271 32.8131 30.6903L32.3751 32.3876H34.4418C34.9051 32.3876 35.2806 32.7631 35.2806 33.2265C35.2806 33.6898 34.9051 34.0653 34.4418 34.0653H31.8662C31.4664 34.0653 31.0965 33.8841 30.8517 33.5679C30.6069 33.2518 30.5236 32.8483 30.6236 32.4611L31.1889 30.2711C31.4279 29.3448 31.5491 28.3901 31.5491 27.4336C31.5491 25.9482 31.2633 24.4981 30.6995 23.1238L30.6156 22.9195C30.4773 22.5828 30.1532 22.3655 29.7896 22.3655C29.3923 22.3655 29.0391 22.6325 28.9308 23.0148L28.1345 25.8236C27.7863 27.0522 27.0901 28.1419 26.1216 28.9743L19.1022 35.007C18.95 35.1378 18.7561 35.2097 18.5554 35.2097H16.3617C16.3712 35.3203 16.3771 45.4945 16.3771 45.4945C16.3771 45.9578 16.0016 46.3333 15.5383 46.3333C15.075 46.3333 14.6995 45.9578 14.6995 45.4945V35.5451C14.6995 34.323 13.7051 33.3286 12.4828 33.3286Z" fill="url(#paint0_linear)"/>
</g>
<defs>
<linearGradient id="paint0_linear" x1="6.24023" y1="28.0001" x2="49.759" y2="28.0001" gradientUnits="userSpaceOnUse">
<stop stop-color="#209CFF"/>
<stop offset="1" stop-color="#68E0CF"/>
</linearGradient>
<clipPath id="clip0">
<rect width="56" height="56" fill="white"/>
</clipPath>
</defs>
</svg>
