<svg width="46" height="46" viewBox="0 0 46 46" fill="none" xmlns="http://www.w3.org/2000/svg">
<path d="M34.4069 29.1094C34.4069 30.1018 33.6024 30.9062 32.61 30.9062H30.6334C28.2493 30.8114 28.2511 27.4066 30.6334 27.3125H32.61C33.6024 27.3125 34.4069 28.117 34.4069 29.1094ZM38.0006 29.8281V15.0938H8V38.8125C8 40.7941 9.61215 42.4062 11.5937 42.4062H34.4069C36.3885 42.4062 38.0006 40.7941 38.0006 38.8125C38.0006 37.8201 38.8051 37.0156 39.7975 37.0156C40.7899 37.0156 41.5944 37.8201 41.5944 38.8125C41.5944 42.7757 38.3701 46 34.4069 46H11.5937C7.63056 46 4.40625 42.7757 4.40625 38.8125V7.1875C4.40625 3.22431 7.63056 0 11.5937 0H34.4069C38.3701 0 41.5944 3.22431 41.5944 7.1875V29.8281C41.4995 32.2122 38.0947 32.2104 38.0006 29.8281ZM38.0006 11.5V7.1875C38.0006 5.20591 36.3885 3.59375 34.4069 3.59375H11.5937C9.61215 3.59375 8 5.20591 8 7.1875V11.5H38.0006ZM32.61 20.4844H30.6334C28.2493 20.5793 28.2511 23.9841 30.6334 24.0781H32.61C34.9941 23.9832 34.9923 20.5784 32.61 20.4844ZM32.61 34.1406H30.6334C28.2493 34.2355 28.2511 37.6403 30.6334 37.7344H32.61C34.9941 37.6395 34.9923 34.2347 32.61 34.1406ZM23.985 27.3125H22.0084C19.6243 27.4074 19.6261 30.8122 22.0084 30.9062H23.985C26.3691 30.8114 26.3673 27.4066 23.985 27.3125ZM23.985 20.4844H22.0084C19.6243 20.5793 19.6261 23.9841 22.0084 24.0781H23.985C26.3691 23.9832 26.3673 20.5784 23.985 20.4844ZM13.3906 24.0781H15.3672C17.7513 23.9832 17.7495 20.5784 15.3672 20.4844H13.3906C11.0065 20.5793 11.0083 23.9841 13.3906 24.0781ZM13.4733 37.7344H23.8053C26.1894 37.6395 26.1876 34.2347 23.8053 34.1406H13.4733C11.0892 34.2355 11.091 37.6403 13.4733 37.7344ZM13.3906 30.9062H15.3672C17.7513 30.8114 17.7495 27.4066 15.3672 27.3125H13.3906C11.0065 27.4074 11.0083 30.8122 13.3906 30.9062Z" fill="white"/>
</svg>
