<svg width="56" height="56" viewBox="0 0 56 56" fill="none" xmlns="http://www.w3.org/2000/svg">
<path d="M52.4232 44.999H52.0769V18.7575C52.0769 17.7086 51.2236 16.8553 50.1746 16.8553H48.9604C50.4031 15.2749 51.7628 13.6187 53.0282 11.8924L53.5697 12.2936C53.9954 12.609 54.5556 12.6612 55.0321 12.4297C55.5085 12.1984 55.814 11.7256 55.8294 11.1963L55.9993 5.33261C56.0127 4.86972 55.7985 4.42871 55.4263 4.15309C55.0542 3.87748 54.57 3.80129 54.1312 3.94895L48.5716 5.81981C48.0698 5.9886 47.7066 6.41844 47.6239 6.94154C47.5413 7.46464 47.7543 7.98555 48.18 8.30101L49.0699 8.96017C48.2665 10.0572 47.415 11.1342 46.532 12.1701C46.2378 12.5151 46.2791 13.0333 46.6241 13.3274C46.969 13.6214 47.4872 13.5803 47.7814 13.2352C48.8702 11.9579 49.9125 10.6198 50.8792 9.25811C51.1379 8.89362 51.0575 8.38923 50.6985 8.12325L49.5039 7.23828L54.3487 5.60801L54.2005 10.7176L53.3378 10.0785C53.1607 9.94726 52.9381 9.89231 52.7204 9.92734C52.5027 9.96182 52.308 10.0826 52.1801 10.2622C46.7948 17.8305 39.5841 24.0828 31.3275 28.3433C23.0646 32.6071 13.7828 34.8607 4.48538 34.8607H2.46281C2.01009 34.8607 1.64187 34.4925 1.64187 34.0398C1.64187 33.587 2.01009 33.2188 2.46281 33.2188H4.4856C12.1932 33.2188 19.6956 31.6873 26.7843 28.6666C33.8193 25.6688 40.0792 21.3633 45.3901 15.8698C45.7052 15.5437 45.6965 15.0241 45.3705 14.709C45.0444 14.3939 44.5247 14.4028 44.2097 14.7287C42.1519 16.8574 39.9468 18.8017 37.6062 20.5556C37.6023 20.5556 37.5985 20.5551 37.5946 20.5551H31.0451C29.9961 20.5551 29.1428 21.4084 29.1428 22.4572V25.7704C28.4103 26.135 27.6683 26.4842 26.9169 26.8178V25.6525C26.9169 24.6036 26.0635 23.7503 25.0147 23.7503H18.4652C17.4162 23.7503 16.563 24.6036 16.563 25.6525V30.2461C15.8241 30.4117 15.0821 30.5623 14.3369 30.6971V28.2568C14.3369 27.2078 13.4836 26.3545 12.4348 26.3545H5.88502C4.83608 26.3545 3.98285 27.2078 3.98285 28.2568V31.577H2.46281C1.10476 31.577 0 32.6818 0 34.0398C0 35.3977 1.10476 36.5026 2.46281 36.5026H3.98274V44.999H3.54097C1.6295 44.999 0.0744316 46.5541 0.0744316 48.4655V50.7151C0.0744316 51.4924 0.706881 52.1249 1.48425 52.1249H54.48C55.2573 52.1249 55.8898 51.4924 55.8898 50.7151V48.4655C55.8898 46.5541 54.3346 44.999 52.4232 44.999ZM30.7847 22.4571C30.7847 22.3135 30.9015 22.1968 31.0451 22.1968H35.2939C33.8379 23.1743 32.3337 24.0816 30.7847 24.9183V22.4571ZM18.2046 25.6525C18.2046 25.5089 18.3214 25.3921 18.4649 25.3921H25.0145C25.1581 25.3921 25.2748 25.5089 25.2748 25.6525V27.5155C22.9595 28.4569 20.6004 29.2369 18.2045 29.8522V25.6525H18.2046ZM5.88502 27.9964H12.4346C12.5782 27.9964 12.6948 28.1132 12.6948 28.2568V30.9686C10.3638 31.3174 8.00479 31.5162 5.62462 31.5644V28.2567C5.62462 28.1132 5.74141 27.9964 5.88502 27.9964ZM47.4063 18.4971H50.1746C50.3182 18.4971 50.435 18.6139 50.435 18.7575V44.999H43.3647V22.2457C44.7675 21.0578 46.1172 19.8074 47.4063 18.4971ZM32.0805 29.8024C34.068 28.7769 35.9956 27.6381 37.8549 26.3969V35.1393C37.8549 35.5928 38.2225 35.9602 38.6758 35.9602C39.1292 35.9602 39.4968 35.5928 39.4968 35.1393V25.2626C40.2517 24.7218 40.9935 24.1628 41.7227 23.5878V44.999H39.4969V38.64C39.4969 38.1865 39.1293 37.819 38.6759 37.819C38.2226 37.819 37.855 38.1865 37.855 38.64V44.999H30.7847V30.4494C31.219 30.2385 31.6515 30.0239 32.0805 29.8024ZM18.2046 34.9083C20.6014 34.3468 22.964 33.6398 25.2749 32.7911V44.999H18.2046V34.9083ZM26.9169 32.1606C27.6651 31.8607 28.4072 31.5458 29.1428 31.2159V44.999H26.9169V32.1606ZM5.62462 36.4903C7.99012 36.4448 10.352 36.2583 12.6948 35.9338V38.6549C12.6948 39.1083 13.0624 39.4758 13.5158 39.4758C13.9692 39.4758 14.3367 39.1083 14.3367 38.6549V35.6842C15.0814 35.5601 15.8233 35.4209 16.5628 35.2691V44.999H14.3367V42.1557C14.3367 41.7022 13.9692 41.3347 13.5158 41.3347C13.0624 41.3347 12.6948 41.7022 12.6948 42.1557V44.999H5.62462V36.4903ZM54.2479 50.483H1.7163V48.4655C1.7163 47.4594 2.53483 46.6409 3.54097 46.6409H52.4232C53.4294 46.6409 54.2479 47.4594 54.2479 48.4655V50.483Z" fill="url(#paint0_linear)"/>
<defs>
<linearGradient id="paint0_linear" x1="0" y1="27.9999" x2="55.9999" y2="27.9999" gradientUnits="userSpaceOnUse">
<stop stop-color="#209CFF"/>
<stop offset="1" stop-color="#68E0CF"/>
</linearGradient>
</defs>
</svg>
