<svg width="50" height="39" viewBox="0 0 50 39" xmlns="http://www.w3.org/2000/svg">
<path d="M48.2968 29.5268L45.3308 28.0737C45.3136 28.0653 45.3028 28.0482 45.3028 28.0295L45.303 26.5686C46.5206 25.747 47.3824 24.4481 47.5981 22.9237C48.1457 21.9963 48.4343 20.9487 48.4343 19.8835C48.4343 17.8972 47.4583 16.1303 45.952 15.0185C46.0402 14.7303 46.0858 14.4331 46.0858 14.1298C46.0858 12.2534 44.3526 10.7269 42.2222 10.7269C40.0918 10.7269 38.3585 12.2534 38.3585 14.1298C38.3585 14.4334 38.4036 14.7308 38.4919 15.0188C37.5938 15.6818 36.8856 16.5783 36.4592 17.6148C36.2777 15.8664 36.0886 13.7995 35.9073 11.3918C35.668 8.21505 34.5022 5.5323 32.536 3.63375C30.5847 1.74955 27.9788 0.753662 25 0.753662C22.0211 0.753662 19.4152 1.74955 17.4641 3.63365C15.4979 5.5323 14.3321 8.21505 14.0928 11.3917C14.0293 12.2351 13.9648 13.0346 13.9001 13.7955H6.99501C4.4329 13.7955 2.34843 15.8383 2.34843 18.3491V18.3919C2.34843 18.9767 2.48945 19.5623 2.75634 20.0853L3.13124 20.8202V21.9921C3.13124 23.8493 4.06513 25.5157 5.47968 26.5186V27.5553C5.47968 27.6882 5.38856 27.8065 5.25819 27.8431L2.23447 28.6897C0.918846 29.058 0 30.2518 0 31.5927V37.5283C0 37.9247 0.327929 38.2461 0.732421 38.2461C1.13691 38.2461 1.46484 37.9247 1.46484 37.5283V31.5927C1.46484 30.8893 1.94687 30.2631 2.63691 30.0699L5.66073 29.2232C5.76981 29.1927 5.87343 29.1512 5.97206 29.102L7.82821 30.921V37.5283C7.82821 37.9247 8.15614 38.2461 8.56063 38.2461C8.96512 38.2461 9.29305 37.9247 9.29305 37.5283V30.921L11.1622 29.0893C11.412 29.2094 11.6609 29.2793 11.8433 29.3304L12.5858 29.5382C11.5797 30.2394 10.9595 31.3829 10.9595 32.6229V37.5281C10.9595 37.9245 11.2875 38.2459 11.692 38.2459C12.0965 38.2459 12.4244 37.9245 12.4244 37.5281V32.6229C12.4244 31.6925 12.9856 30.8484 13.8542 30.4725L18.0417 28.66C19.3539 31.2352 22.0353 32.8758 25.0001 32.8758C27.9758 32.8758 30.6483 31.2389 31.9597 28.6605L36.1459 30.4725C37.0145 30.8484 37.5757 31.6925 37.5757 32.6229V37.5281C37.5757 37.9245 37.9036 38.2459 38.3081 38.2459C38.7126 38.2459 39.0406 37.9245 39.0406 37.5281V32.6229C39.0406 31.7048 38.7 30.8398 38.1156 30.1674L39.249 29.612L40.0999 30.4044C40.695 30.9588 41.4585 31.2357 42.2223 31.2357C42.9858 31.2357 43.7496 30.9586 44.3445 30.4044L45.1953 29.6121L47.6418 30.8108C48.1929 31.0808 48.5352 31.6236 48.5352 32.2274V37.5282C48.5352 37.9246 48.8631 38.246 49.2676 38.246C49.6721 38.246 50 37.9246 50 37.5282V32.2274C49.9999 31.0765 49.3473 30.0416 48.2968 29.5268ZM42.2221 12.1623C43.5447 12.1623 44.6209 13.0449 44.6209 14.1297C44.6209 14.1751 44.6172 14.2202 44.6135 14.2652C43.877 13.963 43.0692 13.7955 42.2221 13.7955C41.3751 13.7955 40.5674 13.963 39.8311 14.2651C39.8273 14.2201 39.8233 14.1751 39.8233 14.1297C39.8233 13.0449 40.8994 12.1623 42.2221 12.1623ZM8.56073 29.6088L6.89178 27.9732C6.92626 27.8385 6.94471 27.6983 6.94471 27.5552V27.2524C7.40545 27.4006 7.89139 27.4886 8.39422 27.5033C8.45057 27.505 8.50662 27.5058 8.56278 27.5058C9.11824 27.5058 9.66053 27.4236 10.1765 27.2667V27.5549C10.1765 27.7106 10.1929 27.8519 10.2219 27.9809L8.56073 29.6088ZM8.43817 26.0682C6.31962 26.0061 4.59609 24.1774 4.59609 21.9921V20.6507C4.59609 20.5393 4.56962 20.4293 4.51874 20.3297L4.0665 19.4433C3.90087 19.1185 3.81327 18.755 3.81327 18.3919V18.3491C3.81327 16.6298 5.24061 15.231 6.99501 15.231H13.3081V18.2107C13.3081 18.6922 13.192 19.1745 12.9721 19.6051L12.6025 20.3296C12.5516 20.4293 12.5252 20.5392 12.5252 20.6506V22.1849C12.5252 23.2447 12.0976 24.235 11.3213 24.9733C10.5453 25.7112 9.52078 26.1004 8.43817 26.0682ZM14.5595 28.5979L12.2458 27.95C11.6413 27.7808 11.6414 27.7148 11.6414 27.5551L11.6416 26.5662C11.8876 26.3992 12.1221 26.2123 12.3416 26.0035C12.4892 25.8631 12.6267 25.7154 12.7556 25.5623C12.8733 25.7962 13.0537 26.0005 13.2868 26.1483C13.8739 26.5209 14.9818 27.1398 16.6111 27.7098L14.5595 28.5979ZM25 31.4403C22.6169 31.4403 20.4587 30.1349 19.3825 28.0797L20.4486 27.6182C21.2806 27.2581 21.8182 26.4495 21.8182 25.5581V23.8359C22.8023 24.2234 23.8761 24.4371 25 24.4371C26.1238 24.4371 27.1975 24.2234 28.1817 23.8359V25.5581C28.1817 26.4495 28.7193 27.2582 29.5513 27.6182L30.6172 28.0796C29.5417 30.1371 27.3918 31.4403 25 31.4403ZM31.3509 26.8278L30.1431 26.305C29.8414 26.1745 29.6465 25.8812 29.6465 25.558V23.0903C32.0002 21.5938 33.5607 18.996 33.5607 16.0476V14.7017C33.5607 13.827 33.1812 13.0018 32.5195 12.4379C31.0479 11.1837 27.7167 8.99483 21.9416 8.42885C21.5401 8.38942 21.1801 8.6771 21.1399 9.07168C21.0997 9.46617 21.3933 9.81788 21.7959 9.85731C27.1674 10.3837 30.2179 12.3788 31.5582 13.5212C31.8999 13.8123 32.0958 14.2427 32.0958 14.7017V16.0476C32.0958 19.8819 28.9126 23.0014 25.0001 23.0014C21.0875 23.0014 17.9043 19.8819 17.9043 16.0476V15.4471C17.9043 15.1713 18.0603 14.9187 18.3216 14.7712C19.2374 14.2545 20.445 13.2973 20.998 11.6715C21.1259 11.2955 20.9185 10.889 20.5347 10.7636C20.1511 10.6382 19.7362 10.8415 19.6083 11.2176C19.2008 12.4154 18.2862 13.1347 17.5907 13.5271C16.8805 13.9278 16.4393 14.6636 16.4393 15.4472V16.0477C16.4393 18.9962 17.9997 21.5939 20.3535 23.0904V25.5581C20.3535 25.8813 20.1586 26.1745 19.8569 26.3051L18.649 26.8279C16.29 26.2094 14.7785 25.3847 14.0829 24.9434C14.069 24.9346 14.0612 24.9246 14.0651 24.9019C14.3206 23.422 14.977 19.1531 15.5538 11.4975C15.7665 8.67279 16.7826 6.30702 18.4922 4.65614C20.1636 3.0423 22.4139 2.18921 25 2.18921C27.586 2.18921 29.8363 3.0423 31.5077 4.65614C33.2173 6.30702 34.2334 8.6727 34.4462 11.4974C35.0229 19.1527 35.6793 23.4218 35.9349 24.9018C35.9388 24.9246 35.931 24.9346 35.917 24.9434C35.2204 25.3853 33.7089 26.2095 31.3509 26.8278ZM39.1412 28.0294C39.1412 28.0482 39.1306 28.0652 39.1134 28.0736L36.8187 29.198C36.7914 29.1855 36.7653 29.1714 36.7377 29.1594L33.389 27.71C35.0175 27.1402 36.1252 26.5216 36.7131 26.1485C37.2182 25.828 37.4797 25.2448 37.3792 24.6625C37.3738 24.6306 37.3678 24.5957 37.3619 24.5612C37.7739 25.373 38.3898 26.0615 39.1412 26.5686V28.0294ZM43.3352 29.364C42.7111 29.9455 41.7331 29.9454 41.1088 29.364L40.428 28.73C40.5429 28.5191 40.606 28.2798 40.606 28.0294V27.2656C41.1175 27.4211 41.6601 27.5057 42.222 27.5057C42.7838 27.5057 43.3265 27.4211 43.8379 27.2656L43.8378 28.0292C43.8378 28.2798 43.9009 28.5191 44.0158 28.7301L43.3352 29.364ZM42.2221 26.0701C40.1942 26.0701 38.5004 24.5819 38.2823 22.6084C38.2706 22.5026 38.2352 22.4008 38.1783 22.3101C37.718 21.5754 37.4747 20.7362 37.4747 19.8833C37.4747 17.3181 39.6043 15.231 42.2221 15.231C44.8398 15.231 46.9694 17.3181 46.9694 19.8834C46.9694 20.3779 46.8871 20.8677 46.7286 21.3353C44.6489 19.2648 40.9905 18.4533 40.8141 18.4153C40.5975 18.3685 40.3707 18.4205 40.1977 18.5567C40.0247 18.693 39.924 18.8987 39.924 19.1162C39.924 19.1209 39.8906 19.6188 39.3558 20.143C39.0697 20.4233 39.0697 20.8778 39.3558 21.158C39.6418 21.4383 40.1056 21.4383 40.3915 21.158C40.8034 20.7543 41.0454 20.3446 41.1874 19.9987C42.4198 20.3575 44.9777 21.2636 46.1257 22.8541C45.7999 24.7039 44.1648 26.0701 42.2221 26.0701Z"/>
<defs>
<linearGradient id="paint0_linear" x1="0" y1="0.753662" x2="35.9907" y2="48.7509" gradientUnits="userSpaceOnUse">
<stop offset="0.34375" stop-color="#0086B5"/>
<stop offset="1" stop-color="#46AEF7"/>
</linearGradient>
</defs>
</svg>
