<svg width="37" height="49" viewBox="0 0 37 49" xmlns="http://www.w3.org/2000/svg">
<path d="M36.8315 36.4951L32.6734 24.7129C32.2422 23.4432 31.4366 22.3339 30.3627 21.531C29.3908 20.8158 28.2755 20.3195 27.0935 20.0763L27.1938 19.6743C28.0394 16.312 28.1797 12.8111 27.6057 9.39197L27.572 9.19444C27.1122 6.46034 25.7422 3.96178 23.6842 2.10399L23.6214 2.04733C22.2173 0.779185 20.3925 0.0771484 18.5005 0.0771484C16.6085 0.0771484 14.7838 0.779185 13.3796 2.04733L13.3168 2.10399C11.258 3.96152 9.88759 6.46055 9.42823 9.1952L8.89229 12.4208C8.66327 13.7934 8.54778 15.1827 8.547 16.5743V20.4828C7.86766 20.7477 7.22576 21.1001 6.63753 21.531C5.56335 22.3339 4.75772 23.4436 4.32687 24.7137L0.168763 36.4951C0.11203 36.6556 0.110413 36.8305 0.164169 36.992L3.29481 46.3831C3.54827 47.1456 4.03555 47.8089 4.68744 48.2786C5.33932 48.7484 6.12265 49.0008 6.92617 49H13.1407C13.3438 49 13.5385 48.9194 13.6821 48.7758C13.8257 48.6322 13.9064 48.4375 13.9064 48.2344V47.563C13.9064 47.2702 13.873 46.9784 13.8068 46.6932C15.3252 47.2092 16.9179 47.473 18.5216 47.4742C19.0544 47.4744 19.5868 47.4448 20.1164 47.3853L19.9464 45.861C17.1112 46.1715 14.2521 45.5484 11.8032 44.0863H11.7971L12.6148 42.0413C12.8028 41.5748 12.8964 41.0756 12.8902 40.5727C12.884 40.0697 12.7782 39.573 12.5788 39.1112L11.5995 36.8266C12.504 37.084 13.456 37.1277 14.3802 36.9542C15.3045 36.7807 16.1757 36.3947 16.9252 35.8267L18.5001 34.6446L20.0758 35.8252C20.8249 36.3936 21.696 36.7799 22.6202 36.9537C23.5443 37.1275 24.4963 37.084 25.4007 36.8266L24.4207 39.112C24.2212 39.5738 24.1154 40.0705 24.1094 40.5735C24.1033 41.0765 24.1972 41.5756 24.3855 42.042L25.2032 44.087H25.1963C24.0172 44.7956 22.7331 45.3124 21.3919 45.6183L21.7334 47.1112C22.2265 46.9989 22.7133 46.8606 23.1919 46.697C23.1266 46.9811 23.0937 47.2715 23.0939 47.563V48.2344C23.0939 48.4375 23.1745 48.6322 23.3181 48.7758C23.4617 48.9194 23.6564 49 23.8595 49H30.0741C30.8776 49.0008 31.6609 48.7484 32.3128 48.2786C32.9647 47.8089 33.452 47.1456 33.7054 46.3831L36.8353 36.992C36.8893 36.8305 36.888 36.6557 36.8315 36.4951ZM20.0704 27.9729L18.9488 29.0938H18.0515L16.9306 27.9729C16.5724 27.614 16.1651 27.3078 15.7209 27.0634L16.0333 22.9451L16.5891 23.7796C16.7989 24.0942 17.0831 24.3521 17.4164 24.5305C17.7498 24.7089 18.122 24.8022 18.5001 24.8022C18.8782 24.8022 19.2505 24.7089 19.5838 24.5305C19.9172 24.3521 20.2014 24.0942 20.4111 23.7796L21.9722 21.4375H23.8595V26.4026C23.1554 26.4006 22.458 26.5384 21.8076 26.808C21.1571 27.0775 20.5667 27.4735 20.0704 27.9729ZM18.0752 18.1637C18.201 18.2477 18.3489 18.2925 18.5001 18.2925C18.6514 18.2925 18.7992 18.2477 18.925 18.1637L20.2266 17.297L20.7625 20.4989L19.1417 22.9298C19.0688 23.0305 18.9731 23.1125 18.8624 23.169C18.7516 23.2256 18.6291 23.2551 18.5047 23.2551C18.3804 23.2551 18.2578 23.2256 18.1471 23.169C18.0364 23.1125 17.9406 23.0305 17.8677 22.9298L16.2469 20.4989L16.7828 17.297L18.0752 18.1637ZM10.0782 16.5743C10.0784 15.2661 10.1864 13.9601 10.4013 12.6696L10.9373 9.44403C11.3398 7.05272 12.5382 4.86745 14.3382 3.24247L14.401 3.18658C15.5243 2.17269 16.9838 1.61147 18.4971 1.61147C20.0103 1.61147 21.4698 2.17269 22.5932 3.18658L22.6552 3.24247C24.4566 4.86875 25.6556 7.05603 26.0576 9.44939L26.0913 9.64845C26.6311 12.8593 26.5008 16.1472 25.7085 19.3053L25.5554 19.9071H22.2111L21.6208 16.3668L23.5188 15.102C23.6875 14.9892 23.8045 14.8141 23.8442 14.6151L24.6098 10.7869L23.1092 10.4891L22.4048 14.0033L18.5001 16.6065L14.6276 14.0248L13.9018 7.48863L12.3797 7.6563L13.1453 14.5469C13.1579 14.6579 13.1945 14.7649 13.2525 14.8603C13.3106 14.9558 13.3887 15.0375 13.4815 15.0997L15.3794 16.3645L14.6827 20.5441C14.6787 20.5664 14.6759 20.5888 14.6743 20.6114L13.9707 29.9008C13.9626 30.2243 13.851 30.5368 13.6521 30.7922C13.4532 31.0476 13.1776 31.2324 12.8659 31.3195L10.6808 25.856C10.2823 24.8622 10.0778 23.8014 10.0782 22.7307V16.5743ZM6.92617 47.4688C6.44413 47.4688 5.97431 47.3172 5.58324 47.0353C5.19217 46.7535 4.89968 46.3558 4.7472 45.8985L1.70001 36.7569L5.77084 25.2228C6.0993 24.2439 6.71674 23.3876 7.54173 22.7667C7.85874 22.5342 8.19505 22.3293 8.547 22.1542V22.7292C8.54604 23.9955 8.78774 25.2502 9.25903 26.4256L9.73678 27.6207C9.60305 27.731 9.47545 27.8479 9.35397 27.9714L7.24314 30.0822C7.17682 30.1484 7.12335 30.2263 7.08542 30.3119L4.27864 36.6283C4.20333 36.7971 4.19163 36.9875 4.24572 37.1642L6.28687 43.8635C6.32547 43.9898 6.3961 44.104 6.49189 44.195C6.58768 44.2859 6.70537 44.3505 6.83353 44.3826L10.6395 45.3342C11.1204 45.455 11.5494 45.7282 11.8622 46.1129C12.1751 46.4977 12.355 46.9733 12.3751 47.4688H6.92617ZM9.47494 35.7547L11.1716 39.7145C11.2917 39.992 11.3555 40.2905 11.3593 40.5928C11.3631 40.8951 11.3068 41.1951 11.1938 41.4755L10.3118 43.679L7.62212 43.0067L5.79075 36.9912L7.52106 33.098C7.91369 34.1475 8.59013 35.0672 9.47494 35.7547ZM20.9938 34.6017L19.2657 33.3047V32.1563H17.7345V33.3047L16.0065 34.6009C15.3716 35.0773 14.6242 35.3809 13.837 35.4824C13.0498 35.5839 12.2498 35.4797 11.5149 35.18C10.78 34.8803 10.1353 34.3953 9.64357 33.7722C9.15188 33.1492 8.83 32.4094 8.70931 31.625L8.59676 30.8923L10.3455 29.1436L11.6639 32.4411C11.7349 32.586 11.8454 32.708 11.9825 32.793C12.1197 32.8781 12.278 32.9227 12.4394 32.9219C13.2325 32.9285 13.9967 32.6248 14.569 32.0757C15.1412 31.5265 15.476 30.7754 15.5019 29.9827L15.59 28.8174C15.6796 28.894 15.7668 28.9705 15.8503 29.0555L17.1955 30.4007C17.3385 30.5438 17.5323 30.6244 17.7345 30.625H19.2657C19.4688 30.625 19.6635 30.5443 19.807 30.4007L21.153 29.0555C21.8709 28.3379 22.8444 27.9347 23.8595 27.9347C24.8746 27.9347 25.8481 28.3379 26.566 29.0555L28.4035 30.893L28.2902 31.6257C28.1694 32.41 27.8475 33.1497 27.3559 33.7726C26.8642 34.3955 26.2196 34.8805 25.4848 35.1802C24.75 35.4799 23.9501 35.5841 23.1631 35.4827C22.376 35.3814 21.6286 35.0778 20.9938 34.6017ZM29.48 33.098L31.2095 36.9912L29.3766 43.0029L26.687 43.6759L25.8057 41.4717C25.6924 41.1914 25.6359 40.8914 25.6394 40.5891C25.643 40.2868 25.7065 39.9883 25.8264 39.7107L27.5253 35.7547C28.4108 35.0674 29.0876 34.1473 29.48 33.0973V33.098ZM32.2538 45.8993C32.1012 46.3565 31.8085 46.7542 31.4173 47.0359C31.0261 47.3176 30.5562 47.469 30.0741 47.4688H24.6251C24.6448 46.9729 24.8249 46.4968 25.1383 46.1121C25.4517 45.7273 25.8815 45.4546 26.3631 45.335L30.1675 44.3833C30.2958 44.3514 30.4136 44.2869 30.5096 44.1959C30.6055 44.1049 30.6762 43.9907 30.7149 43.8642L32.7568 37.165C32.8109 36.9883 32.7992 36.7979 32.7239 36.6291L29.9164 30.3127C29.8779 30.2271 29.8242 30.1493 29.7579 30.083L27.6463 27.9722C27.0189 27.3413 26.2435 26.8777 25.3907 26.6239V21.4375C26.8539 21.4342 28.2796 21.9001 29.4585 22.7667C30.2836 23.3878 30.9011 24.2444 31.2294 25.2236L35.2995 36.7569L32.2538 45.8993Z"/>
<defs>
<linearGradient id="paint0_linear" x1="0.125" y1="0.0771484" x2="47.1116" y2="35.3725" gradientUnits="userSpaceOnUse">
<stop offset="0.34375" stop-color="#0086B5"/>
<stop offset="1" stop-color="#46AEF7"/>
</linearGradient>
</defs>
</svg>
