<svg width="50" height="49" viewBox="0 0 50 49" xmlns="http://www.w3.org/2000/svg">
<path d="M45.1164 9.15932C44.8685 8.84608 44.4084 8.78904 44.0888 9.03203C43.7692 9.27502 43.7111 9.72588 43.9589 10.0391C46.2092 12.8823 47.504 16.3651 47.6541 19.9353L37.8192 17.3527C38.2298 14.7986 38.3917 12.2042 38.2989 9.63056C38.2453 8.14085 38.1047 6.64329 37.8819 5.16201C39.2637 5.83355 40.5575 6.68454 41.7153 7.69057C42.018 7.95356 42.4808 7.92619 42.7492 7.6297C43.0175 7.33302 42.9897 6.87939 42.687 6.6165C40.7737 4.95414 38.5348 3.7013 36.1201 2.90266L36.8278 0.959413C36.9638 0.586076 36.7651 0.175416 36.3842 0.0421974C36.0033 -0.0910208 35.5842 0.103543 35.4483 0.476879L34.7114 2.50032C26.4206 0.484248 17.7322 4.17856 13.5339 11.5233C13.4774 11.6262 13.4245 11.7576 13.4358 11.9336L13.6954 15.6753C13.745 16.3897 14.2524 16.9941 14.9582 17.1795L22.1909 19.0787C22.8855 19.2613 23.6428 18.9931 24.0519 18.3948L24.9921 17.0231L25.1065 18.6718C25.1561 19.3861 25.6635 19.9906 26.3692 20.1759L29.2779 20.9398L25.182 35.9198L18.3309 35.9004H18.3287C17.9252 35.9004 17.5976 36.2204 17.5963 36.6161C17.5952 37.0125 17.9221 37.3349 18.3267 37.3359L32.6703 37.3766H32.6774C33.3946 37.3766 34.0934 37.089 34.5956 36.5869L39.7578 31.4248C40.823 30.3595 42.444 29.9757 43.8878 30.4476L45.4577 30.9604L35.669 40.6197C35.2595 41.0238 34.6913 41.2556 34.11 41.2556H5.75809C5.68397 40.1648 5.99227 39.1031 6.79334 38.3207C7.45808 37.6715 8.34001 37.3143 9.2778 37.3143H9.28991L14.9081 37.3344H14.9108C15.314 37.3344 15.6416 37.0148 15.6432 36.6192C15.6447 36.2228 15.3179 35.9003 14.9134 35.8989L9.29499 35.8788C7.9574 35.8738 6.70467 36.3804 5.75926 37.304C4.56835 38.4673 4.29325 40.063 4.29325 41.6863C4.29325 42.2404 4.75321 42.6912 5.31864 42.6912H7.08005L5.56492 45.9543C5.3199 46.4821 5.3116 47.0569 5.4951 47.5645H1.59863C1.19414 47.5645 0.866211 47.8858 0.866211 48.2823C0.866211 48.6788 1.19414 49.0001 1.59863 49.0001H46.6691C47.0736 49.0001 47.4015 48.6788 47.4015 48.2823C47.4015 47.8858 47.0736 47.5645 46.6691 47.5645H39.7931C39.9766 47.0569 39.9683 46.482 39.7233 45.9542L37.3996 40.9493L46.9963 31.4792C47.5275 30.9631 47.2962 30.0414 46.5929 29.8179L44.351 29.0856C42.3795 28.4417 40.166 28.9653 38.7115 30.4198L33.5493 35.5819C33.3211 35.8101 33.0034 35.9409 32.6775 35.9409H32.6743L26.6973 35.9239L30.6927 21.3111L33.6018 22.075C34.2963 22.2578 35.0538 21.9892 35.4629 21.3911L36.4031 20.0194L36.5174 21.668C36.5671 22.3824 37.0745 22.9868 37.7802 23.1722L45.0129 25.0714C45.7075 25.254 46.4649 24.9859 46.874 24.3875L49.0077 21.2743C49.0707 21.1745 49.1322 21.0471 49.1321 20.8711C49.1873 16.66 47.7616 12.5012 45.1164 9.15932ZM7.56462 47.5645C7.45974 47.5645 7.35779 47.5427 7.2615 47.4998C6.89392 47.3359 6.73093 46.9093 6.89832 46.5488L8.68952 42.6911H10.2999L8.232 47.1438C8.11335 47.3995 7.85144 47.5645 7.56462 47.5645ZM21.9987 47.5645H9.64596L11.9091 42.6912H23.3309L21.9987 47.5645ZM23.5152 47.5645L24.8474 42.6912H33.3793L35.6424 47.5645H23.5152ZM38.39 46.5488C38.5573 46.9094 38.3944 47.336 38.0253 47.5004C37.9305 47.5429 37.8295 47.5645 37.7247 47.5645C37.4378 47.5645 37.1753 47.3991 37.0563 47.1438L34.9437 42.5946C35.4228 42.4838 35.8776 42.2797 36.2757 41.9948L38.39 46.5488ZM22.8358 17.5942C22.7777 17.6791 22.6707 17.7183 22.5699 17.6919L15.3372 15.7927C15.2364 15.7663 15.1639 15.6798 15.1568 15.5778L14.9667 12.838L24.3982 15.3146L22.8358 17.5942ZM25.1175 14.0173L15.2903 11.4368C18.8375 5.9328 25.2183 2.88945 31.7072 3.45668C30.5683 4.67431 29.5225 5.97739 28.5903 7.3468C27.1747 9.42595 26.0087 11.6673 25.1175 14.0173ZM34.2468 20.5906C34.1886 20.6756 34.0818 20.7148 33.9809 20.6883L26.7482 18.7891C26.6475 18.7627 26.575 18.6763 26.5679 18.5743L26.3778 15.8345L35.8092 18.3111L34.2468 20.5906ZM36.396 16.9789L26.5391 14.3906C27.3845 12.1912 28.4818 10.0927 29.8089 8.14363C30.8872 6.55984 32.1244 5.06889 33.4867 3.70378C34.4384 3.88485 35.3791 4.14708 36.2878 4.48338C36.5877 6.19971 36.7726 7.946 36.8351 9.68128C36.9226 12.1128 36.7745 14.5638 36.396 16.9789ZM45.6578 23.5871C45.5996 23.672 45.4928 23.7113 45.3919 23.6848L38.1592 21.7856C38.0585 21.7592 37.9859 21.6727 37.9789 21.5707L37.7888 18.831L47.2202 21.3076L45.6578 23.5871Z"/>
<defs>
<linearGradient id="paint0_linear" x1="0.866211" y1="0.000244141" x2="49.8605" y2="48.2622" gradientUnits="userSpaceOnUse">
<stop offset="0.34375" stop-color="#0086B5"/>
<stop offset="1" stop-color="#46AEF7"/>
</linearGradient>
</defs>
</svg>
