<svg width="49" height="39" viewBox="0 0 49 39" xmlns="http://www.w3.org/2000/svg">
<path d="M48.2822 35.003C46.1361 35.003 45.0046 35.5493 44.0063 36.0314C43.0632 36.4868 42.1722 36.917 40.3545 36.917C38.5368 36.917 37.6459 36.4868 36.7028 36.0314C35.7044 35.5493 34.5729 35.003 32.4267 35.003C30.2807 35.003 29.1493 35.5493 28.1509 36.0314C27.2078 36.4868 26.3169 36.917 24.4993 36.917C22.6818 36.917 21.791 36.4868 20.848 36.0314C19.8497 35.5493 18.7183 35.003 16.5722 35.003C14.4262 35.003 13.2947 35.5493 12.2964 36.0314C11.3534 36.4868 10.4626 36.917 8.64496 36.917C6.82737 36.917 5.93656 36.4868 4.9935 36.0314C3.99522 35.5493 2.86382 35.003 0.717773 35.003C0.321275 35.003 0 35.3242 0 35.7207C0 36.1172 0.321275 36.4385 0.717773 36.4385C2.53527 36.4385 3.42608 36.8687 4.36913 37.3241C5.36741 37.8062 6.49891 38.3526 8.64496 38.3526C10.791 38.3526 11.9225 37.8062 12.9208 37.3241C13.8638 36.8687 14.7546 36.4385 16.5722 36.4385C18.3897 36.4385 19.2805 36.8687 20.2236 37.3241C21.2219 37.8062 22.3533 38.3526 24.4993 38.3526C26.6455 38.3526 27.7769 37.8062 28.7752 37.3241C29.7183 36.8687 30.6091 36.4385 32.4267 36.4385C34.2444 36.4385 35.1354 36.8687 36.0785 37.3241C37.0768 37.8062 38.2083 38.3526 40.3545 38.3526C42.5007 38.3526 43.6322 37.8062 44.6306 37.3241C45.5736 36.8687 46.4645 36.4385 48.2822 36.4385C48.6787 36.4385 49 36.1172 49 35.7207C49 35.3242 48.6787 35.003 48.2822 35.003ZM48.2822 23.5186C46.1361 23.5186 45.0046 24.065 44.0063 24.547C43.0632 25.0025 42.1722 25.4327 40.3545 25.4327C38.5368 25.4327 37.6459 25.0025 36.7028 24.547C35.9102 24.1643 35.0331 23.7414 33.6315 23.5832C34.683 22.5871 35.5571 21.4323 36.2283 20.1703C37.1918 20.6329 38.3148 21.126 40.3542 21.126C42.5004 21.126 43.6319 20.5796 44.6303 20.0976C45.5735 19.6421 46.4644 19.212 48.2822 19.212C48.6787 19.212 49 18.8907 49 18.4942C49 18.0977 48.6787 17.7764 48.2822 17.7764C46.136 17.7764 45.0045 18.3228 44.0061 18.8048C43.0629 19.2603 42.172 19.6905 40.3542 19.6905C38.6207 19.6905 37.73 19.2992 36.833 18.8681C37.4536 17.3188 37.7865 15.647 37.7865 13.933C37.7865 6.50076 31.6982 0.647461 24.5 0.647461C17.2658 0.647461 11.2135 6.53751 11.2135 13.933C11.2135 15.6468 11.5463 17.3184 12.1669 18.8676C11.2698 19.299 10.3793 19.6906 8.64486 19.6906C6.82775 19.6906 5.93694 19.2605 4.99398 18.805C3.9957 18.3229 2.8642 17.7764 0.717773 17.7764C0.321275 17.7764 0 18.0977 0 18.4942C0 18.8907 0.321275 19.212 0.717773 19.212C2.53565 19.212 3.42655 19.6421 4.36971 20.0977C5.36789 20.5796 6.4992 21.126 8.64486 21.126C10.6852 21.126 11.8083 20.6325 12.7717 20.1697C13.4431 21.4318 14.3177 22.5867 15.3694 23.583C13.9668 23.741 13.0893 24.1642 12.2964 24.5471C11.3534 25.0026 10.4626 25.4327 8.64496 25.4327C6.82737 25.4327 5.93656 25.0026 4.9935 24.5471C3.99522 24.065 2.86382 23.5186 0.717773 23.5186C0.321275 23.5186 0 23.8399 0 24.2364C0 24.6329 0.321275 24.9541 0.717773 24.9541C2.53527 24.9541 3.42608 25.3843 4.36913 25.8398C5.36741 26.3218 6.49891 26.8682 8.64496 26.8682C10.791 26.8682 11.9225 26.3218 12.9208 25.8398C13.8638 25.3843 14.7546 24.9541 16.5722 24.9541C18.3897 24.9541 19.2805 25.3843 20.2236 25.8398C21.2219 26.3218 22.3533 26.8682 24.4993 26.8682C26.6455 26.8682 27.7769 26.3218 28.7752 25.8398C29.7183 25.3843 30.6091 24.9541 32.4267 24.9541C34.2444 24.9541 35.1354 25.3843 36.0785 25.8398C37.0768 26.3218 38.2083 26.8682 40.3545 26.8682C42.5007 26.8682 43.6322 26.3218 44.6306 25.8398C45.5736 25.3843 46.4645 24.9541 48.2822 24.9541C48.6787 24.9541 49 24.6329 49 24.2364C49 23.8399 48.6787 23.5186 48.2822 23.5186ZM36.096 11.4846C34.7625 10.2432 33.2263 9.24907 31.5663 8.56575C30.2133 8.00885 28.785 7.65561 27.3155 7.51263C26.972 6.97468 26.4661 6.5288 25.8566 6.22791C26.1548 5.75896 26.5026 5.3262 26.8985 4.93697C27.6589 4.18963 28.5942 3.6089 29.6169 3.24551C32.8868 4.81725 35.3284 7.84596 36.096 11.4846ZM26.3684 9.15719C26.3684 10.2134 25.3163 11.0726 24.023 11.0726C22.8956 11.0726 21.6776 10.3512 21.6776 9.15719C21.6776 7.94645 22.857 7.24169 24.023 7.24169C25.2606 7.24179 26.3684 8.01746 26.3684 9.15719ZM24.5 2.08301C25.6208 2.08301 26.7057 2.23948 27.734 2.53157C27.0604 2.91132 26.4388 3.37615 25.8922 3.91333C25.3163 4.47941 24.8251 5.12149 24.4241 5.82538C24.2922 5.81294 24.1584 5.80634 24.0229 5.80634C23.5365 5.80634 23.0716 5.88912 22.6441 6.03803C22.3063 5.45377 21.906 4.90931 21.4487 4.41347C20.967 3.89122 20.4297 3.43156 19.8445 3.03631C21.2745 2.42314 22.8483 2.08301 24.5 2.08301ZM18.3491 3.80748C19.118 4.21814 19.8045 4.74805 20.3937 5.38668C20.7772 5.80261 21.1133 6.2594 21.3973 6.74949C21.0939 7.00952 20.8395 7.31376 20.6473 7.65073C18.8354 7.82299 17.044 8.35013 15.4412 9.18628C14.6037 9.62317 13.8177 10.14 13.0889 10.7309C13.9084 7.81486 15.8183 5.35041 18.3491 3.80748ZM12.6491 13.933C12.6491 13.6445 12.66 13.3586 12.6804 13.0752C13.6691 12.0093 14.8201 11.1296 16.1052 10.4591C17.3853 9.79132 18.7999 9.34324 20.2426 9.14322C20.2426 9.14791 20.2422 9.1526 20.2422 9.15729C20.2422 9.90502 20.5201 10.5963 20.989 11.1544C19.8205 12.6476 18.8653 14.285 18.1466 16.0315C17.259 18.1884 16.749 20.4546 16.6224 22.786C14.1126 20.5498 12.6491 17.3335 12.6491 13.933ZM31.4036 23.5644C31.0782 23.5948 30.7798 23.6392 30.5044 23.6942C30.1407 21.4897 29.5561 19.3284 28.7615 17.2588C28.6194 16.8889 28.2046 16.7042 27.8341 16.8461C27.464 16.9882 27.2792 17.4034 27.4213 17.7734C28.2029 19.8089 28.7722 21.9377 29.1176 24.1091C28.7671 24.2497 28.4528 24.4013 28.151 24.547C27.2079 25.0025 26.317 25.4327 24.4994 25.4327C22.6819 25.4327 21.7911 25.0025 20.8481 24.547C20.1043 24.1878 19.2863 23.7932 18.0301 23.6152C18.0697 21.1799 18.5536 18.8152 19.4742 16.5777C20.1416 14.956 21.0284 13.435 22.1131 12.0474C22.6741 12.3398 23.3267 12.5082 24.0232 12.5082C24.2756 12.5082 24.5222 12.4857 24.7609 12.4437C25.2368 13.2059 25.6837 13.99 26.0888 14.7836C26.2711 15.1407 26.7075 15.2736 27.0545 15.0964C27.4075 14.9161 27.5476 14.4838 27.3674 14.1307C26.9882 13.3881 26.5756 12.6523 26.1365 11.9347C27.1846 11.3086 27.856 10.2208 27.8001 9.01775C28.9099 9.1771 29.9895 9.46928 31.0201 9.89344C33.5637 10.9403 35.3023 12.5791 36.3498 13.836C36.381 17.6858 34.5316 21.3191 31.4036 23.5644ZM0.717773 30.6963C2.53527 30.6963 3.42608 31.1265 4.36913 31.582C5.36741 32.064 6.49891 32.6104 8.64496 32.6104C9.04146 32.6104 9.36273 32.2891 9.36273 31.8926C9.36273 31.4961 9.04146 31.1748 8.64496 31.1748C6.82737 31.1748 5.93656 30.7447 4.9935 30.2892C3.99522 29.8071 2.86382 29.2608 0.717773 29.2608C0.321275 29.2608 0 29.5821 0 29.9785C0 30.375 0.321275 30.6963 0.717773 30.6963ZM48.2822 29.2608C46.1361 29.2608 45.0046 29.8071 44.0063 30.2892C43.0632 30.7447 42.1722 31.1748 40.3545 31.1748C38.5368 31.1748 37.6459 30.7447 36.7028 30.2892C35.7044 29.8071 34.5729 29.2608 32.4267 29.2608C30.2807 29.2608 29.1493 29.8071 28.1509 30.2892C27.2078 30.7447 26.3169 31.1748 24.4993 31.1748C22.6818 31.1748 21.791 30.7447 20.848 30.2892C19.8497 29.8071 18.7183 29.2608 16.5722 29.2608C14.426 29.2608 13.2945 29.8072 12.2962 30.2893C12.0738 30.3967 11.8636 30.4982 11.6427 30.5947C11.2794 30.7533 11.1134 31.1764 11.2721 31.5397C11.4307 31.903 11.854 32.0689 12.2171 31.9102C12.4632 31.8027 12.6957 31.6905 12.9205 31.582C13.8637 31.1264 14.7545 30.6962 16.5722 30.6962C18.3897 30.6962 19.2805 31.1264 20.2236 31.5819C21.2219 32.0639 22.3533 32.6103 24.4993 32.6103C26.6455 32.6103 27.7769 32.0639 28.7752 31.5819C29.7183 31.1264 30.6091 30.6962 32.4267 30.6962C34.2444 30.6962 35.1354 31.1264 36.0785 31.5819C37.0768 32.0639 38.2083 32.6103 40.3545 32.6103C42.5007 32.6103 43.6322 32.0639 44.6306 31.5819C45.5736 31.1264 46.4645 30.6962 48.2822 30.6962C48.6787 30.6962 49 30.375 49 29.9785C49 29.582 48.6787 29.2608 48.2822 29.2608Z"/>
<defs>
<linearGradient id="paint0_linear" x1="0" y1="0.647461" x2="36.4468" y2="48.0122" gradientUnits="userSpaceOnUse">
<stop offset="0.34375" stop-color="#0086B5"/>
<stop offset="1" stop-color="#46AEF7"/>
</linearGradient>
</defs>
</svg>
