<svg width="49" height="49" viewBox="0 0 49 49" xmlns="http://www.w3.org/2000/svg">
<path d="M48.2822 45.6504C46.136 45.6504 45.0044 46.1968 44.0061 46.6788C43.063 47.1343 42.172 47.5645 40.3542 47.5645C38.5363 47.5645 37.6454 47.1343 36.7022 46.6788C35.7041 46.1967 34.5728 45.6504 32.4271 45.6504C30.2808 45.6504 29.1493 46.1968 28.151 46.6788C27.2078 47.1343 26.3168 47.5645 24.499 47.5645C22.6818 47.5645 21.7911 47.1344 20.848 46.6791C20.1927 46.3627 19.5179 46.0378 18.5664 45.8396V41.572C19.2055 41.7388 19.7047 41.979 20.2239 42.2297C21.2221 42.7115 22.3535 43.2578 24.499 43.2578C26.6453 43.2578 27.7769 42.7114 28.7752 42.2294C29.7183 41.7739 30.6093 41.3438 32.4271 41.3438C34.2443 41.3438 35.135 41.7739 36.078 42.2293C37.0763 42.7114 38.2078 43.2578 40.3542 43.2578C42.5004 43.2578 43.632 42.7114 44.6303 42.2294C45.5734 41.7739 46.4644 41.3438 48.2822 41.3438C48.6786 41.3438 49 41.0224 49 40.626C49 40.2296 48.6786 39.9082 48.2822 39.9082C46.136 39.9082 45.0044 40.4546 44.0061 40.9366C43.063 41.3921 42.172 41.8223 40.3542 41.8223C38.5363 41.8223 37.6454 41.3921 36.7022 40.9366C35.7041 40.4545 34.5728 39.9082 32.4271 39.9082C30.2808 39.9082 29.1493 40.4546 28.151 40.9366C27.2078 41.3921 26.3168 41.8223 24.499 41.8223C22.6818 41.8223 21.7911 41.3922 20.848 40.9369C20.1927 40.6205 19.5179 40.2956 18.5664 40.0974V39.2982C19.3766 39.1814 20.002 38.4845 20.002 37.6425V37.5616H34.4905C35.6547 37.5669 36.6438 36.5757 36.6438 35.4082C36.6438 34.2209 35.6778 33.2549 34.4905 33.2549H23.6864L26.3529 27.0949C26.5056 26.7427 26.5017 26.3407 26.3422 25.9918C26.1834 25.6446 25.884 25.38 25.5201 25.2659L24.7625 25.029L26.9963 21.873L28.4463 22.7326C29.1839 23.1864 29.693 23.906 29.8802 24.7594C30.0693 25.6207 29.9045 26.4974 29.4165 27.2281L27.1983 30.5507C26.9781 30.8804 27.0669 31.3261 27.3966 31.5462C27.7264 31.7663 28.172 31.6774 28.3922 31.3478L30.6103 28.0253C31.3171 26.967 31.5558 25.6979 31.2824 24.4517C31.0104 23.2117 30.2681 22.1656 29.1923 21.506C29.1893 21.5042 29.1863 21.5023 29.1832 21.5006L27.1488 20.2945C27.1472 20.2937 27.1458 20.2927 27.1443 20.2919L26.5177 19.9205L28.1255 15.7715L31.0508 17.2776C32.0796 17.8071 33.3312 17.7601 34.3173 17.1548L37.5464 15.1726C38.4544 14.6152 38.7866 13.473 38.319 12.5157C37.8202 11.494 36.5408 11.0658 35.5342 11.586L32.5689 13.0997L29.5093 11.0749L30.2592 8.94728C31.5227 8.40953 32.4109 7.15563 32.4109 5.69816V3.52924C32.4109 1.58322 30.8277 0 28.8817 0C26.9356 0 25.3524 1.58322 25.3524 3.52924V5.69797C25.3524 6.44561 25.5868 7.13917 25.9849 7.71051L25.3322 9.26445C24.2758 9.30665 23.2564 9.84546 22.6396 10.7931L19.0566 16.2971C19.0532 16.3024 19.0505 16.308 19.0471 16.3134C19.0441 16.3184 19.0412 16.3236 19.0381 16.3288C19.0286 16.3453 19.0195 16.3621 19.0113 16.3791C19.0104 16.3812 19.009 16.3831 19.0081 16.3852L17.9062 18.7458C17.5615 19.486 17.4119 20.3069 17.4736 21.1186C17.5442 22.0659 17.8926 22.9615 18.4814 23.7091C19.0697 24.4549 19.8582 24.9987 20.762 25.2818L24.9998 26.6073L22.1222 33.255H19.287C19.286 33.255 19.2851 33.2549 19.2842 33.2549H1.6748C0.751365 33.2549 0 34.0063 0 34.9297V37.6426C0 38.4846 0.625324 39.1816 1.43555 39.2983V48.2756C1.43555 48.672 1.75692 48.9934 2.15332 48.9934C2.54972 48.9934 2.87109 48.672 2.87109 48.2756V39.3174H5.19189C5.5883 39.3174 5.90967 38.9961 5.90967 38.5997C5.90967 38.2033 5.5883 37.8819 5.19189 37.8819H1.6748C1.54293 37.8819 1.43555 37.7745 1.43555 37.6426V34.9297C1.43555 34.7978 1.54293 34.6905 1.6748 34.6905H18.5664V37.6426C18.5664 37.7745 18.459 37.8819 18.3271 37.8819H8.5415C8.1451 37.8819 7.82373 38.2033 7.82373 38.5997C7.82373 38.9961 8.1451 39.3174 8.5415 39.3174H17.1309V48.2756C17.1309 48.672 17.4522 48.9934 17.8486 48.9934C18.245 48.9934 18.5664 48.672 18.5664 48.2756V47.3143C19.2055 47.4811 19.7047 47.7213 20.2239 47.972C21.2221 48.4537 22.3535 49 24.499 49C26.6453 49 27.7769 48.4536 28.7752 47.9716C29.7183 47.5161 30.6093 47.0859 32.4271 47.0859C34.2443 47.0859 35.135 47.5161 36.078 47.9715C37.0763 48.4536 38.2078 49 40.3542 49C42.5004 49 43.632 48.4536 44.6303 47.9716C45.5734 47.5161 46.4644 47.0859 48.2822 47.0859C48.6786 47.0859 49 46.7646 49 46.3682C49 45.9718 48.6786 45.6504 48.2822 45.6504ZM28.8817 1.43555C29.7452 1.43555 30.4881 1.96105 30.8079 2.70907L26.7906 3.42856C26.8433 2.32061 27.761 1.43555 28.8817 1.43555ZM26.788 4.88727L30.9754 4.13744V5.69797C30.9754 6.85244 30.0361 7.79167 28.8817 7.79167C27.7272 7.79167 26.788 6.85244 26.788 5.69797V4.88727ZM27.1068 8.7465C27.5635 9.01342 28.0849 9.18051 28.6416 9.21813L28.2458 10.3411C27.8487 10.1174 27.1391 9.68583 26.7775 9.53031L27.1068 8.7465ZM23.8426 11.5762C24.3994 10.7209 25.5259 10.4438 26.407 10.9458L28.6063 12.1986L31.7999 14.3121C32.2164 14.5877 32.7516 14.618 33.1966 14.3909L36.1868 12.8644C36.4907 12.7068 36.8784 12.8373 37.029 13.1456C37.1704 13.4351 37.0699 13.7806 36.7954 13.9491L33.5662 15.9313C33.0052 16.2757 32.2932 16.3025 31.7079 16.0012L28.7352 14.4707C28.3862 14.291 27.9754 14.2677 27.6082 14.4069C27.2411 14.546 26.9489 14.8356 26.8064 15.2023L25.2657 19.1782L20.668 16.4527L23.8426 11.5762ZM21.1908 23.9117C20.5642 23.7154 20.0171 23.3379 19.6088 22.8204C19.1978 22.2985 18.9544 21.6731 18.905 21.0109C18.8618 20.443 18.9664 19.8693 19.2071 19.3524L19.9736 17.7102C19.9756 17.7113 25.7573 21.1386 25.7573 21.1386L23.3224 24.5785L21.1908 23.9117ZM20.002 34.6905H22.5895C22.5907 34.6905 22.592 34.6907 22.5932 34.6907C22.5941 34.6907 22.5949 34.6905 22.5958 34.6905H34.4905C34.8863 34.6905 35.2082 35.0124 35.2082 35.4082C35.2082 35.7972 34.8794 36.1279 34.4905 36.126H20.002V34.6905Z"/>
<defs>
<linearGradient id="paint0_linear" x1="0" y1="0" x2="49" y2="49" gradientUnits="userSpaceOnUse">
<stop offset="0.34375" stop-color="#0086B5"/>
<stop offset="1" stop-color="#46AEF7"/>
</linearGradient>
</defs>
</svg>
