<svg width="28" height="42" viewBox="0 0 28 42" xmlns="http://www.w3.org/2000/svg">
<path d="M27.8019 2.50031C27.8019 1.1217 26.6803 0 25.3017 0H22.9541C22.6136 0 22.3377 0.275953 22.3377 0.616465C22.3377 0.956977 22.6136 1.23293 22.9541 1.23293H25.3017C26.0006 1.23293 26.5691 1.80149 26.5691 2.50031C26.5691 3.19914 26.0005 3.76778 25.3017 3.76778H2.69855C1.99965 3.76778 1.43109 3.19922 1.43109 2.50031C1.43109 1.80141 1.99965 1.23293 2.69855 1.23293H20.4883C20.8288 1.23293 21.1047 0.956977 21.1047 0.616465C21.1047 0.275953 20.8288 0 20.4883 0H2.69855C1.31986 0 0.198242 1.12161 0.198242 2.50031C0.198242 3.83127 1.24357 4.92237 2.55631 4.99636V14.7377C2.55631 14.9446 2.66008 15.1377 2.83259 15.2518L4.56288 16.3965C4.84679 16.5843 5.2293 16.5064 5.41715 16.2225C5.605 15.9386 5.52707 15.5562 5.24316 15.3683L3.78916 14.4064V5.00063H8.67207V17.6368L7.30215 16.7305C7.01816 16.5425 6.63564 16.6204 6.44796 16.9045C6.26011 17.1884 6.33795 17.5708 6.62195 17.7587L12.5968 21.7114C11.9213 22.1648 11.4759 22.9355 11.4759 23.8084C11.4759 24.6412 11.8815 25.3807 12.5052 25.8407C12.4703 25.8868 12.4366 25.934 12.4056 25.9836L10.5073 29.0227C10.4179 29.1658 10.2787 29.267 10.1149 29.3078L6.63802 30.1741C6.00474 30.3319 5.50624 30.7967 5.30461 31.4174C5.10289 32.038 5.23299 32.7072 5.65258 33.2071L7.95626 35.9516C8.06471 36.0807 8.11795 36.2445 8.10614 36.4128L7.85561 39.9872C7.81 40.6382 8.09793 41.256 8.62589 41.6396C9.15392 42.0231 9.83043 42.1061 10.4354 41.8616L13.7575 40.5188C13.9138 40.4554 14.0861 40.4554 14.2425 40.5188L17.5646 41.8616C17.794 41.9544 18.0337 42 18.2717 42C18.6613 42 19.0462 41.8777 19.374 41.6396C19.902 41.256 20.19 40.6382 20.1444 39.9872L19.8938 36.4129C19.882 36.2445 19.9353 36.0807 20.0437 35.9516L20.3286 35.6121C20.5475 35.3514 20.5135 34.9625 20.2528 34.7437C19.9922 34.5249 19.6033 34.5589 19.3844 34.8195L19.0994 35.1589C18.7843 35.5342 18.6297 36.0102 18.664 36.4991L18.9146 40.0735C18.9305 40.3009 18.8339 40.5082 18.6494 40.6423C18.4648 40.7762 18.2378 40.8042 18.0265 40.7188L14.7045 39.3759C14.2501 39.1923 13.7497 39.1922 13.2954 39.3759L9.97333 40.7188C9.76194 40.8041 9.53496 40.7763 9.35047 40.6423C9.16598 40.5083 9.06935 40.301 9.08534 40.0735L9.33587 36.4991C9.37016 36.0102 9.21553 35.5344 8.90044 35.1589L6.59676 32.4144C6.45017 32.2398 6.40645 32.0152 6.47699 31.7984C6.54746 31.5815 6.71472 31.4256 6.93604 31.3705L10.4129 30.5041C10.8886 30.3857 11.2933 30.0915 11.5528 29.676L13.4512 26.6369C13.5718 26.4438 13.7715 26.333 13.999 26.3326H14H14.0009C14.2285 26.3329 14.4281 26.4438 14.5488 26.6369L16.4472 29.6759C16.7066 30.0915 17.1115 30.3856 17.5871 30.5041L21.064 31.3705C21.2853 31.4256 21.4525 31.5815 21.523 31.7983C21.5935 32.0152 21.5498 32.2398 21.4032 32.4144L20.9738 32.9259C20.7549 33.1867 20.7888 33.5756 21.0496 33.7944C21.3104 34.0134 21.6992 33.9793 21.9181 33.7186L22.3476 33.207C22.7672 32.7071 22.8973 32.038 22.6956 31.4173C22.4938 30.7966 21.9953 30.3319 21.3621 30.1741L17.8852 29.3078C17.7216 29.267 17.5822 29.1658 17.4929 29.0227L15.5945 25.9837C15.5635 25.934 15.5298 25.8868 15.4949 25.8408C16.1186 25.3808 16.5243 24.6412 16.5243 23.8084C16.5243 22.9355 16.0788 22.1648 15.4033 21.7114L25.1674 15.2518C25.34 15.1377 25.4438 14.9445 25.4438 14.7377V4.99636C26.7565 4.92237 27.8019 3.83127 27.8019 2.50031ZM9.905 5.00063H18.0952V18.4524L14.0001 21.1615L9.905 18.4524V5.00063ZM14.0001 25.0998C13.288 25.0998 12.7087 24.5205 12.7087 23.8084C12.7087 23.0964 13.288 22.5171 14.0001 22.5171C14.7121 22.5171 15.2914 23.0964 15.2914 23.8084C15.2914 24.5205 14.7121 25.0998 14.0001 25.0998ZM24.2109 14.4064L19.328 17.6367V5.00063H24.2109V14.4064Z"/>
<defs>
<linearGradient id="paint0_linear" x1="0.198242" y1="0" x2="38.7522" y2="25.3388" gradientUnits="userSpaceOnUse">
<stop offset="0.34375" stop-color="#0086B5"/>
<stop offset="1" stop-color="#46AEF7"/>
</linearGradient>
</defs>
</svg>
