<svg width="272" height="34" viewBox="0 0 272 34" fill="none" xmlns="http://www.w3.org/2000/svg">
<path d="M24.0626 3.77185C22.9193 4.17028 21.6165 5.49841 21.1113 6.77341C20.7656 7.7031 20.7125 9.11091 20.7922 16.2297C20.872 25.0218 20.8986 25.1015 22.1748 26.5093C23.5574 28.05 23.3713 28.0234 35.7615 28.0765C49.1621 28.1562 49.2419 28.1562 50.7308 25.925C51.1828 25.2343 51.5817 24.3578 51.5817 24.0125V23.375L39.6966 23.3218L27.785 23.2422V15.9375V8.63278H39.6966H51.5817V6.02966V3.4531L38.2342 3.47966C29.6728 3.47966 24.5678 3.58591 24.0626 3.77185Z" fill="#0086B5"/>
<path d="M122.573 13.9187C122.573 25.2875 122.6 25.4734 124.089 26.8812C124.488 27.2796 125.179 27.7312 125.578 27.864C126.615 28.2625 149.374 28.2625 150.411 27.864C151.315 27.5187 152.538 26.4031 153.044 25.4468C153.336 24.8625 153.416 22.7375 153.416 14.0781V3.45308H149.959H146.503V13.3609C146.503 18.8328 146.45 23.3484 146.397 23.4015C146.343 23.4546 142.515 23.4812 137.888 23.4281L129.486 23.3484V13.414V3.45308H126.03H122.573V13.9187Z" fill="#0086B5"/>
<path d="M10.6357 15.8047V27.8906H14.0922H17.5487V15.8047V3.71875H14.0922H10.6357V15.8047Z" fill="#0086B5"/>
<path d="M55.0381 15.9375V28.1562L70.4062 28.1031L85.7478 28.0234V25.5V22.9766L73.8627 22.8969L61.9511 22.8438V15.8047V8.76562H73.9159H85.8807V6.24219V3.71875H70.4594H55.0381V15.9375Z" fill="#0086B5"/>
<path d="M91.2518 4.27656C90.5073 4.64844 89.8958 5.23281 89.4704 5.97656L88.8057 7.09219V15.8312C88.8057 24.3844 88.8323 24.5969 89.4172 25.6062C90.6403 27.7578 90.5605 27.7578 98.8827 27.8375L106.248 27.9172L108.215 29.8828L110.183 31.875H113.639H117.096L115.314 30.0687C114.331 29.0859 113.533 28.1828 113.533 28.0766C113.533 27.9703 114.065 27.8906 114.729 27.8906C116.724 27.8906 118.585 26.5094 119.117 24.6766C119.462 23.4547 119.462 8.39375 119.117 7.11875C118.957 6.56094 118.532 5.76406 118.133 5.3125C116.777 3.69219 117.069 3.71875 104.174 3.71875C92.7142 3.71875 92.3685 3.74531 91.2518 4.27656ZM112.469 16.0703V23.375H110.449H108.455L107.045 22.0469L105.636 20.7188H102.339H99.0688L100.186 21.8609C100.797 22.4719 101.302 23.0828 101.302 23.1891C101.302 23.2953 100.026 23.3484 98.4573 23.3219L95.5857 23.2422L95.506 16.3625C95.4528 12.5641 95.4794 9.32344 95.5591 9.11094C95.6655 8.84531 97.314 8.76562 104.094 8.76562H112.469V16.0703Z" fill="#0086B5"/>
<path d="M156.872 15.9375V28.1562H172.16H187.449V25.5V22.8438L175.564 22.7906L163.652 22.7109V15.8047V8.89844L175.564 8.81875L187.449 8.76562V6.24219V3.71875H172.16H156.872V15.9375Z" fill="#0086B5"/>
<path d="M190.374 15.9375V28.1562H205.795H221.217V25.5V22.8438H209.252H197.287V15.8047V8.76562H209.252H221.217V6.24219V3.71875H205.795H190.374V15.9375Z" fill="#0086B5"/>
<path d="M224.141 16.0703V28.1562H227.198H230.256V19.0984C230.256 13.7594 230.362 10.0938 230.495 10.1469C230.628 10.1734 233.606 14.2375 237.089 19.125L243.417 28.0234L248.948 28.1031L254.451 28.1562V16.0703V3.98438H251.394H248.336V13.0422C248.336 18.5406 248.23 22.0469 248.097 21.9937C247.964 21.9406 244.959 17.8766 241.423 12.9359L235.015 3.98438H229.565H224.141V16.0703Z" fill="#0086B5"/>
<path d="M64.0781 16.0703V18.5938H74.0488H84.0195V16.0703V13.5469H74.0488H64.0781V16.0703Z" fill="#0086B5"/>
<path d="M165.912 16.0703V18.5938H175.75H185.588V16.0703V13.5469H175.75H165.912V16.0703Z" fill="#0086B5"/>
<path d="M199.6 13.7328C199.52 13.8656 199.467 14.9812 199.467 16.2562L199.44 18.5938H209.385H219.355V16.0703V13.5469H209.544C204.12 13.5469 199.653 13.6266 199.6 13.7328Z" fill="#0086B5"/>
</svg>
