<svg width="34" height="34" viewBox="0 0 34 34" fill="none" xmlns="http://www.w3.org/2000/svg">
<path d="M32.56 26.4233L25.1075 19.6473C24.7552 19.3271 24.2923 19.1564 23.8165 19.1711C23.3407 19.1858 22.8892 19.3848 22.5574 19.7262L18.1702 24.238C17.1142 24.0363 14.9912 23.3745 12.8059 21.1947C10.6205 19.0075 9.95868 16.879 9.76252 15.8303L14.2707 11.4413C14.6124 11.1097 14.8118 10.6582 14.8265 10.1822C14.8412 9.70624 14.6701 9.24323 14.3495 8.89116L7.57535 1.44049C7.2546 1.08731 6.8088 0.873082 6.33263 0.8433C5.85647 0.813518 5.38745 0.970531 5.02518 1.28099L1.04685 4.69282C0.729888 5.01094 0.540703 5.43432 0.515184 5.88266C0.487684 6.34099 -0.0366496 17.198 8.38202 25.6203C15.7264 32.9628 24.926 33.5 27.4597 33.5C27.83 33.5 28.0574 33.489 28.1178 33.4853C28.5661 33.4602 28.9893 33.2702 29.3059 32.9518L32.7159 28.9717C33.0275 28.6106 33.1857 28.1419 33.1566 27.6658C33.1275 27.1896 32.9134 26.7438 32.56 26.4233Z" fill="#0086B5"/>
</svg>
