<svg width="41" height="64" viewBox="0 0 41 64" xmlns="http://www.w3.org/2000/svg">
<path d="M38.3444 62.4299C38.3444 63.2971 37.6536 64 36.8013 64H4.09554C3.24323 64 2.55243 63.2971 2.55243 62.4299C2.55243 61.5626 3.24323 60.8597 4.09554 60.8597H36.8013C37.6536 60.8597 38.3444 61.5626 38.3444 62.4299ZM14.0707 32.7916C13.8945 31.9432 13.0754 31.4025 12.2418 31.5803C8.14226 32.4627 6.06369 33.9211 6.06369 35.9152C6.06369 40.8878 18.9763 41.0314 20.4484 41.0314C21.9205 41.0314 34.8326 40.8878 34.8326 35.9152C34.8326 33.9212 32.7542 32.4629 28.6548 31.5804C27.8214 31.402 27.0023 31.9433 26.8259 32.7916C26.6495 33.6398 27.1824 34.4732 28.0162 34.6528C30.0671 35.0942 31.1103 35.6073 31.5516 35.9229C30.498 36.7047 26.6807 37.8908 20.4484 37.8908C14.2158 37.8908 10.3983 36.7047 9.34452 35.9231C9.78585 35.6071 10.8292 35.0942 12.8803 34.6528C13.7143 34.4732 14.2472 33.64 14.0707 32.7916ZM17.6691 36.2153C17.6862 36.2158 17.7032 36.2162 17.7202 36.2162C18.5494 36.2162 19.2345 35.5464 19.2616 34.6971C19.2863 33.9256 19.2621 33.1923 19.1899 32.5177L18.9128 29.9295C18.8204 29.0676 18.0604 28.4448 17.2116 28.5385C16.3645 28.6323 15.7524 29.4073 15.8446 30.2695L16.1217 32.8577C16.1783 33.3862 16.1968 33.9706 16.1769 34.5948C16.1493 35.4616 16.8173 36.1872 17.6691 36.2153ZM14.4579 22.0095C14.6839 22.6506 15.2774 23.0502 15.9105 23.0502C16.0835 23.0502 16.2592 23.0203 16.4313 22.9575C17.2336 22.6648 17.6506 21.7657 17.363 20.9494C14.7814 13.6257 9.67612 4.46686 3.08943 0.725809C2.34548 0.302906 1.40538 0.574199 0.989943 1.33155C0.574503 2.0889 0.841118 3.04532 1.58524 3.46787C6.39855 6.20174 11.4512 13.4797 14.4579 22.0095ZM14.7452 7.36437C14.7452 4.01866 16.849 1.08887 19.98 0.0741824C20.2847 -0.0245647 20.612 -0.0245647 20.9167 0.0741824C24.0478 1.08887 26.1514 4.01866 26.1514 7.36437C26.1514 10.7097 24.0476 13.6395 20.9168 14.6547C20.7644 14.7041 20.6063 14.7289 20.4484 14.7289C20.2905 14.7289 20.1322 14.7041 19.98 14.6547C16.849 13.6395 14.7452 10.7097 14.7452 7.36437ZM17.8315 7.36437C17.8315 9.16485 18.8647 10.7612 20.4484 11.481C22.032 10.7612 23.0654 9.16502 23.0654 7.36437C23.0654 5.56372 22.0323 3.96737 20.4484 3.24787C18.8647 3.96737 17.8315 5.56372 17.8315 7.36437ZM31.1487 18.543C30.3077 18.4036 29.514 18.9827 29.376 19.8383C29.2381 20.694 29.8082 21.5016 30.6491 21.6421C32.926 22.022 34.1917 22.4383 34.8743 22.741C33.0296 23.5324 28.0825 24.5696 20.4484 24.5696C12.8141 24.5696 7.86708 23.5324 6.02289 22.7408C6.71917 22.4319 8.02259 22.0044 10.3884 21.6185C11.2297 21.4812 11.8025 20.6759 11.6678 19.8194C11.5328 18.9633 10.7424 18.3813 9.8997 18.5176C4.6622 19.3717 2.32662 20.6727 2.32662 22.7353C2.32662 24.5992 4.20596 25.8163 8.42003 26.6816C11.6487 27.3448 15.9204 27.7099 20.4482 27.7099C24.9761 27.7099 29.2479 27.3448 32.4768 26.6816C36.6912 25.8163 38.5705 24.5991 38.5705 22.7353C38.5707 20.6924 36.2818 19.3995 31.1487 18.543ZM39.9069 1.33155C39.4914 0.574199 38.5513 0.302906 37.8074 0.725809C31.2195 4.46738 26.1147 13.6259 23.5339 20.9494C23.2462 21.7659 23.6634 22.6648 24.4656 22.9575C24.6378 23.0203 24.8135 23.0502 24.9865 23.0502C25.6194 23.0502 26.2131 22.6506 26.4391 22.0095C29.4447 13.4801 34.4976 6.20226 39.3117 3.46787C40.0557 3.04532 40.3223 2.0889 39.9069 1.33155ZM25.0515 30.2692C25.1436 29.4071 24.5315 28.6322 23.6841 28.5385C22.8365 28.4443 22.0754 29.0676 21.9833 29.9298L21.7069 32.5177C21.6347 33.1923 21.6105 33.9256 21.6352 34.6971C21.6623 35.5464 22.3475 36.2162 23.1766 36.2162C23.1936 36.2162 23.2106 36.2158 23.2277 36.2153C24.0795 36.1872 24.7475 35.4616 24.7197 34.5948C24.6999 33.9706 24.7184 33.3862 24.7749 32.8574L25.0515 30.2692ZM15.3042 44.1178L13.6618 55.3785H11.5582C10.7059 55.3785 10.0151 56.0814 10.0151 56.9487C10.0151 57.816 10.7059 58.5189 11.5582 58.5189H14.9927C15.7573 58.5189 16.4068 57.9489 16.519 57.1792L18.3568 44.5788C18.4818 43.7209 17.9 42.9224 17.057 42.795C16.2134 42.6672 15.4292 43.2602 15.3042 44.1178ZM27.235 55.3785L25.5926 44.1178C25.4676 43.2602 24.6815 42.6673 23.8397 42.7952C22.9966 42.9224 22.4147 43.7211 22.5398 44.579L24.3777 57.1793C24.4898 57.9491 25.1393 58.5191 25.904 58.5191H29.3378C30.1901 58.5191 30.8809 57.8161 30.8809 56.9489C30.8809 56.0816 30.1901 55.3787 29.3378 55.3787H27.235V55.3785Z"/>
<defs>
<linearGradient id="paint0_linear" x1="0.793945" y1="0.00012207" x2="57.8774" y2="35.0609" gradientUnits="userSpaceOnUse">
<stop offset="0.34375" stop-color="#0086B5"/>
<stop offset="1" stop-color="#46AEF7"/>
</linearGradient>
</defs>
</svg>
