<svg width="68" height="60" viewBox="0 0 68 60"  xmlns="http://www.w3.org/2000/svg">
<path d="M12.3707 17.2817C11.8423 13.5442 12.5806 10.9609 14.8391 8.64335C16.5188 6.91969 18.9009 5.89072 21.2108 5.89072H24.8288C25.9427 5.89072 27.5686 4.35305 28.0771 2.29497L28.1786 1.88517C28.3513 1.18903 29.0481 0.766242 29.7344 0.941539C30.4212 1.1164 30.838 1.82265 30.6653 2.51864L30.564 2.92742C29.7934 6.04624 27.274 8.48986 24.8288 8.48986H21.2108C19.596 8.48986 17.8535 9.24866 16.6631 10.4701C14.9664 12.2111 14.4908 13.9573 14.9088 16.9131L16.5604 28.5916C16.661 29.302 16.1742 29.9604 15.4734 30.0625C15.4117 30.0715 15.3505 30.0758 15.2898 30.0758C14.6623 30.0758 14.114 29.6085 14.0225 28.9605L12.3707 17.2817ZM23.1109 21.8308C23.0469 20.6378 23.0097 19.3974 23.0164 18.1272C23.0201 17.4095 22.4494 16.8246 21.7413 16.8207C21.0327 16.8207 20.4563 17.3955 20.4524 18.1132C20.4343 21.5456 20.7345 24.8547 20.9981 27.3544C21.0685 28.0211 21.6245 28.5159 22.2713 28.5159C22.3169 28.5159 22.3629 28.5133 22.4092 28.5084C23.1132 28.4322 23.623 27.7916 23.5478 27.078C23.4777 26.4139 23.4074 25.7166 23.3419 24.9916C24.4537 25.4472 25.7903 25.7016 27.2117 25.7016C29.8834 25.7016 32.254 24.8036 33.3985 23.3581C33.8417 22.7984 33.7534 21.9804 33.2011 21.5312C32.649 21.0821 31.842 21.1715 31.3989 21.7314C30.876 22.3918 29.3427 23.1026 27.2117 23.1026C25.1876 23.1025 23.7027 22.4612 23.1109 21.8308ZM42.4246 25.7016C45.0964 25.7016 47.467 24.8035 48.6112 23.3581C48.7768 23.149 48.8745 22.893 48.8909 22.6255C48.9097 22.3194 48.9305 22.0095 48.9514 21.6974C49.0298 20.5279 49.1107 19.3186 49.1044 18.1134C49.1005 17.398 48.5274 16.8208 47.8225 16.8208C47.8203 16.8208 47.8178 16.8208 47.8156 16.8208C47.1076 16.8246 46.5367 17.4097 46.5404 18.1273C46.5464 19.2374 46.4684 20.3985 46.3932 21.5215C46.3828 21.6767 46.3724 21.8315 46.3623 21.9856C45.687 22.562 44.2832 23.1026 42.4246 23.1026C40.2937 23.1026 38.7603 22.3918 38.2374 21.7314C37.7944 21.1716 36.9874 21.0819 36.4352 21.5312C35.8831 21.9804 35.7946 22.7984 36.2378 23.3581C37.3823 24.8036 39.7529 25.7016 42.4246 25.7016ZM9.22676 29.1349C9.04799 29.8295 9.45852 30.5393 10.1437 30.7204C10.2522 30.749 10.3609 30.7627 10.4682 30.7627C11.0375 30.7627 11.5573 30.3753 11.7077 29.7909C12.4125 27.0514 11.0775 23.6988 8.45414 21.6321C8.30927 21.5196 8.15871 21.4143 8.00373 21.3162L8.32095 19.9857C8.48733 19.2881 8.06426 18.5859 7.37597 18.4173C6.68796 18.2477 5.99497 18.6775 5.82873 19.3752L5.60538 20.3117C4.70213 20.0663 3.80074 19.9236 3.03325 19.802C2.93496 19.7866 2.83739 19.771 2.74223 19.7558L3.8657 12.6193C3.96341 12.635 4.06327 12.6509 4.16526 12.667C5.51735 12.881 7.36899 13.1744 8.42266 13.9925C8.9846 14.4289 9.78928 14.3209 10.22 13.7512C10.6506 13.1814 10.5439 12.3657 9.982 11.9292C8.41012 10.7085 6.18541 10.3562 4.56111 10.099C4.00373 10.0108 3.47725 9.92747 3.18253 9.83679C2.82813 9.72748 2.44438 9.77932 2.13029 9.9783C1.8162 10.1773 1.60239 10.5046 1.54398 10.8754L0.0161193 20.5784C-0.0847318 21.2196 0.296594 21.838 0.909535 22.0266C1.37604 22.1703 1.96049 22.2628 2.63739 22.37C3.98948 22.584 5.84113 22.8774 6.88767 23.69C8.66054 25.0865 9.66606 27.4273 9.22676 29.1349ZM38.9476 2.92641C39.7185 6.04595 42.238 8.48972 44.6832 8.48972H48.3011C49.9159 8.48972 51.6584 9.24852 52.8488 10.47C54.5455 12.211 55.0211 13.957 54.6033 16.9128L53.7797 22.734C53.6792 23.4444 54.1659 24.1029 54.8667 24.2049C54.9285 24.2139 54.9898 24.2182 55.0503 24.2182C55.6777 24.2182 56.2261 23.751 56.3177 23.1029L57.1413 17.2816C57.6695 13.544 56.9312 10.9608 54.6726 8.64335C52.9929 6.91969 50.6108 5.89072 48.3009 5.89072H44.6829C43.569 5.89072 41.9431 4.3529 41.4343 2.29439L41.3332 1.8856C41.1608 1.18947 40.464 0.766531 39.7777 0.941395C39.0909 1.11611 38.6739 1.82207 38.8462 2.5182L38.9476 2.92641ZM45.9468 42.6006C45.239 42.6172 44.6785 43.2123 44.6949 43.9299C44.7595 46.7571 45.054 49.3797 45.595 51.948C45.7236 52.5586 46.2555 52.9765 46.8475 52.9765C46.9362 52.9765 47.0263 52.9671 47.1164 52.9476C47.8089 52.7977 48.2503 52.1072 48.1024 51.4053C47.5952 48.9975 47.319 46.5325 47.2582 43.8696C47.2418 43.1521 46.6523 42.5811 45.9468 42.6006ZM51.0381 48.158C50.3618 47.9454 49.6437 48.3295 49.4344 49.0153C49.225 49.701 49.6037 50.4288 50.2801 50.641C53.2487 51.5722 53.8913 52.4664 53.8913 52.6376C53.8913 52.8604 53.0011 53.9857 48.8893 55.0264C45.1359 55.9762 40.1245 56.4993 34.7786 56.4993C29.4327 56.4993 24.4215 55.9762 20.6679 55.0264C16.556 53.9857 15.666 52.8604 15.666 52.6376C15.666 52.4661 16.3086 51.5722 19.277 50.641C19.9534 50.4288 20.3319 49.701 20.1227 49.0153C19.9133 48.3295 19.1951 47.9454 18.519 48.158C14.9246 49.2856 13.1021 50.7926 13.1021 52.6375C13.1021 54.7295 15.4388 56.3817 20.047 57.5479C23.9977 58.5477 29.2295 59.0983 34.7787 59.0983C40.3279 59.0983 45.5598 58.5477 49.5105 57.5479C54.1189 56.3817 56.4554 54.7295 56.4554 52.6375C56.4553 50.7928 54.6327 49.2856 51.0381 48.158ZM15.0248 44.2911C15.0958 44.281 15.1663 44.2706 15.2368 44.2602L61.0876 37.4816C61.7881 37.3781 62.2733 36.7185 62.1712 36.0082C62.069 35.2979 61.4178 34.8081 60.7175 34.9098L57.7735 35.3451L57.7581 34.6042C57.7433 33.8867 57.1584 33.3237 56.4493 33.3322C55.7415 33.3473 55.1797 33.9413 55.1945 34.659L55.2166 35.7232L47.3439 36.887L47.3285 36.1461C47.3139 35.4378 46.7428 34.8738 46.0474 34.8738C46.0383 34.8738 46.029 34.874 46.0199 34.8741C45.3121 34.8891 44.7503 35.4832 44.7651 36.2008L44.7872 37.265L36.9145 38.4289L36.8991 37.6881C36.8843 36.9798 36.3134 36.4158 35.6178 36.4158C35.6087 36.4158 35.5996 36.416 35.5903 36.4161C34.8825 36.4311 34.3207 37.0252 34.3356 37.7428L34.3576 38.8069L26.4848 39.9709L26.4694 39.2301C26.4546 38.5125 25.8708 37.9461 25.1607 37.9581C24.4529 37.9731 23.8911 38.5672 23.9059 39.2848L23.9279 40.3487L16.0553 41.5127L16.0399 40.7717C16.0249 40.0539 15.4375 39.4889 14.7311 39.4997C14.0232 39.5147 13.4615 40.1088 13.4763 40.8264L13.4978 41.8627C9.80922 42.2427 8.28676 41.5428 7.30019 39.2344C6.45748 37.2629 5.67389 33.3325 6.46162 31.3833C6.70363 30.7845 7.00917 30.6014 7.218 30.5158C7.87439 30.2466 8.19133 29.4891 7.92581 28.8236C7.66029 28.1584 6.91288 27.8368 6.25664 28.1061C5.28317 28.5054 4.53348 29.2978 4.08891 30.398C2.85519 33.4511 4.13463 38.3659 4.94742 40.2677C6.41333 43.6977 9.05668 44.5585 11.875 44.5585C12.8907 44.5585 13.9302 44.4466 14.9442 44.3028C14.972 44.2994 14.9986 44.2957 15.0248 44.2911ZM65.4772 31.8292C65.3138 31.4372 65.1595 31.0668 65.0356 30.7451C63.7664 27.4513 61.3711 25.7265 58.6278 26.1324L9.16807 33.4443C8.46753 33.548 7.98236 34.2076 8.08449 34.9179C8.18663 35.6281 8.83845 36.1191 9.53814 36.0163L58.9979 28.7043C61.131 28.3877 62.2608 30.6878 62.6474 31.6906C62.784 32.0454 62.9449 32.4316 63.1153 32.8406C63.7895 34.4588 64.8084 36.9045 64.4427 38.1552C64.0503 39.4964 62.2022 40.0972 60.2459 40.7334C57.7574 41.5426 54.9368 42.46 54.4626 45.3867C54.3478 46.095 54.8211 46.7634 55.5198 46.8798C55.5902 46.8915 55.6601 46.8971 55.7292 46.8971C56.3459 46.8971 56.8894 46.445 56.9927 45.8081C57.198 44.541 58.6546 43.9806 61.029 43.2084C63.4167 42.432 66.123 41.5519 66.9009 38.8941C67.5277 36.7505 66.3907 34.0217 65.4772 31.8292ZM22.1971 46.056C22.0655 47.9075 21.8226 49.6574 21.4544 51.4055C21.3065 52.1074 21.7481 52.7979 22.4405 52.9478C22.5307 52.9673 22.6207 52.9766 22.7095 52.9766C23.3015 52.9766 23.8335 52.5585 23.962 51.9481C24.355 50.0815 24.6144 48.2153 24.7544 46.2427C24.8053 45.527 24.2741 44.9047 23.5678 44.8532C22.86 44.8012 22.2479 45.3402 22.1971 46.056ZM33.4964 47.7251V48.2657C33.4964 48.9835 34.0703 49.5653 34.7784 49.5653C35.4865 49.5653 36.0604 48.9835 36.0604 48.2657V47.7251C36.0604 47.0073 35.4865 46.4255 34.7784 46.4255C34.0703 46.4255 33.4964 47.0073 33.4964 47.7251Z"/>
<defs>
<linearGradient id="paint0_linear" x1="0" y1="0.901917" x2="57.6139" y2="67.3117" gradientUnits="userSpaceOnUse">
<stop offset="0.34375" stop-color="#0086B5"/>
<stop offset="1" stop-color="#46AEF7"/>
</linearGradient>
</defs>
</svg>
