<svg width="56" height="61" viewBox="0 0 56 61" xmlns="http://www.w3.org/2000/svg">
<path d="M27.55 12.9655C27.611 12.9739 27.6726 12.9781 27.7338 12.9781C27.9557 12.9781 28.1753 12.9235 28.3735 12.818C30.9709 11.4333 32.3738 8.52876 31.8644 5.59036C31.3546 2.65226 29.0592 0.410576 26.1526 0.0125855C25.87 -0.026 25.5819 0.0254991 25.3293 0.160237C22.7316 1.5448 21.3288 4.44929 21.8382 7.38785C22.3477 10.3258 24.6431 12.5673 27.55 12.9655ZM26.2242 2.87366C27.726 3.2561 28.8771 4.49519 29.1515 6.07657C29.4257 7.6581 28.7606 9.22268 27.4782 10.1042C25.9765 9.7218 24.8252 8.48287 24.5509 6.90149C24.2767 5.31979 24.9416 3.75506 26.2242 2.87366ZM38.6159 51.9713H7.27947V30.5229L11.4247 26.3089L12.9996 27.9102C13.5377 28.457 14.4096 28.457 14.9476 27.9102C15.4856 27.3633 15.4856 26.4767 14.9476 25.9299L6.59892 17.442C6.06084 16.8951 5.189 16.8953 4.65092 17.442C4.113 17.9889 4.113 18.8754 4.65092 19.4223L9.47676 24.3286L4.92807 28.9527C4.66975 29.2154 4.52467 29.5715 4.52467 29.9429V52.0564C2.487 52.465 0.945312 54.2958 0.945312 56.4856C0.945312 58.9749 2.93707 61 5.38534 61H38.6157C41.0641 61 43.056 58.9749 43.056 56.4856C43.056 53.9964 41.0643 51.9713 38.6159 51.9713ZM38.6159 58.1994H5.38549C4.45626 58.1994 3.70011 57.4307 3.70011 56.4856C3.70011 55.5408 4.45611 54.7719 5.38549 54.7719H38.6159C39.5452 54.7719 40.3015 55.5406 40.3015 56.4856C40.3014 57.4307 39.5452 58.1994 38.6159 58.1994ZM10.5777 17.0462C10.0917 16.4512 10.1721 15.5684 10.7574 15.0743C11.3421 14.5801 12.2107 14.6618 12.6969 15.2568L13.0001 15.6291C14.8757 17.9338 15.5775 18.7961 18.4264 19.1759C20.4664 19.4481 24.5162 17.3046 28.09 15.4139C32.4341 13.1158 36.5373 10.945 39.4973 11.304C43.5266 11.7931 44.9991 13.5992 47.0374 16.0991L47.2696 16.3835C47.7556 16.9784 47.6753 17.8613 47.0902 18.3554C46.505 18.8496 45.6367 18.7679 45.1506 18.1731L44.9166 17.8864C42.9881 15.521 42.1078 14.4414 39.1709 14.0848C37.3582 13.8646 34.0881 15.4254 30.9188 17.0782C31.1352 17.737 31.3717 18.441 31.6178 19.1734C32.215 20.9503 32.8919 22.9644 33.4893 24.9627C33.6469 25.4899 33.7948 25.9728 33.9307 26.4172C34.775 29.1765 35.24 30.6964 34.7433 32.2082C34.2546 33.6952 33.0377 34.6637 30.6133 36.5934C28.9749 37.8977 28.8923 38.484 29.1396 47.0492L29.1795 48.4431C29.1901 48.8213 29.0499 49.1877 28.7905 49.459C28.5312 49.7304 28.175 49.8835 27.8028 49.8835H24.7373C23.9766 49.8835 23.36 49.2566 23.36 48.4832C23.36 47.7098 23.9766 47.0829 24.7373 47.0829H26.3849C26.26 42.7567 26.1921 40.3678 26.4552 38.6221C26.7796 36.4694 27.6371 35.4062 28.9152 34.3886C30.7795 32.905 31.9045 32.0094 32.1308 31.3212C32.346 30.6662 31.9525 29.38 31.3006 27.2494C31.1632 26.7997 31.0135 26.3112 30.854 25.7777C30.2703 23.8249 29.6013 21.835 29.0113 20.0793C28.8147 19.4939 28.6238 18.9264 28.4439 18.3835C24.47 20.4769 20.7596 22.3119 18.0683 21.9529C14.1457 21.43 12.8457 19.8326 10.878 17.4148L10.5777 17.0462ZM55.0545 37.3077C55.0545 38.0812 54.4379 38.708 53.6772 38.708H51.2708C48.3722 40.5463 45.8401 41.4537 43.593 41.4538C42.9941 41.4538 42.4159 41.3894 41.8556 41.2609C39.5596 40.7342 37.6308 39.1485 35.959 36.4133C35.5576 35.7564 35.7559 34.893 36.402 34.4848C37.0483 34.0765 37.8973 34.2783 38.2989 34.9352C39.5786 37.0291 40.9016 38.1711 42.4621 38.5291C44.45 38.9854 46.9568 38.1999 50.1274 36.1296C50.3493 35.9846 50.6077 35.9076 50.8716 35.9076H53.6772C54.4378 35.9075 55.0545 36.5343 55.0545 37.3077Z"/>
<defs>
<linearGradient id="paint0_linear" x1="0.945312" y1="0.00012207" x2="61.5095" y2="53.7229" gradientUnits="userSpaceOnUse">
<stop offset="0.34375" stop-color="#0086B5"/>
<stop offset="1" stop-color="#46AEF7"/>
</linearGradient>
</defs>
</svg>
