<svg width="48" height="64" viewBox="0 0 48 64" xmlns="http://www.w3.org/2000/svg">
<path d="M6.37996 18.6511C8.59146 10.8018 15.8369 5.31984 24 5.31984C32.163 5.31984 39.4086 10.8018 41.6201 18.6511C41.8434 19.4435 41.382 20.2669 40.5896 20.4902C39.7973 20.7134 38.974 20.2522 38.7506 19.4597C36.8995 12.8896 30.8337 8.30114 23.9998 8.30114C17.1659 8.30114 11.1003 12.8898 9.24913 19.4597C9.06397 20.1169 8.46592 20.5463 7.81521 20.5465C7.68139 20.5465 7.54541 20.5284 7.41027 20.4903C6.61795 20.2669 6.15654 19.4435 6.37996 18.6511ZM10.3835 6.30344C10.6595 6.78159 11.1605 7.04906 11.6758 7.04906C11.9287 7.04906 12.1849 6.98463 12.4197 6.84916C13.1327 6.4376 13.3768 5.52587 12.9653 4.81304L12.5827 4.15057C12.1713 3.43758 11.2597 3.19329 10.5466 3.60502C9.8336 4.01658 9.58948 4.92815 10.001 5.64114L10.3835 6.30344ZM24 3.74613C24.8232 3.74613 25.4905 3.07885 25.4905 2.25556V1.49057C25.4905 0.667443 24.8232 0 24 0C23.1767 0 22.5094 0.667443 22.5094 1.49057V2.25556C22.5094 3.07885 23.1767 3.74613 24 3.74613ZM35.5798 6.84883C35.8147 6.98447 36.0709 7.04889 36.324 7.04889C36.8389 7.04889 37.34 6.78159 37.6161 6.30361L37.9989 5.64114C38.4106 4.92831 38.1665 4.01658 37.4537 3.60485C36.7407 3.19313 35.8291 3.43708 35.4174 4.15007L35.0346 4.81255C34.6229 5.52553 34.867 6.4371 35.5798 6.84883ZM3.94255 15.3263C4.35394 14.6134 4.10966 13.7018 3.39667 13.2902L2.73403 12.9078C2.02121 12.4963 1.10964 12.7405 0.697912 13.4537C0.28635 14.1667 0.530803 15.0782 1.24379 15.4898L1.90643 15.8722C2.14111 16.0077 2.39732 16.0721 2.65022 16.0721C3.1653 16.072 3.66646 15.8045 3.94255 15.3263ZM33.7397 26.8451C34.5495 26.9864 35.3226 26.444 35.4642 25.633C35.579 24.975 35.6371 24.2992 35.6371 23.6245C35.6371 17.2076 30.4167 11.9871 23.9998 11.9871C17.5829 11.9871 12.3624 17.2076 12.3624 23.6245C12.3624 24.2982 12.4207 24.9738 12.5353 25.6326C12.6615 26.3572 13.2911 26.8676 14.0021 26.8676C14.087 26.8676 14.1731 26.8604 14.2596 26.8453C15.0706 26.704 15.6135 25.9321 15.4723 25.121C15.3868 24.6308 15.3436 24.1273 15.3436 23.6245C15.3436 18.8514 19.2267 14.9683 23.9998 14.9683C28.7729 14.9683 32.656 18.8515 32.656 23.6245C32.656 24.128 32.6128 24.6313 32.5273 25.1205C32.3861 25.9316 32.9286 26.7037 33.7397 26.8451ZM43.955 23.8862H40.7231C39.9593 23.8862 39.3192 24.4635 39.2405 25.2232C38.4305 33.0477 31.8784 38.948 24 38.948C16.1215 38.948 9.56944 33.0477 8.7594 25.2232C8.68073 24.4635 8.04061 23.8862 7.27678 23.8862H4.04473C3.22144 23.8862 2.55417 24.5535 2.55417 25.3767C2.55417 26.2 3.22144 26.8673 4.04473 26.8673H5.98247C6.69132 30.8281 8.69265 34.4523 11.7048 37.185C14.7073 39.909 18.4979 41.5433 22.5092 41.8689V51.7359H9.49541C6.11414 51.7359 3.36321 54.4867 3.36321 57.8678C3.36321 61.2491 6.11414 64 9.49541 64H19.3585C19.6591 64 19.9526 63.9091 20.2005 63.7393L26.9798 59.0977C27.6591 58.6326 27.8327 57.705 27.3676 57.0258C26.9026 56.3466 25.975 56.1729 25.2956 56.6379L18.8971 61.0189H9.49541C7.7579 61.0189 6.34435 59.6053 6.34435 57.8678C6.34435 56.1305 7.7579 54.7171 9.49541 54.7171H38.5043C40.2418 54.7171 41.6554 56.1305 41.6554 57.8678C41.6554 59.6053 40.2418 61.0189 38.5043 61.0189H28.6414C27.8181 61.0189 27.1508 61.6861 27.1508 62.5094C27.1508 63.3327 27.8181 64 28.6414 64H38.5043C41.8856 64 44.6365 61.2491 44.6365 57.8678C44.6365 54.4867 41.8856 51.7359 38.5043 51.7359H25.4904V41.8689C29.5016 41.5433 33.2921 39.9091 36.2947 37.185C39.3069 34.4523 41.3081 30.8279 42.0171 26.8673H43.9548C44.7781 26.8673 45.4454 26.2 45.4454 25.3767C45.4454 24.5535 44.7783 23.8862 43.955 23.8862ZM24.4523 22.3534C27.4766 23.3168 29.5086 26.098 29.5086 29.2741C29.5086 32.45 27.4766 35.2312 24.4523 36.1946C24.305 36.2415 24.1523 36.265 23.9998 36.265C23.8471 36.265 23.6946 36.2415 23.5473 36.1946C20.5228 35.2309 18.4908 32.4498 18.4908 29.2741C18.4908 26.0982 20.523 23.3169 23.5475 22.3534C23.8418 22.2598 24.1581 22.2598 24.4523 22.3534ZM24 25.3663C22.47 26.0495 21.472 27.5647 21.472 29.2741C21.472 30.9834 22.47 32.4987 24 33.1819C25.5298 32.4987 26.5276 30.9834 26.5276 29.2741C26.5275 27.5647 25.5298 26.0493 24 25.3663ZM47.3017 13.4532C46.8899 12.7404 45.978 12.4963 45.2655 12.9078L44.6031 13.2904C43.8901 13.7021 43.646 14.6137 44.0577 15.3267C44.3338 15.8048 44.8348 16.0721 45.3498 16.0721C45.6027 16.0721 45.8591 16.0077 46.0938 15.8721L46.7563 15.4895C47.4691 15.0779 47.7132 14.1662 47.3017 13.4532Z"/>
<defs>
<linearGradient id="paint0_linear" x1="0.498047" y1="0" x2="61.5659" y2="44.8501" gradientUnits="userSpaceOnUse">
<stop offset="0.34375" stop-color="#0086B5"/>
<stop offset="1" stop-color="#46AEF7"/>
</linearGradient>
</defs>
</svg>
