<svg width="50" height="64" viewBox="0 0 50 64" xmlns="http://www.w3.org/2000/svg">
<path d="M1.8486 23.2262C1.8486 22.4964 2.44009 21.905 3.16987 21.905H4.42288C5.15266 21.905 5.74415 22.4964 5.74415 23.2262C5.74415 23.956 5.15266 24.5475 4.42288 24.5475H3.16987C2.44024 24.5475 1.8486 23.956 1.8486 23.2262ZM18.8259 19.9335C18.8259 16.2602 21.1762 13.0435 24.674 11.9292C24.9349 11.8461 25.2155 11.8461 25.4763 11.9292C28.9742 13.0436 31.3243 16.2602 31.3243 19.9335C31.3243 23.6068 28.9742 26.8236 25.4763 27.9379C25.3458 27.9794 25.2105 28.0003 25.0753 28.0003C24.9401 28.0003 24.8046 27.9794 24.6742 27.9379C21.1762 26.8236 18.8259 23.6069 18.8259 19.9335ZM21.4685 19.9335C21.4685 22.3085 22.901 24.4048 25.0751 25.2761C27.2492 24.4048 28.6816 22.3085 28.6816 19.9335C28.6816 17.5586 27.2491 15.4623 25.0751 14.591C22.901 15.4623 21.4685 17.5587 21.4685 19.9335ZM9.53723 9.55721C9.79532 9.8153 10.1336 9.94435 10.4717 9.94435C10.8098 9.94435 11.1477 9.81545 11.4058 9.55751C11.9218 9.04148 11.922 8.20496 11.4061 7.68879L10.5206 6.80295C10.0045 6.28691 9.16816 6.28662 8.65183 6.80265C8.1358 7.31868 8.13566 8.1552 8.65154 8.67137L9.53723 9.55721ZM45.7272 24.5475H46.9798C47.7096 24.5475 48.301 23.956 48.301 23.2262C48.301 22.4964 47.7096 21.905 46.9798 21.905H45.7272C44.9974 21.905 44.4059 22.4964 44.4059 23.2262C44.4059 23.956 44.9976 24.5475 45.7272 24.5475ZM39.6781 9.9442C40.0164 9.9442 40.3543 9.81516 40.6124 9.55721L41.4983 8.67137C42.0143 8.15534 42.0143 7.31868 41.4983 6.80265C40.9821 6.28677 40.1457 6.28677 39.6295 6.80265L38.7437 7.68849C38.2277 8.20452 38.2277 9.04118 38.7437 9.55721C39.0019 9.81516 39.3399 9.9442 39.6781 9.9442ZM25.0748 3.89541C25.8046 3.89541 26.3961 3.30392 26.3961 2.57413V1.32127C26.3961 0.59149 25.8046 0 25.0748 0C24.345 0 23.7535 0.59149 23.7535 1.32127V2.57413C23.7535 3.30392 24.3452 3.89541 25.0748 3.89541ZM25.0001 60.5509C24.2703 60.5509 23.6788 61.1424 23.6788 61.8722V62.6787C23.6788 63.4085 24.2703 64 25.0001 64C25.7299 64 26.3214 63.4085 26.3214 62.6787V61.8722C26.3214 61.1425 25.7297 60.5509 25.0001 60.5509ZM35.938 54.9734L35.2398 54.5701C34.6077 54.2048 33.7996 54.4215 33.4348 55.0532C33.0698 55.6852 33.2861 56.4934 33.918 56.8582L34.6162 57.2615C34.8244 57.3817 35.0516 57.439 35.2758 57.439C35.7324 57.439 36.1765 57.2021 36.4212 56.7784C36.7862 56.1464 36.5698 55.3382 35.938 54.9734ZM32.2118 59.5856C31.8468 58.9536 31.0386 58.7374 30.4067 59.1023C29.7747 59.4672 29.5585 60.2753 29.9235 60.9072L30.3267 61.6057C30.5716 62.0295 31.0156 62.2665 31.4723 62.2665C31.6965 62.2665 31.9237 62.2092 32.1317 62.0891C32.7638 61.7242 32.98 60.916 32.615 60.2841L32.2118 59.5856ZM14.761 54.5699L14.0625 54.9732C13.4304 55.338 13.214 56.1461 13.5789 56.7781C13.8236 57.202 14.2675 57.439 14.7244 57.439C14.9484 57.439 15.1757 57.3817 15.3837 57.2617L16.0822 56.8584C16.7142 56.4936 16.9306 55.6855 16.5658 55.0535C16.201 54.4216 15.393 54.205 14.761 54.5699ZM41.9545 36.8277C37.4067 33.8083 31.3857 32.1453 25.0001 32.1453C18.6147 32.1453 12.5933 33.8082 8.04581 36.8277C3.33165 39.9577 0.735352 44.1741 0.735352 48.7002C0.735352 49.43 1.32684 50.0215 2.05663 50.0215H11.652C12.091 50.0215 12.5013 49.8035 12.7469 49.4397C12.9927 49.0759 13.0417 48.6139 12.8777 48.2068L11.3393 44.3858C11.0668 43.7089 10.2968 43.3814 9.62018 43.6537C8.94325 43.9262 8.61543 44.696 8.88805 45.3728L9.69579 47.3791H3.47553C3.93915 44.2572 6.04012 41.3315 9.50743 39.0293C13.6267 36.2942 19.1287 34.788 25 34.788C30.8713 34.788 36.3735 36.2942 40.4928 39.0293C43.9601 41.3315 46.0611 44.2572 46.5247 47.3791H40.3047L41.1126 45.373C41.3851 44.696 41.0574 43.9263 40.3806 43.6537C39.7035 43.3814 38.934 43.7088 38.6613 44.3857L37.1226 48.2067C36.9587 48.6139 37.0077 49.0759 37.2533 49.4397C37.4991 49.8035 37.9094 50.0215 38.3483 50.0215H47.944C48.6738 50.0215 49.2653 49.43 49.2653 48.7002C49.2651 44.1741 46.6688 39.9578 41.9545 36.8277ZM19.5932 59.102C18.9609 58.7371 18.153 58.9539 17.7883 59.5859L17.3852 60.2844C17.0205 60.9164 17.237 61.7246 17.869 62.0893C18.0771 62.2094 18.3042 62.2665 18.5282 62.2665C18.9849 62.2665 19.4292 62.0294 19.6739 61.6054L20.077 60.9069C20.4417 60.2749 20.225 59.4667 19.5932 59.102ZM31.7061 51.0302C31.7061 56.0398 28.3326 58.6609 25 58.6609C21.6673 58.6609 18.2938 56.0398 18.2938 51.0302C18.2938 47.2439 20.8688 42.1407 24.1561 39.4123C24.6453 39.0062 25.3546 39.0062 25.8438 39.4123C29.1311 42.1407 31.7061 47.2439 31.7061 51.0302ZM29.0636 51.0302C29.0636 48.3651 27.2747 44.584 25 42.2316C22.7252 44.5839 20.9363 48.3649 20.9363 51.0302C20.9363 54.476 22.9772 56.0183 25 56.0183C27.0227 56.0183 29.0636 54.4758 29.0636 51.0302ZM24.6592 52.037C23.9294 52.0398 23.3403 52.6335 23.3429 53.3633C23.3457 54.0913 23.9368 54.6796 24.6641 54.6796C24.6658 54.6796 24.6674 54.6796 24.6692 54.6796C26.26 54.6736 27.8703 53.3767 27.8703 50.9099C27.8703 50.1801 27.2789 49.5886 26.5491 49.5886C25.8193 49.5886 25.2278 50.1801 25.2278 50.9099C25.2278 51.6486 24.9418 52.036 24.6592 52.037Z"/>
<defs>
<linearGradient id="paint0_linear" x1="0.735352" y1="0" x2="62.3611" y2="46.7296" gradientUnits="userSpaceOnUse">
<stop offset="0.34375" stop-color="#0086B5"/>
<stop offset="1" stop-color="#46AEF7"/>
</linearGradient>
</defs>
</svg>
