<svg width="40" height="63" viewBox="0 0 40 63" xmlns="http://www.w3.org/2000/svg">
<path d="M22.9226 39.8612C23.4696 40.3872 23.4801 41.2501 22.9458 41.7887C22.3237 42.4158 21.2709 42.7956 20.0577 42.8309C19.9967 42.8327 19.9358 42.8336 19.8753 42.8336C18.7363 42.8336 17.7366 42.5179 17.1119 41.9562C16.5473 41.4486 16.5077 40.5865 17.0236 40.0307C17.536 39.4784 18.4038 39.4363 18.969 39.9342C19.0387 39.9795 19.3799 40.1258 19.9758 40.1063C20.5736 40.089 20.9076 39.9239 20.9739 39.8749C21.5088 39.3454 22.3784 39.3385 22.9226 39.8612ZM21.0652 29.9138C20.6413 30.5405 20.8136 31.3866 21.45 31.8038C22.0869 32.2208 22.9463 32.0512 23.3699 31.4249C23.4296 31.3366 23.6962 31.1543 24.1391 31.1543C24.5819 31.1543 24.8483 31.3366 24.908 31.4249C25.1748 31.8192 25.6141 32.0324 26.0617 32.0324C26.3255 32.0324 26.592 31.9584 26.8279 31.8038C27.4644 31.3864 27.6367 30.5403 27.2127 29.9138C26.5929 28.9976 25.4151 28.4284 24.1391 28.4284C22.8629 28.4285 21.6851 28.9976 21.0652 29.9138ZM21.3514 50.083H18.6495C15.0752 50.083 12.017 51.994 9.80584 55.6093C9.41139 56.2542 9.62277 57.0917 10.2777 57.48C10.9332 57.8684 11.7838 57.6602 12.1781 57.0155C13.8854 54.2242 16.0625 52.8091 18.6495 52.8091H21.3514C23.9376 52.8091 26.1146 54.2244 27.8221 57.0155C28.0819 57.4404 28.5399 57.6756 29.0096 57.6755C29.2526 57.6755 29.4991 57.6125 29.7225 57.48C30.3775 57.0918 30.5889 56.2541 30.1943 55.6093C27.9827 51.994 24.9249 50.083 21.3514 50.083ZM17.7845 32.0324C18.0481 32.0324 18.3146 31.9584 18.5506 31.8038C19.187 31.3864 19.3593 30.5403 18.9353 29.9138C18.3155 28.9976 17.1376 28.4284 15.8614 28.4284C14.5853 28.4284 13.4077 28.9976 12.7879 29.9138C12.3639 30.5405 12.5362 31.3866 13.1726 31.8038C13.8091 32.2205 14.6686 32.0514 15.0926 31.4249C15.1522 31.3366 15.4187 31.1543 15.8614 31.1543C16.3044 31.1543 16.571 31.3366 16.6306 31.4249C16.8976 31.8192 17.3368 32.0324 17.7845 32.0324ZM1.67569 22.7079C1.67569 18.3645 3.83607 14.3999 7.48254 11.998C9.3037 6.31928 13.7912 1.87946 19.5802 0.0641932C19.8536 -0.0215198 20.1473 -0.0215198 20.4207 0.0641932C26.21 1.87946 30.6973 6.31913 32.5177 11.9977C36.1647 14.3995 38.3252 18.3644 38.3252 22.7079C38.3252 27.3973 35.3019 31.1303 32.2685 33.2245C32.0671 36.4754 30.9279 39.5538 28.9436 42.1835C26.7912 45.0358 23.8441 47.111 20.421 48.1845C20.2842 48.2273 20.1424 48.2489 20.0007 48.2489C19.859 48.2489 19.717 48.2273 19.5804 48.1845C16.1573 47.111 13.2102 45.0358 11.0578 42.1835C9.12432 39.6212 7.99329 36.6337 7.75022 33.475C3.98514 31.0487 1.67569 26.9867 1.67569 22.7079ZM4.44481 22.7079C4.44481 25.4901 5.70184 28.1637 7.83114 30.094C8.26066 26.6976 9.73415 23.5034 12.0867 20.935C12.8111 20.1438 14.1349 19.4232 15.6681 18.5887C18.2946 17.1591 21.8918 15.2009 21.3989 13.1501C21.2229 12.4175 21.6835 11.6832 22.4277 11.5101C23.1727 11.3358 23.9178 11.7901 24.0937 12.5226C25.0703 16.5858 20.4107 19.1222 17.0082 20.9742C15.8031 21.6301 14.5572 22.3085 14.1435 22.7603C11.7741 25.3473 10.4692 28.6919 10.4692 32.1778C10.4692 32.7071 10.4987 33.2307 10.5566 33.7468C10.7153 33.9616 11.0826 34.3665 11.6807 34.8422C12.4383 35.4447 13.0086 35.7187 13.166 35.757C13.9069 35.9372 14.3632 36.6749 14.1818 37.4048C14.0004 38.1347 13.2551 38.5828 12.5145 38.4062C12.2854 38.3517 12.047 38.263 11.8102 38.1546C13.3977 41.5019 16.3 44.1648 20.0004 45.4486C23.7025 44.1643 26.6058 41.4993 28.1928 38.1499C27.9576 38.2597 27.7201 38.3496 27.4918 38.405C26.75 38.5857 25.9992 38.1387 25.8161 37.4078C25.6332 36.6771 26.0866 35.9387 26.8287 35.7584C26.9832 35.719 27.5396 35.4452 28.2756 34.8495C29.0057 34.2589 29.3846 33.778 29.4562 33.6345C29.506 33.1547 29.5314 32.6688 29.5314 32.1778C29.5314 29.5125 28.7705 26.9178 27.3309 24.6734C26.4623 23.3209 25.3748 22.1309 24.0988 21.137C23.4992 20.67 23.3975 19.8129 23.8721 19.2226C24.3464 18.6323 25.2174 18.532 25.8169 18.9994C27.3387 20.1843 28.6356 21.6036 29.672 23.2175C30.9644 25.2323 31.7988 27.4827 32.1336 29.8269C34.0034 28.0927 35.5558 25.6211 35.5558 22.7079C35.5558 19.1426 33.7089 15.9005 30.6156 14.035C30.3195 13.8563 30.1023 13.5747 30.0072 13.246C28.5906 8.34853 24.8673 4.47251 20.0002 2.79959C15.1333 4.47266 11.4098 8.34883 9.99244 13.2464C9.89737 13.5751 9.6803 13.8566 9.38431 14.0351C6.29136 15.9008 4.44481 19.1429 4.44481 22.7079ZM15.9525 23.4729C15.275 23.8222 15.0135 24.6457 15.3679 25.3124C15.7227 25.9792 16.5593 26.2368 17.2366 25.8879C17.5462 25.7283 18.5413 25.4981 20.0056 25.5246C21.4545 25.5488 22.4295 25.8099 22.7038 25.9688C22.9244 26.0966 23.1659 26.1573 23.4045 26.1572C23.8791 26.1572 24.3413 25.9168 24.5993 25.4851C24.9871 24.8363 24.7671 24.001 24.1081 23.6194C22.9007 22.9202 20.87 22.8128 20.0528 22.799C18.3364 22.77 16.8391 23.0159 15.9525 23.4729ZM34.4187 54.021C33.6814 53.8238 32.9205 54.2547 32.7213 54.9814C32.5219 55.7082 32.9588 56.4564 33.6971 56.6525C35.415 57.1092 36.1793 57.5328 36.5005 57.7683C36.0027 58.1286 34.6293 58.7754 31.6458 59.3372C28.437 59.9413 24.3011 60.2741 20.0004 60.2741C15.6995 60.2741 11.5636 59.9414 8.35482 59.3372C5.37139 58.7754 3.99821 58.1286 3.50023 57.7683C3.8213 57.5328 4.58542 57.1091 6.30336 56.6525C7.04163 56.4564 7.47854 55.7082 7.27916 54.9814C7.07994 54.2548 6.31997 53.8247 5.58154 54.021C3.427 54.5936 0.5625 55.6049 0.5625 57.7656C0.5625 59.6087 2.58904 60.9017 6.9401 61.8348C10.4438 62.5862 15.0822 63 20.0005 63C24.9188 63 29.5569 62.5862 33.0609 61.8348C37.412 60.9017 39.4385 59.6087 39.4385 57.7656C39.4382 55.605 36.5736 54.5936 34.4187 54.021Z"/>
<defs>
<linearGradient id="paint0_linear" x1="0.5625" y1="-9.15527e-05" x2="56.8725" y2="34.7476" gradientUnits="userSpaceOnUse">
<stop offset="0.34375" stop-color="#0086B5"/>
<stop offset="1" stop-color="#46AEF7"/>
</linearGradient>
</defs>
</svg>
