<svg width="42" height="42" viewBox="0 0 42 42" fill="none" xmlns="http://www.w3.org/2000/svg">
<g clip-path="url(#clip0)">
<path d="M34.8019 2.50031C34.8019 1.1217 33.6803 0 32.3017 0H29.9541C29.6136 0 29.3377 0.275953 29.3377 0.616465C29.3377 0.956977 29.6136 1.23293 29.9541 1.23293H32.3017C33.0006 1.23293 33.5691 1.80149 33.5691 2.50031C33.5691 3.19914 33.0005 3.76778 32.3017 3.76778H9.69855C8.99965 3.76778 8.43109 3.19922 8.43109 2.50031C8.43109 1.80141 8.99965 1.23293 9.69855 1.23293H27.4883C27.8288 1.23293 28.1047 0.956977 28.1047 0.616465C28.1047 0.275953 27.8288 0 27.4883 0H9.69855C8.31986 0 7.19824 1.12161 7.19824 2.50031C7.19824 3.83127 8.24357 4.92237 9.55631 4.99636V14.7377C9.55631 14.9446 9.66008 15.1377 9.83259 15.2518L11.5629 16.3965C11.8468 16.5843 12.2293 16.5064 12.4172 16.2225C12.605 15.9386 12.5271 15.5562 12.2432 15.3683L10.7892 14.4064V5.00063H15.6721V17.6368L14.3021 16.7305C14.0182 16.5425 13.6356 16.6204 13.448 16.9045C13.2601 17.1884 13.338 17.5708 13.6219 17.7587L19.5968 21.7114C18.9213 22.1648 18.4759 22.9355 18.4759 23.8084C18.4759 24.6412 18.8815 25.3807 19.5052 25.8407C19.4703 25.8868 19.4366 25.934 19.4056 25.9836L17.5073 29.0227C17.4179 29.1658 17.2787 29.267 17.1149 29.3078L13.638 30.1741C13.0047 30.3319 12.5062 30.7967 12.3046 31.4174C12.1029 32.038 12.233 32.7072 12.6526 33.2071L14.9563 35.9516C15.0647 36.0807 15.1179 36.2445 15.1061 36.4128L14.8556 39.9872C14.81 40.6382 15.0979 41.256 15.6259 41.6396C16.1539 42.0231 16.8304 42.1061 17.4354 41.8616L20.7575 40.5188C20.9138 40.4554 21.0861 40.4554 21.2425 40.5188L24.5646 41.8616C24.794 41.9544 25.0337 42 25.2717 42C25.6613 42 26.0462 41.8777 26.374 41.6396C26.902 41.256 27.19 40.6382 27.1444 39.9872L26.8938 36.4129C26.882 36.2445 26.9353 36.0807 27.0437 35.9516L27.3286 35.6121C27.5475 35.3514 27.5135 34.9625 27.2528 34.7437C26.9922 34.5249 26.6033 34.5589 26.3844 34.8195L26.0994 35.1589C25.7843 35.5342 25.6297 36.0102 25.664 36.4991L25.9146 40.0735C25.9305 40.3009 25.8339 40.5082 25.6494 40.6423C25.4648 40.7762 25.2378 40.8042 25.0265 40.7188L21.7045 39.3759C21.2501 39.1923 20.7497 39.1922 20.2954 39.3759L16.9733 40.7188C16.7619 40.8041 16.535 40.7763 16.3505 40.6423C16.166 40.5083 16.0693 40.301 16.0853 40.0735L16.3359 36.4991C16.3702 36.0102 16.2155 35.5344 15.9004 35.1589L13.5968 32.4144C13.4502 32.2398 13.4064 32.0152 13.477 31.7984C13.5475 31.5815 13.7147 31.4256 13.936 31.3705L17.4129 30.5041C17.8886 30.3857 18.2933 30.0915 18.5528 29.676L20.4512 26.6369C20.5718 26.4438 20.7715 26.333 20.999 26.3326H21H21.0009C21.2285 26.3329 21.4281 26.4438 21.5488 26.6369L23.4472 29.6759C23.7066 30.0915 24.1115 30.3856 24.5871 30.5041L28.064 31.3705C28.2853 31.4256 28.4525 31.5815 28.523 31.7983C28.5935 32.0152 28.5498 32.2398 28.4032 32.4144L27.9738 32.9259C27.7549 33.1867 27.7888 33.5756 28.0496 33.7944C28.3104 34.0134 28.6992 33.9793 28.9181 33.7186L29.3476 33.207C29.7672 32.7071 29.8973 32.038 29.6956 31.4173C29.4938 30.7966 28.9953 30.3319 28.3621 30.1741L24.8852 29.3078C24.7216 29.267 24.5822 29.1658 24.4929 29.0227L22.5945 25.9837C22.5635 25.934 22.5298 25.8868 22.4949 25.8408C23.1186 25.3808 23.5243 24.6412 23.5243 23.8084C23.5243 22.9355 23.0788 22.1648 22.4033 21.7114L32.1674 15.2518C32.34 15.1377 32.4438 14.9445 32.4438 14.7377V4.99636C33.7565 4.92237 34.8019 3.83127 34.8019 2.50031ZM16.905 5.00063H25.0952V18.4524L21.0001 21.1615L16.905 18.4524V5.00063ZM21.0001 25.0998C20.288 25.0998 19.7087 24.5205 19.7087 23.8084C19.7087 23.0964 20.288 22.5171 21.0001 22.5171C21.7121 22.5171 22.2914 23.0964 22.2914 23.8084C22.2914 24.5205 21.7121 25.0998 21.0001 25.0998ZM31.2109 14.4064L26.328 17.6367V5.00063H31.2109V14.4064Z" fill="url(#paint0_linear)"/>
</g>
<defs>
<linearGradient id="paint0_linear" x1="7.19824" y1="0" x2="45.7522" y2="25.3388" gradientUnits="userSpaceOnUse">
<stop offset="0.34375" stop-color="#0086B5"/>
<stop offset="1" stop-color="#46AEF7"/>
</linearGradient>
<clipPath id="clip0">
<rect width="42" height="42" fill="white"/>
</clipPath>
</defs>
</svg>
