<svg width="49" height="49" viewBox="0 0 49 49" fill="none" xmlns="http://www.w3.org/2000/svg">
<g clip-path="url(#clip0)">
<path d="M48.4704 2.86171C48.4582 2.38253 48.3858 1.85281 47.941 1.55709C47.4326 1.21945 46.8464 1.4478 46.2795 1.66925C44.9181 2.20041 43.54 2.54561 41.9429 2.75577C41.5499 2.80745 41.2731 3.16796 41.3249 3.56102C41.3766 3.95397 41.7371 4.23094 42.1301 4.17897C43.845 3.9535 45.3293 3.58092 46.8015 3.00661C46.854 2.98613 46.943 2.95139 47.0359 2.91741C47.0642 4.10662 46.751 5.02709 46.0785 5.73089C44.9933 6.86651 42.9141 7.47097 39.8985 7.52734C39.5022 7.5348 39.1869 7.86211 39.1944 8.25851C39.2017 8.65032 39.5216 8.96279 39.9117 8.96279C39.9163 8.96279 39.9209 8.96279 39.9255 8.96269C41.6146 8.93111 43.0388 8.7398 44.2155 8.38503C44.2357 9.35833 43.9958 10.1338 43.4875 10.7379C43.1449 11.1452 42.6702 11.4825 42.0675 11.7494C42.0618 11.752 42.056 11.7543 42.0504 11.757C41.0037 12.2164 39.5725 12.4649 37.7691 12.498C37.3727 12.5052 37.0573 12.8324 37.0646 13.2289C37.0718 13.6208 37.3917 13.9334 37.782 13.9334C37.7865 13.9334 37.791 13.9334 37.7955 13.9333C39.3281 13.9053 40.6247 13.7327 41.6992 13.4126C41.6483 14.1005 41.4037 14.7313 40.9658 15.2954C40.008 16.5295 38.2863 17.2305 36.9404 17.4012C36.7774 17.0998 36.5935 16.8033 36.3892 16.5145C35.4689 15.21 34.0532 14.0947 32.601 13.5306C31.0139 12.917 29.6952 13.0369 28.9822 13.8599C28.3198 14.6277 28.3497 15.9139 28.6358 16.9909C28.0348 16.8951 27.4239 16.7852 26.8071 16.6626V11.0764C29.0365 10.6839 30.962 9.47088 32.2786 7.61338L32.3078 7.57232C34.12 5.05609 36.1513 4.70572 38.8231 4.48551C39.2182 4.45297 39.512 4.10624 39.4795 3.71118C39.4468 3.31611 39.1012 3.02154 38.7051 3.05484C35.8475 3.29037 33.306 3.72974 31.143 6.73329L31.1073 6.78325C30.0628 8.25688 28.5559 9.24263 26.807 9.61386V7.6685C27.9359 6.91857 28.6821 5.63557 28.6821 4.18098C28.6819 1.87559 26.8064 0 24.5011 0C22.1943 0 20.3175 1.87559 20.3175 4.18098C20.3175 5.635 21.0635 6.91761 22.1925 7.66764V9.61395C20.4504 9.2431 18.9447 8.25899 17.8956 6.78774L17.8571 6.73386C15.4949 3.45326 12.7474 3.24261 9.56601 2.99867C7.56151 2.84497 5.28952 2.67069 2.72276 1.66935C2.15534 1.44789 1.56858 1.21888 1.05915 1.55738C0.613654 1.85348 0.541207 2.38282 0.529053 2.86057C0.486848 4.43871 0.942299 5.73807 1.88306 6.72257C2.29411 7.15276 2.79253 7.5193 3.38034 7.8244C3.23994 9.38781 3.58619 10.678 4.41565 11.6633C4.80095 12.121 5.28234 12.5081 5.86354 12.8261C5.79148 14.0653 6.15056 15.223 6.9157 16.2013C8.10127 17.7173 9.99055 18.5014 11.475 18.7671C11.0957 19.952 11.0359 21.1495 11.3315 22.2057C11.8022 23.8874 13.0829 25.1918 15.1376 26.0825L18.8674 27.7013C17.7187 28.3111 16.7521 28.9754 15.9847 29.6855C15.6938 29.9547 15.6761 30.4089 15.9454 30.6998C16.0869 30.8528 16.2793 30.9301 16.4724 30.9301C16.6468 30.9301 16.8216 30.8669 16.9597 30.7392C17.8552 29.9105 19.0772 29.1415 20.5945 28.4508L22.6964 29.3631L21.0957 30.0581C18.6279 31.128 17.4666 32.2675 17.5455 33.5416C17.6226 34.7854 18.8995 35.8055 21.238 36.4914L22.6934 36.9189C22.6966 36.9199 22.6999 36.9208 22.7031 36.9218L29.8785 39.0293C32.2075 39.7121 33.63 41.1106 33.7813 42.8662C33.899 44.2334 33.19 45.5399 32.0168 46.117C30.8467 46.6928 30.0912 46.6845 29.8893 46.609C29.896 46.5103 29.9562 46.2081 30.381 45.617C31.3089 44.3302 31.6026 43.2436 31.2788 42.2955C30.9706 41.3932 30.1225 40.7309 28.7581 40.3269L20.0376 37.7409C19.8606 37.6884 19.4692 37.5575 19.4425 37.5501C16.6365 36.5811 15.1311 35.0138 15.3901 33.2913C15.449 32.8992 15.179 32.5337 14.787 32.4748C14.3931 32.4165 14.0294 32.686 13.9705 33.0779C13.6643 35.1148 14.8819 36.9354 17.2972 38.1925C15.2362 39.1803 13.954 40.8121 13.7876 42.7429C13.6192 44.6951 14.6484 46.5688 16.3485 47.4051C17.1324 47.7908 18.0403 48.082 18.8193 48.082C19.3921 48.0819 19.8955 47.9245 20.2285 47.5312C20.6067 47.0844 20.8365 46.2442 19.7825 44.7773C19.1556 43.9079 18.919 43.2292 19.0792 42.7603C19.265 42.2161 20.0367 41.885 20.6517 41.7031L22.1924 41.2463V46.6913C22.1924 47.9642 23.228 48.9998 24.501 48.9998C25.7724 48.9998 26.8067 47.9642 26.8067 46.6913V41.2455L28.3503 41.7032C28.9641 41.8849 29.7347 42.2156 29.9202 42.7594C30.0805 43.2286 29.8438 43.9075 29.216 44.7783C28.1628 46.2442 28.3925 47.0845 28.7708 47.5312C29.1037 47.9246 29.6068 48.0821 30.1799 48.0821C30.9589 48.0821 31.8668 47.7909 32.6507 47.4052C34.3507 46.569 35.3799 44.6954 35.2117 42.743C35.0449 40.8077 33.7569 39.1726 31.6875 38.1856C33.7344 37.0966 34.9135 35.5628 34.9844 33.8259C35.0753 31.6005 33.3567 29.4109 30.2117 27.6676L33.8642 26.0825C35.9179 25.1918 37.1976 23.8877 37.6681 22.2063C37.9639 21.1488 37.9036 19.9497 37.5234 18.7637C39.0195 18.4887 40.9214 17.6938 42.0997 16.1757C42.8534 15.2046 43.2067 14.056 43.1356 12.8268C43.718 12.5084 44.2001 12.1206 44.5859 11.6621C45.4149 10.6766 45.7605 9.38685 45.6193 7.8243C46.207 7.5193 46.7053 7.15276 47.1163 6.72267C48.057 5.73817 48.5126 4.43881 48.4704 2.86171ZM20.2442 40.3269C18.8782 40.7311 18.0292 41.3936 17.7209 42.2963C17.397 43.2443 17.6906 44.3306 18.6176 45.616C19.0429 46.2081 19.1031 46.5104 19.11 46.609C18.9083 46.6845 18.1526 46.6928 16.9824 46.1171C15.8093 45.54 15.1002 44.2335 15.218 42.8663C15.3694 41.1107 16.7919 39.7122 19.1241 39.0283L19.2367 38.9947C19.3657 39.0366 21.9765 39.8132 21.9765 39.8132L20.2442 40.3269ZM25.3713 46.6914C25.3713 47.1728 24.9809 47.5645 24.5011 47.5645C24.0197 47.5645 23.6281 47.1728 23.6281 46.6914V40.8209L24.5013 40.562L25.3713 40.8201V46.6914ZM29.3309 18.5466C29.7002 19.0575 30.31 19.6237 31.3024 19.9585C32.3123 20.2992 32.5899 20.6349 32.5956 20.765C32.6091 21.0734 31.8666 21.8412 30.1734 22.5832L26.8068 24.0589V18.1272C27.6638 18.2927 28.5083 18.4324 29.3309 18.5466ZM24.5011 1.43555C26.0148 1.43555 27.2464 2.66715 27.2464 4.18098C27.2464 5.69625 26.0149 6.9291 24.5011 6.9291C22.9858 6.9291 21.753 5.69625 21.753 4.18098C21.753 2.66715 22.9858 1.43555 24.5011 1.43555ZM24.5011 8.36455C24.7995 8.36455 25.0904 8.33249 25.3713 8.27277V10.4513V10.454V17.2449V17.2497V24.6882L24.4993 25.0705L23.6281 24.6885V17.2486C23.6281 17.2471 23.6281 17.2457 23.6281 17.2443V10.454C23.6281 10.4531 23.6281 10.4522 23.6281 10.4513V8.27229C23.9098 8.3323 24.2017 8.36455 24.5011 8.36455ZM19.6684 18.5464C20.5003 18.4311 21.3451 18.2918 22.1925 18.1279V24.0592L18.8261 22.5834C17.1341 21.8411 16.3921 21.073 16.4057 20.7646C16.4115 20.6347 16.6887 20.2991 17.6963 19.9588C18.688 19.6253 19.2981 19.059 19.6684 18.5464ZM8.04663 15.317C7.60046 14.7465 7.35154 14.1085 7.30043 13.4125C8.37489 13.7328 9.67167 13.9054 11.2044 13.9335C11.2089 13.9336 11.2133 13.9336 11.2178 13.9336C11.6081 13.9336 11.9281 13.6208 11.9352 13.229C11.9424 12.8326 11.6271 12.5054 11.2308 12.4982C8.37613 12.4459 6.45279 11.8541 5.51423 10.739C5.00566 10.1348 4.76526 9.3591 4.78487 8.38532C5.96135 8.73999 7.38551 8.93111 9.07419 8.96279C9.07879 8.96288 9.08338 8.96288 9.08797 8.96288C9.47816 8.96288 9.798 8.65022 9.80536 8.25861C9.81273 7.8622 9.49739 7.5349 9.10118 7.52743C6.08558 7.47106 4.00643 6.8667 2.92125 5.73099C2.24874 5.02719 1.93551 4.10662 1.96393 2.91655C2.05781 2.95072 2.14816 2.98603 2.20118 3.00671C4.96671 4.08576 7.35182 4.26865 9.45614 4.43C12.5119 4.66428 14.7197 4.83358 16.6942 7.57567L16.7268 7.62122C18.0484 9.47451 19.9718 10.6848 22.1925 11.0766V16.6634C21.5808 16.7853 20.9702 16.895 20.3641 16.9914C20.6502 15.9151 20.6803 14.6285 20.0177 13.8605C19.3069 13.0359 17.9885 12.9159 16.4006 13.5311C14.948 14.0943 13.5311 15.2097 12.6104 16.5148C12.4058 16.8039 12.2218 17.1009 12.0587 17.4028C10.7265 17.2437 9.01313 16.5529 8.04663 15.317ZM25.3713 30.5241V35.6977L24.5005 35.9537L23.6281 35.6975V30.5238L24.499 30.1456L25.3713 30.5241ZM27.3325 31.3754C29.3553 32.2523 30.0475 33.0237 30.0209 33.453C29.9933 33.8991 29.1588 34.5858 27.3567 35.1143L26.8068 35.2759V31.1472L27.3325 31.3754ZM18.9784 33.453C18.9519 33.0236 19.6441 32.2523 21.6672 31.3753L22.1925 31.1472V35.2758L21.6424 35.1142C19.8405 34.5857 19.0061 33.899 18.9784 33.453ZM33.5501 33.7675C33.4884 35.2744 32.0992 36.6226 29.7274 37.4873L27.0486 36.7011L27.7612 36.4917C30.0999 35.8057 31.3767 34.7856 31.4538 33.5417C31.5327 32.2676 30.3714 31.1281 27.9039 30.0584L15.7089 24.7655C14.0702 24.0552 13.0625 23.0638 12.7141 21.8189C12.3416 20.4879 12.7412 18.8148 13.7829 17.3431C13.7832 17.3428 13.7834 17.3425 13.7836 17.3422C14.5477 16.2589 15.72 15.3345 16.9195 14.8695C17.8346 14.515 18.6614 14.4854 18.9307 14.7979C19.2766 15.1989 19.1277 16.6054 18.6475 17.4824C18.4486 17.8421 18.0427 18.3276 17.238 18.5983C15.7737 19.0926 15.0111 19.8003 14.9716 20.7014C14.909 22.1272 16.7196 23.2267 18.2496 23.8978L27.9416 28.147C31.5328 29.7207 33.6295 31.8218 33.5501 33.7675ZM36.2857 21.8195C35.9374 23.0643 34.9306 24.0554 33.2929 24.7657L28.5242 26.8352C28.5221 26.8342 28.52 26.8332 28.5179 26.8323L26.287 25.8542L30.7495 23.8979C32.2804 23.2271 34.0922 22.1282 34.0296 20.702C33.9901 19.8005 33.2269 19.0928 31.7611 18.5983C30.9562 18.3268 30.5505 17.8416 30.3534 17.4852C29.8718 16.6054 29.7228 15.1989 30.0678 14.7991C30.3428 14.4818 31.1526 14.5101 32.082 14.8694C33.2803 15.3348 34.4519 16.2593 35.2166 17.3432C36.2584 18.815 36.658 20.4884 36.2857 21.8195Z" fill="url(#paint0_linear)"/>
</g>
<defs>
<linearGradient id="paint0_linear" x1="0.526367" y1="0" x2="49.5146" y2="47.9354" gradientUnits="userSpaceOnUse">
<stop offset="0.34375" stop-color="#0086B5"/>
<stop offset="1" stop-color="#46AEF7"/>
</linearGradient>
<clipPath id="clip0">
<rect width="49" height="49" fill="white"/>
</clipPath>
</defs>
</svg>
