<svg width="49" height="49" viewBox="0 0 49 49" fill="none" xmlns="http://www.w3.org/2000/svg">
<g clip-path="url(#clip0)">
<path d="M48.2822 40.003C46.1361 40.003 45.0046 40.5493 44.0063 41.0314C43.0632 41.4868 42.1722 41.917 40.3545 41.917C38.5368 41.917 37.6459 41.4868 36.7028 41.0314C35.7044 40.5493 34.5729 40.003 32.4267 40.003C30.2807 40.003 29.1493 40.5493 28.1509 41.0314C27.2078 41.4868 26.3169 41.917 24.4993 41.917C22.6818 41.917 21.791 41.4868 20.848 41.0314C19.8497 40.5493 18.7183 40.003 16.5722 40.003C14.4262 40.003 13.2947 40.5493 12.2964 41.0314C11.3534 41.4868 10.4626 41.917 8.64496 41.917C6.82737 41.917 5.93656 41.4868 4.9935 41.0314C3.99522 40.5493 2.86382 40.003 0.717773 40.003C0.321275 40.003 0 40.3242 0 40.7207C0 41.1172 0.321275 41.4385 0.717773 41.4385C2.53527 41.4385 3.42608 41.8687 4.36913 42.3241C5.36741 42.8062 6.49891 43.3526 8.64496 43.3526C10.791 43.3526 11.9225 42.8062 12.9208 42.3241C13.8638 41.8687 14.7546 41.4385 16.5722 41.4385C18.3897 41.4385 19.2805 41.8687 20.2236 42.3241C21.2219 42.8062 22.3533 43.3526 24.4993 43.3526C26.6455 43.3526 27.7769 42.8062 28.7752 42.3241C29.7183 41.8687 30.6091 41.4385 32.4267 41.4385C34.2444 41.4385 35.1354 41.8687 36.0785 42.3241C37.0768 42.8062 38.2083 43.3526 40.3545 43.3526C42.5007 43.3526 43.6322 42.8062 44.6306 42.3241C45.5736 41.8687 46.4645 41.4385 48.2822 41.4385C48.6787 41.4385 49 41.1172 49 40.7207C49 40.3242 48.6787 40.003 48.2822 40.003ZM48.2822 28.5186C46.1361 28.5186 45.0046 29.065 44.0063 29.547C43.0632 30.0025 42.1722 30.4327 40.3545 30.4327C38.5368 30.4327 37.6459 30.0025 36.7028 29.547C35.9102 29.1643 35.0331 28.7414 33.6315 28.5832C34.683 27.5871 35.5571 26.4323 36.2283 25.1703C37.1918 25.6329 38.3148 26.126 40.3542 26.126C42.5004 26.126 43.6319 25.5796 44.6303 25.0976C45.5735 24.6421 46.4644 24.212 48.2822 24.212C48.6787 24.212 49 23.8907 49 23.4942C49 23.0977 48.6787 22.7764 48.2822 22.7764C46.136 22.7764 45.0045 23.3228 44.0061 23.8048C43.0629 24.2603 42.172 24.6905 40.3542 24.6905C38.6207 24.6905 37.73 24.2992 36.833 23.8681C37.4536 22.3188 37.7865 20.647 37.7865 18.933C37.7865 11.5008 31.6982 5.64746 24.5 5.64746C17.2658 5.64746 11.2135 11.5375 11.2135 18.933C11.2135 20.6468 11.5463 22.3184 12.1669 23.8676C11.2698 24.299 10.3793 24.6906 8.64486 24.6906C6.82775 24.6906 5.93694 24.2605 4.99398 23.805C3.9957 23.3229 2.8642 22.7764 0.717773 22.7764C0.321275 22.7764 0 23.0977 0 23.4942C0 23.8907 0.321275 24.212 0.717773 24.212C2.53565 24.212 3.42655 24.6421 4.36971 25.0977C5.36789 25.5796 6.4992 26.126 8.64486 26.126C10.6852 26.126 11.8083 25.6325 12.7717 25.1697C13.4431 26.4318 14.3177 27.5867 15.3694 28.583C13.9668 28.741 13.0893 29.1642 12.2964 29.5471C11.3534 30.0026 10.4626 30.4327 8.64496 30.4327C6.82737 30.4327 5.93656 30.0026 4.9935 29.5471C3.99522 29.065 2.86382 28.5186 0.717773 28.5186C0.321275 28.5186 0 28.8399 0 29.2364C0 29.6329 0.321275 29.9541 0.717773 29.9541C2.53527 29.9541 3.42608 30.3843 4.36913 30.8398C5.36741 31.3218 6.49891 31.8682 8.64496 31.8682C10.791 31.8682 11.9225 31.3218 12.9208 30.8398C13.8638 30.3843 14.7546 29.9541 16.5722 29.9541C18.3897 29.9541 19.2805 30.3843 20.2236 30.8398C21.2219 31.3218 22.3533 31.8682 24.4993 31.8682C26.6455 31.8682 27.7769 31.3218 28.7752 30.8398C29.7183 30.3843 30.6091 29.9541 32.4267 29.9541C34.2444 29.9541 35.1354 30.3843 36.0785 30.8398C37.0768 31.3218 38.2083 31.8682 40.3545 31.8682C42.5007 31.8682 43.6322 31.3218 44.6306 30.8398C45.5736 30.3843 46.4645 29.9541 48.2822 29.9541C48.6787 29.9541 49 29.6329 49 29.2364C49 28.8399 48.6787 28.5186 48.2822 28.5186ZM36.096 16.4846C34.7625 15.2432 33.2263 14.2491 31.5663 13.5657C30.2133 13.0088 28.785 12.6556 27.3155 12.5126C26.972 11.9747 26.4661 11.5288 25.8566 11.2279C26.1548 10.759 26.5026 10.3262 26.8985 9.93697C27.6589 9.18963 28.5942 8.6089 29.6169 8.24551C32.8868 9.81725 35.3284 12.846 36.096 16.4846ZM26.3684 14.1572C26.3684 15.2134 25.3163 16.0726 24.023 16.0726C22.8956 16.0726 21.6776 15.3512 21.6776 14.1572C21.6776 12.9465 22.857 12.2417 24.023 12.2417C25.2606 12.2418 26.3684 13.0175 26.3684 14.1572ZM24.5 7.08301C25.6208 7.08301 26.7057 7.23948 27.734 7.53157C27.0604 7.91132 26.4388 8.37615 25.8922 8.91333C25.3163 9.47941 24.8251 10.1215 24.4241 10.8254C24.2922 10.8129 24.1584 10.8063 24.0229 10.8063C23.5365 10.8063 23.0716 10.8891 22.6441 11.038C22.3063 10.4538 21.906 9.90931 21.4487 9.41347C20.967 8.89122 20.4297 8.43156 19.8445 8.03631C21.2745 7.42314 22.8483 7.08301 24.5 7.08301ZM18.3491 8.80748C19.118 9.21814 19.8045 9.74805 20.3937 10.3867C20.7772 10.8026 21.1133 11.2594 21.3973 11.7495C21.0939 12.0095 20.8395 12.3138 20.6473 12.6507C18.8354 12.823 17.044 13.3501 15.4412 14.1863C14.6037 14.6232 13.8177 15.14 13.0889 15.7309C13.9084 12.8149 15.8183 10.3504 18.3491 8.80748ZM12.6491 18.933C12.6491 18.6445 12.66 18.3586 12.6804 18.0752C13.6691 17.0093 14.8201 16.1296 16.1052 15.4591C17.3853 14.7913 18.7999 14.3432 20.2426 14.1432C20.2426 14.1479 20.2422 14.1526 20.2422 14.1573C20.2422 14.905 20.5201 15.5963 20.989 16.1544C19.8205 17.6476 18.8653 19.285 18.1466 21.0315C17.259 23.1884 16.749 25.4546 16.6224 27.786C14.1126 25.5498 12.6491 22.3335 12.6491 18.933ZM31.4036 28.5644C31.0782 28.5948 30.7798 28.6392 30.5044 28.6942C30.1407 26.4897 29.5561 24.3284 28.7615 22.2588C28.6194 21.8889 28.2046 21.7042 27.8341 21.8461C27.464 21.9882 27.2792 22.4034 27.4213 22.7734C28.2029 24.8089 28.7722 26.9377 29.1176 29.1091C28.7671 29.2497 28.4528 29.4013 28.151 29.547C27.2079 30.0025 26.317 30.4327 24.4994 30.4327C22.6819 30.4327 21.7911 30.0025 20.8481 29.547C20.1043 29.1878 19.2863 28.7932 18.0301 28.6152C18.0697 26.1799 18.5536 23.8152 19.4742 21.5777C20.1416 19.956 21.0284 18.435 22.1131 17.0474C22.6741 17.3398 23.3267 17.5082 24.0232 17.5082C24.2756 17.5082 24.5222 17.4857 24.7609 17.4437C25.2368 18.2059 25.6837 18.99 26.0888 19.7836C26.2711 20.1407 26.7075 20.2736 27.0545 20.0964C27.4075 19.9161 27.5476 19.4838 27.3674 19.1307C26.9882 18.3881 26.5756 17.6523 26.1365 16.9347C27.1846 16.3086 27.856 15.2208 27.8001 14.0178C28.9099 14.1771 29.9895 14.4693 31.0201 14.8934C33.5637 15.9403 35.3023 17.5791 36.3498 18.836C36.381 22.6858 34.5316 26.3191 31.4036 28.5644ZM0.717773 35.6963C2.53527 35.6963 3.42608 36.1265 4.36913 36.582C5.36741 37.064 6.49891 37.6104 8.64496 37.6104C9.04146 37.6104 9.36273 37.2891 9.36273 36.8926C9.36273 36.4961 9.04146 36.1748 8.64496 36.1748C6.82737 36.1748 5.93656 35.7447 4.9935 35.2892C3.99522 34.8071 2.86382 34.2608 0.717773 34.2608C0.321275 34.2608 0 34.5821 0 34.9785C0 35.375 0.321275 35.6963 0.717773 35.6963ZM48.2822 34.2608C46.1361 34.2608 45.0046 34.8071 44.0063 35.2892C43.0632 35.7447 42.1722 36.1748 40.3545 36.1748C38.5368 36.1748 37.6459 35.7447 36.7028 35.2892C35.7044 34.8071 34.5729 34.2608 32.4267 34.2608C30.2807 34.2608 29.1493 34.8071 28.1509 35.2892C27.2078 35.7447 26.3169 36.1748 24.4993 36.1748C22.6818 36.1748 21.791 35.7447 20.848 35.2892C19.8497 34.8071 18.7183 34.2608 16.5722 34.2608C14.426 34.2608 13.2945 34.8072 12.2962 35.2893C12.0738 35.3967 11.8636 35.4982 11.6427 35.5947C11.2794 35.7533 11.1134 36.1764 11.2721 36.5397C11.4307 36.903 11.854 37.0689 12.2171 36.9102C12.4632 36.8027 12.6957 36.6905 12.9205 36.582C13.8637 36.1264 14.7545 35.6962 16.5722 35.6962C18.3897 35.6962 19.2805 36.1264 20.2236 36.5819C21.2219 37.0639 22.3533 37.6103 24.4993 37.6103C26.6455 37.6103 27.7769 37.0639 28.7752 36.5819C29.7183 36.1264 30.6091 35.6962 32.4267 35.6962C34.2444 35.6962 35.1354 36.1264 36.0785 36.5819C37.0768 37.0639 38.2083 37.6103 40.3545 37.6103C42.5007 37.6103 43.6322 37.0639 44.6306 36.5819C45.5736 36.1264 46.4645 35.6962 48.2822 35.6962C48.6787 35.6962 49 35.375 49 34.9785C49 34.582 48.6787 34.2608 48.2822 34.2608Z" fill="url(#paint0_linear)"/>
</g>
<defs>
<linearGradient id="paint0_linear" x1="0" y1="5.64746" x2="36.4468" y2="53.0122" gradientUnits="userSpaceOnUse">
<stop offset="0.34375" stop-color="#0086B5"/>
<stop offset="1" stop-color="#46AEF7"/>
</linearGradient>
<clipPath id="clip0">
<rect width="49" height="49" fill="white"/>
</clipPath>
</defs>
</svg>
