<svg width="50" height="49" viewBox="0 0 50 49" fill="none" xmlns="http://www.w3.org/2000/svg">
<path d="M17.1719 38.7419C16.7674 38.7419 16.4395 39.0633 16.4395 39.4597V42.5283C16.4395 42.9247 16.7674 43.2461 17.1719 43.2461C17.5764 43.2461 17.9043 42.9247 17.9043 42.5283V39.4597C17.9043 39.0633 17.5764 38.7419 17.1719 38.7419Z" fill="url(#paint0_linear)"/>
<path d="M32.8281 38.7419C32.4236 38.7419 32.0957 39.0633 32.0957 39.4597V42.5283C32.0957 42.9247 32.4236 43.2461 32.8281 43.2461C33.2326 43.2461 33.5605 42.9247 33.5605 42.5283V39.4597C33.5605 39.0633 33.2326 38.7419 32.8281 38.7419Z" fill="url(#paint1_linear)"/>
<path d="M11.2363 23.4745C9.53554 22.6412 6.34678 22.6316 6.21182 22.6316C5.80742 22.6316 5.47959 22.9528 5.47949 23.3492C5.47939 23.7455 5.80713 24.0669 6.21162 24.0671C7.03564 24.0676 9.42675 24.1928 10.5812 24.7585C10.6864 24.8101 10.7981 24.8344 10.9082 24.8344C11.1768 24.8344 11.4355 24.6889 11.5639 24.4375C11.7448 24.0829 11.5981 23.6518 11.2363 23.4745Z" fill="url(#paint2_linear)"/>
<path d="M3.86328 37.2075C3.45879 37.2075 3.13086 37.5289 3.13086 37.9253V42.5283C3.13086 42.9247 3.45879 43.2461 3.86328 43.2461C4.26777 43.2461 4.5957 42.9247 4.5957 42.5283V37.9253C4.5957 37.529 4.26787 37.2075 3.86328 37.2075Z" fill="url(#paint3_linear)"/>
<path d="M48.2968 34.5268L45.3308 33.0737C45.3136 33.0653 45.3028 33.0482 45.3028 33.0295L45.303 31.5686C46.5206 30.747 47.3824 29.4481 47.5981 27.9237C48.1457 26.9963 48.4343 25.9487 48.4343 24.8835C48.4343 22.8972 47.4583 21.1303 45.952 20.0185C46.0402 19.7303 46.0858 19.4331 46.0858 19.1298C46.0858 17.2534 44.3526 15.7269 42.2222 15.7269C40.0918 15.7269 38.3585 17.2534 38.3585 19.1298C38.3585 19.4334 38.4036 19.7308 38.4919 20.0188C37.5938 20.6818 36.8856 21.5783 36.4592 22.6148C36.2777 20.8664 36.0886 18.7995 35.9073 16.3918C35.668 13.215 34.5022 10.5323 32.536 8.63375C30.5847 6.74955 27.9788 5.75366 25 5.75366C22.0211 5.75366 19.4152 6.74955 17.4641 8.63365C15.4979 10.5323 14.3321 13.215 14.0928 16.3917C14.0293 17.2351 13.9648 18.0346 13.9001 18.7955H6.99501C4.4329 18.7955 2.34843 20.8383 2.34843 23.3491V23.3919C2.34843 23.9767 2.48945 24.5623 2.75634 25.0853L3.13124 25.8202V26.9921C3.13124 28.8493 4.06513 30.5157 5.47968 31.5186V32.5553C5.47968 32.6882 5.38856 32.8065 5.25819 32.8431L2.23447 33.6897C0.918846 34.058 0 35.2518 0 36.5927V42.5283C0 42.9247 0.327929 43.2461 0.732421 43.2461C1.13691 43.2461 1.46484 42.9247 1.46484 42.5283V36.5927C1.46484 35.8893 1.94687 35.2631 2.63691 35.0699L5.66073 34.2232C5.76981 34.1927 5.87343 34.1512 5.97206 34.102L7.82821 35.921V42.5283C7.82821 42.9247 8.15614 43.2461 8.56063 43.2461C8.96512 43.2461 9.29305 42.9247 9.29305 42.5283V35.921L11.1622 34.0893C11.412 34.2094 11.6609 34.2793 11.8433 34.3304L12.5858 34.5382C11.5797 35.2394 10.9595 36.3829 10.9595 37.6229V42.5281C10.9595 42.9245 11.2875 43.2459 11.692 43.2459C12.0965 43.2459 12.4244 42.9245 12.4244 42.5281V37.6229C12.4244 36.6925 12.9856 35.8484 13.8542 35.4725L18.0417 33.66C19.3539 36.2352 22.0353 37.8758 25.0001 37.8758C27.9758 37.8758 30.6483 36.2389 31.9597 33.6605L36.1459 35.4725C37.0145 35.8484 37.5757 36.6925 37.5757 37.6229V42.5281C37.5757 42.9245 37.9036 43.2459 38.3081 43.2459C38.7126 43.2459 39.0406 42.9245 39.0406 42.5281V37.6229C39.0406 36.7048 38.7 35.8398 38.1156 35.1674L39.249 34.612L40.0999 35.4044C40.695 35.9588 41.4585 36.2357 42.2223 36.2357C42.9858 36.2357 43.7496 35.9586 44.3445 35.4044L45.1953 34.6121L47.6418 35.8108C48.1929 36.0808 48.5352 36.6236 48.5352 37.2274V42.5282C48.5352 42.9246 48.8631 43.246 49.2676 43.246C49.6721 43.246 50 42.9246 50 42.5282V37.2274C49.9999 36.0765 49.3473 35.0416 48.2968 34.5268ZM42.2221 17.1623C43.5447 17.1623 44.6209 18.0449 44.6209 19.1297C44.6209 19.1751 44.6172 19.2202 44.6135 19.2652C43.877 18.963 43.0692 18.7955 42.2221 18.7955C41.3751 18.7955 40.5674 18.963 39.8311 19.2651C39.8273 19.2201 39.8233 19.1751 39.8233 19.1297C39.8233 18.0449 40.8994 17.1623 42.2221 17.1623ZM8.56073 34.6088L6.89178 32.9732C6.92626 32.8385 6.94471 32.6983 6.94471 32.5552V32.2524C7.40545 32.4006 7.89139 32.4886 8.39422 32.5033C8.45057 32.505 8.50662 32.5058 8.56278 32.5058C9.11824 32.5058 9.66053 32.4236 10.1765 32.2667V32.5549C10.1765 32.7106 10.1929 32.8519 10.2219 32.9809L8.56073 34.6088ZM8.43817 31.0682C6.31962 31.0061 4.59609 29.1774 4.59609 26.9921V25.6507C4.59609 25.5393 4.56962 25.4293 4.51874 25.3297L4.0665 24.4433C3.90087 24.1185 3.81327 23.755 3.81327 23.3919V23.3491C3.81327 21.6298 5.24061 20.231 6.99501 20.231H13.3081V23.2107C13.3081 23.6922 13.192 24.1745 12.9721 24.6051L12.6025 25.3296C12.5516 25.4293 12.5252 25.5392 12.5252 25.6506V27.1849C12.5252 28.2447 12.0976 29.235 11.3213 29.9733C10.5453 30.7112 9.52078 31.1004 8.43817 31.0682ZM14.5595 33.5979L12.2458 32.95C11.6413 32.7808 11.6414 32.7148 11.6414 32.5551L11.6416 31.5662C11.8876 31.3992 12.1221 31.2123 12.3416 31.0035C12.4892 30.8631 12.6267 30.7154 12.7556 30.5623C12.8733 30.7962 13.0537 31.0005 13.2868 31.1483C13.8739 31.5209 14.9818 32.1398 16.6111 32.7098L14.5595 33.5979ZM25 36.4403C22.6169 36.4403 20.4587 35.1349 19.3825 33.0797L20.4486 32.6182C21.2806 32.2581 21.8182 31.4495 21.8182 30.5581V28.8359C22.8023 29.2234 23.8761 29.4371 25 29.4371C26.1238 29.4371 27.1975 29.2234 28.1817 28.8359V30.5581C28.1817 31.4495 28.7193 32.2582 29.5513 32.6182L30.6172 33.0796C29.5417 35.1371 27.3918 36.4403 25 36.4403ZM31.3509 31.8278L30.1431 31.305C29.8414 31.1745 29.6465 30.8812 29.6465 30.558V28.0903C32.0002 26.5938 33.5607 23.996 33.5607 21.0476V19.7017C33.5607 18.827 33.1812 18.0018 32.5195 17.4379C31.0479 16.1837 27.7167 13.9948 21.9416 13.4288C21.5401 13.3894 21.1801 13.6771 21.1399 14.0717C21.0997 14.4662 21.3933 14.8179 21.7959 14.8573C27.1674 15.3837 30.2179 17.3788 31.5582 18.5212C31.8999 18.8123 32.0958 19.2427 32.0958 19.7017V21.0476C32.0958 24.8819 28.9126 28.0014 25.0001 28.0014C21.0875 28.0014 17.9043 24.8819 17.9043 21.0476V20.4471C17.9043 20.1713 18.0603 19.9187 18.3216 19.7712C19.2374 19.2545 20.445 18.2973 20.998 16.6715C21.1259 16.2955 20.9185 15.889 20.5347 15.7636C20.1511 15.6382 19.7362 15.8415 19.6083 16.2176C19.2008 17.4154 18.2862 18.1347 17.5907 18.5271C16.8805 18.9278 16.4393 19.6636 16.4393 20.4472V21.0477C16.4393 23.9962 17.9997 26.5939 20.3535 28.0904V30.5581C20.3535 30.8813 20.1586 31.1745 19.8569 31.3051L18.649 31.8279C16.29 31.2094 14.7785 30.3847 14.0829 29.9434C14.069 29.9346 14.0612 29.9246 14.0651 29.9019C14.3206 28.422 14.977 24.1531 15.5538 16.4975C15.7665 13.6728 16.7826 11.307 18.4922 9.65614C20.1636 8.0423 22.4139 7.18921 25 7.18921C27.586 7.18921 29.8363 8.0423 31.5077 9.65614C33.2173 11.307 34.2334 13.6727 34.4462 16.4974C35.0229 24.1527 35.6793 28.4218 35.9349 29.9018C35.9388 29.9246 35.931 29.9346 35.917 29.9434C35.2204 30.3853 33.7089 31.2095 31.3509 31.8278ZM39.1412 33.0294C39.1412 33.0482 39.1306 33.0652 39.1134 33.0736L36.8187 34.198C36.7914 34.1855 36.7653 34.1714 36.7377 34.1594L33.389 32.71C35.0175 32.1402 36.1252 31.5216 36.7131 31.1485C37.2182 30.828 37.4797 30.2448 37.3792 29.6625C37.3738 29.6306 37.3678 29.5957 37.3619 29.5612C37.7739 30.373 38.3898 31.0615 39.1412 31.5686V33.0294ZM43.3352 34.364C42.7111 34.9455 41.7331 34.9454 41.1088 34.364L40.428 33.73C40.5429 33.5191 40.606 33.2798 40.606 33.0294V32.2656C41.1175 32.4211 41.6601 32.5057 42.222 32.5057C42.7838 32.5057 43.3265 32.4211 43.8379 32.2656L43.8378 33.0292C43.8378 33.2798 43.9009 33.5191 44.0158 33.7301L43.3352 34.364ZM42.2221 31.0701C40.1942 31.0701 38.5004 29.5819 38.2823 27.6084C38.2706 27.5026 38.2352 27.4008 38.1783 27.3101C37.718 26.5754 37.4747 25.7362 37.4747 24.8833C37.4747 22.3181 39.6043 20.231 42.2221 20.231C44.8398 20.231 46.9694 22.3181 46.9694 24.8834C46.9694 25.3779 46.8871 25.8677 46.7286 26.3353C44.6489 24.2648 40.9905 23.4533 40.8141 23.4153C40.5975 23.3685 40.3707 23.4205 40.1977 23.5567C40.0247 23.693 39.924 23.8987 39.924 24.1162C39.924 24.1209 39.8906 24.6188 39.3558 25.143C39.0697 25.4233 39.0697 25.8778 39.3558 26.158C39.6418 26.4383 40.1056 26.4383 40.3915 26.158C40.8034 25.7543 41.0454 25.3446 41.1874 24.9987C42.4198 25.3575 44.9777 26.2636 46.1257 27.8541C45.7999 29.7039 44.1648 31.0701 42.2221 31.0701Z" fill="url(#paint4_linear)"/>
<path d="M46.1367 38.156C45.7322 38.156 45.4043 38.4774 45.4043 38.8738V42.5284C45.4043 42.9248 45.7322 43.2462 46.1367 43.2462C46.5412 43.2462 46.8691 42.9248 46.8691 42.5284V38.8738C46.8691 38.4774 46.5412 38.156 46.1367 38.156Z" fill="url(#paint5_linear)"/>
<defs>
<linearGradient id="paint0_linear" x1="16.4395" y1="38.7419" x2="19.0889" y2="39.6036" gradientUnits="userSpaceOnUse">
<stop offset="0.34375" stop-color="#0086B5"/>
<stop offset="1" stop-color="#46AEF7"/>
</linearGradient>
<linearGradient id="paint1_linear" x1="32.0957" y1="38.7419" x2="34.7452" y2="39.6036" gradientUnits="userSpaceOnUse">
<stop offset="0.34375" stop-color="#0086B5"/>
<stop offset="1" stop-color="#46AEF7"/>
</linearGradient>
<linearGradient id="paint2_linear" x1="5.47949" y1="22.6316" x2="6.87597" y2="26.538" gradientUnits="userSpaceOnUse">
<stop offset="0.34375" stop-color="#0086B5"/>
<stop offset="1" stop-color="#46AEF7"/>
</linearGradient>
<linearGradient id="paint3_linear" x1="3.13086" y1="37.2075" x2="5.89772" y2="37.8787" gradientUnits="userSpaceOnUse">
<stop offset="0.34375" stop-color="#0086B5"/>
<stop offset="1" stop-color="#46AEF7"/>
</linearGradient>
<linearGradient id="paint4_linear" x1="0" y1="5.75366" x2="35.9907" y2="53.7509" gradientUnits="userSpaceOnUse">
<stop offset="0.34375" stop-color="#0086B5"/>
<stop offset="1" stop-color="#46AEF7"/>
</linearGradient>
<linearGradient id="paint5_linear" x1="45.4043" y1="38.156" x2="48.1099" y2="38.9346" gradientUnits="userSpaceOnUse">
<stop offset="0.34375" stop-color="#0086B5"/>
<stop offset="1" stop-color="#46AEF7"/>
</linearGradient>
</defs>
</svg>
