<svg width="49" height="49" viewBox="0 0 49 49" fill="none" xmlns="http://www.w3.org/2000/svg">
<path d="M27.8024 9.18754H29.8597V7.65629H27.8024C27.0984 7.65817 26.4011 7.52042 25.7507 7.25101C25.1003 6.9816 24.5098 6.58588 24.0133 6.08676L22.7447 4.81812L21.6621 5.90071L22.9308 7.16935C23.5689 7.81126 24.3281 8.32016 25.1644 8.66659C26.0006 9.01302 26.8973 9.19009 27.8024 9.18754Z" fill="url(#paint0_linear)"/>
<path d="M42.8315 36.4951L38.6734 24.7129C38.2422 23.4432 37.4366 22.3339 36.3627 21.531C35.3908 20.8158 34.2755 20.3195 33.0935 20.0763L33.1938 19.6743C34.0394 16.312 34.1797 12.8111 33.6057 9.39197L33.572 9.19444C33.1122 6.46034 31.7422 3.96178 29.6842 2.10399L29.6214 2.04733C28.2173 0.779185 26.3925 0.0771484 24.5005 0.0771484C22.6085 0.0771484 20.7838 0.779185 19.3796 2.04733L19.3168 2.10399C17.258 3.96152 15.8876 6.46055 15.4282 9.1952L14.8923 12.4208C14.6633 13.7934 14.5478 15.1827 14.547 16.5743V20.4828C13.8677 20.7477 13.2258 21.1001 12.6375 21.531C11.5633 22.3339 10.7577 23.4436 10.3269 24.7137L6.16876 36.4951C6.11203 36.6556 6.11041 36.8305 6.16417 36.992L9.29481 46.3831C9.54827 47.1456 10.0356 47.8089 10.6874 48.2786C11.3393 48.7484 12.1227 49.0008 12.9262 49H19.1407C19.3438 49 19.5385 48.9194 19.6821 48.7758C19.8257 48.6322 19.9064 48.4375 19.9064 48.2344V47.563C19.9064 47.2702 19.873 46.9784 19.8068 46.6932C21.3252 47.2092 22.9179 47.473 24.5216 47.4742C25.0544 47.4744 25.5868 47.4448 26.1164 47.3853L25.9464 45.861C23.1112 46.1715 20.2521 45.5484 17.8032 44.0863H17.7971L18.6148 42.0413C18.8028 41.5748 18.8964 41.0756 18.8902 40.5727C18.884 40.0697 18.7782 39.573 18.5788 39.1112L17.5995 36.8266C18.504 37.084 19.456 37.1277 20.3802 36.9542C21.3045 36.7807 22.1757 36.3947 22.9252 35.8267L24.5001 34.6446L26.0758 35.8252C26.8249 36.3936 27.696 36.7799 28.6202 36.9537C29.5443 37.1275 30.4963 37.084 31.4007 36.8266L30.4207 39.112C30.2212 39.5738 30.1154 40.0705 30.1094 40.5735C30.1033 41.0765 30.1972 41.5756 30.3855 42.042L31.2032 44.087H31.1963C30.0172 44.7956 28.7331 45.3124 27.3919 45.6183L27.7334 47.1112C28.2265 46.9989 28.7133 46.8606 29.1919 46.697C29.1266 46.9811 29.0937 47.2715 29.0939 47.563V48.2344C29.0939 48.4375 29.1745 48.6322 29.3181 48.7758C29.4617 48.9194 29.6564 49 29.8595 49H36.0741C36.8776 49.0008 37.6609 48.7484 38.3128 48.2786C38.9647 47.8089 39.452 47.1456 39.7054 46.3831L42.8353 36.992C42.8893 36.8305 42.888 36.6557 42.8315 36.4951ZM26.0704 27.9729L24.9488 29.0938H24.0515L22.9306 27.9729C22.5724 27.614 22.1651 27.3078 21.7209 27.0634L22.0333 22.9451L22.5891 23.7796C22.7989 24.0942 23.0831 24.3521 23.4164 24.5305C23.7498 24.7089 24.122 24.8022 24.5001 24.8022C24.8782 24.8022 25.2505 24.7089 25.5838 24.5305C25.9172 24.3521 26.2014 24.0942 26.4111 23.7796L27.9722 21.4375H29.8595V26.4026C29.1554 26.4006 28.458 26.5384 27.8076 26.808C27.1571 27.0775 26.5667 27.4735 26.0704 27.9729ZM24.0752 18.1637C24.201 18.2477 24.3489 18.2925 24.5001 18.2925C24.6514 18.2925 24.7992 18.2477 24.925 18.1637L26.2266 17.297L26.7625 20.4989L25.1417 22.9298C25.0688 23.0305 24.9731 23.1125 24.8624 23.169C24.7516 23.2256 24.6291 23.2551 24.5047 23.2551C24.3804 23.2551 24.2578 23.2256 24.1471 23.169C24.0364 23.1125 23.9406 23.0305 23.8677 22.9298L22.2469 20.4989L22.7828 17.297L24.0752 18.1637ZM16.0782 16.5743C16.0784 15.2661 16.1864 13.9601 16.4013 12.6696L16.9373 9.44403C17.3398 7.05272 18.5382 4.86745 20.3382 3.24247L20.401 3.18658C21.5243 2.17269 22.9838 1.61147 24.4971 1.61147C26.0103 1.61147 27.4698 2.17269 28.5932 3.18658L28.6552 3.24247C30.4566 4.86875 31.6556 7.05603 32.0576 9.44939L32.0913 9.64845C32.6311 12.8593 32.5008 16.1472 31.7085 19.3053L31.5554 19.9071H28.2111L27.6208 16.3668L29.5188 15.102C29.6875 14.9892 29.8045 14.8141 29.8442 14.6151L30.6098 10.7869L29.1092 10.4891L28.4048 14.0033L24.5001 16.6065L20.6276 14.0248L19.9018 7.48863L18.3797 7.6563L19.1453 14.5469C19.1579 14.6579 19.1945 14.7649 19.2525 14.8603C19.3106 14.9558 19.3887 15.0375 19.4815 15.0997L21.3794 16.3645L20.6827 20.5441C20.6787 20.5664 20.6759 20.5888 20.6743 20.6114L19.9707 29.9008C19.9626 30.2243 19.851 30.5368 19.6521 30.7922C19.4532 31.0476 19.1776 31.2324 18.8659 31.3195L16.6808 25.856C16.2823 24.8622 16.0778 23.8014 16.0782 22.7307V16.5743ZM12.9262 47.4688C12.4441 47.4688 11.9743 47.3172 11.5832 47.0353C11.1922 46.7535 10.8997 46.3558 10.7472 45.8985L7.70001 36.7569L11.7708 25.2228C12.0993 24.2439 12.7167 23.3876 13.5417 22.7667C13.8587 22.5342 14.1951 22.3293 14.547 22.1542V22.7292C14.546 23.9955 14.7877 25.2502 15.259 26.4256L15.7368 27.6207C15.6031 27.731 15.4754 27.8479 15.354 27.9714L13.2431 30.0822C13.1768 30.1484 13.1233 30.2263 13.0854 30.3119L10.2786 36.6283C10.2033 36.7971 10.1916 36.9875 10.2457 37.1642L12.2869 43.8635C12.3255 43.9898 12.3961 44.104 12.4919 44.195C12.5877 44.2859 12.7054 44.3505 12.8335 44.3826L16.6395 45.3342C17.1204 45.455 17.5494 45.7282 17.8622 46.1129C18.1751 46.4977 18.355 46.9733 18.3751 47.4688H12.9262ZM15.4749 35.7547L17.1716 39.7145C17.2917 39.992 17.3555 40.2905 17.3593 40.5928C17.3631 40.8951 17.3068 41.1951 17.1938 41.4755L16.3118 43.679L13.6221 43.0067L11.7907 36.9912L13.5211 33.098C13.9137 34.1475 14.5901 35.0672 15.4749 35.7547ZM26.9938 34.6017L25.2657 33.3047V32.1563H23.7345V33.3047L22.0065 34.6009C21.3716 35.0773 20.6242 35.3809 19.837 35.4824C19.0498 35.5839 18.2498 35.4797 17.5149 35.18C16.78 34.8803 16.1353 34.3953 15.6436 33.7722C15.1519 33.1492 14.83 32.4094 14.7093 31.625L14.5968 30.8923L16.3455 29.1436L17.6639 32.4411C17.7349 32.586 17.8454 32.708 17.9825 32.793C18.1197 32.8781 18.278 32.9227 18.4394 32.9219C19.2325 32.9285 19.9967 32.6248 20.569 32.0757C21.1412 31.5265 21.476 30.7754 21.5019 29.9827L21.59 28.8174C21.6796 28.894 21.7668 28.9705 21.8503 29.0555L23.1955 30.4007C23.3385 30.5438 23.5323 30.6244 23.7345 30.625H25.2657C25.4688 30.625 25.6635 30.5443 25.807 30.4007L27.153 29.0555C27.8709 28.3379 28.8444 27.9347 29.8595 27.9347C30.8746 27.9347 31.8481 28.3379 32.566 29.0555L34.4035 30.893L34.2902 31.6257C34.1694 32.41 33.8475 33.1497 33.3559 33.7726C32.8642 34.3955 32.2196 34.8805 31.4848 35.1802C30.75 35.4799 29.9501 35.5841 29.1631 35.4827C28.376 35.3814 27.6286 35.0778 26.9938 34.6017ZM35.48 33.098L37.2095 36.9912L35.3766 43.0029L32.687 43.6759L31.8057 41.4717C31.6924 41.1914 31.6359 40.8914 31.6394 40.5891C31.643 40.2868 31.7065 39.9883 31.8264 39.7107L33.5253 35.7547C34.4108 35.0674 35.0876 34.1473 35.48 33.0973V33.098ZM38.2538 45.8993C38.1012 46.3565 37.8085 46.7542 37.4173 47.0359C37.0261 47.3176 36.5562 47.469 36.0741 47.4688H30.6251C30.6448 46.9729 30.8249 46.4968 31.1383 46.1121C31.4517 45.7273 31.8815 45.4546 32.3631 45.335L36.1675 44.3833C36.2958 44.3514 36.4136 44.2869 36.5096 44.1959C36.6055 44.1049 36.6762 43.9907 36.7149 43.8642L38.7568 37.165C38.8109 36.9883 38.7992 36.7979 38.7239 36.6291L35.9164 30.3127C35.8779 30.2271 35.8242 30.1493 35.7579 30.083L33.6463 27.9722C33.0189 27.3413 32.2435 26.8777 31.3907 26.6239V21.4375C32.8539 21.4342 34.2796 21.9001 35.4585 22.7667C36.2836 23.3878 36.9011 24.2444 37.2294 25.2236L41.2995 36.7569L38.2538 45.8993Z" fill="url(#paint1_linear)"/>
<path d="M25.2656 42.1094H23.7344V43.6406H25.2656V42.1094Z" fill="url(#paint2_linear)"/>
<defs>
<linearGradient id="paint0_linear" x1="21.6621" y1="4.81812" x2="25.2895" y2="11.6235" gradientUnits="userSpaceOnUse">
<stop offset="0.34375" stop-color="#0086B5"/>
<stop offset="1" stop-color="#46AEF7"/>
</linearGradient>
<linearGradient id="paint1_linear" x1="6.125" y1="0.0771484" x2="53.1116" y2="35.3725" gradientUnits="userSpaceOnUse">
<stop offset="0.34375" stop-color="#0086B5"/>
<stop offset="1" stop-color="#46AEF7"/>
</linearGradient>
<linearGradient id="paint2_linear" x1="23.7344" y1="42.1094" x2="25.2656" y2="43.6406" gradientUnits="userSpaceOnUse">
<stop offset="0.34375" stop-color="#0086B5"/>
<stop offset="1" stop-color="#46AEF7"/>
</linearGradient>
</defs>
</svg>
