<?xml version="1.0" standalone="no"?>
<!DOCTYPE svg PUBLIC "-//W3C//DTD SVG 20010904//EN"
 "http://www.w3.org/TR/2001/REC-SVG-20010904/DTD/svg10.dtd">
<svg version="1.0" xmlns="http://www.w3.org/2000/svg"
 width="700.000000pt" height="700.000000pt" viewBox="0 0 700.000000 700.000000"
 preserveAspectRatio="xMidYMid meet">
<metadata>
Created by potrace 1.14, written by Peter Selinger 2001-2017
</metadata>
<g transform="translate(0.000000,700.000000) scale(0.100000,-0.100000)"
fill="#000000" stroke="none">
<path d="M3415 5991 c-55 -25 -68 -42 -121 -161 -25 -58 -53 -121 -61 -140 -9
-19 -24 -53 -34 -75 -10 -22 -88 -200 -174 -395 -86 -195 -165 -375 -177 -400
-11 -25 -29 -65 -40 -90 -11 -25 -26 -58 -33 -75 -8 -16 -50 -111 -93 -210
-44 -99 -91 -205 -105 -235 -13 -30 -66 -149 -117 -265 -50 -115 -98 -223
-106 -240 -7 -16 -65 -147 -128 -290 -63 -143 -117 -260 -120 -260 -3 0 -240
185 -527 410 -1316 1035 -1328 1044 -1365 1051 -120 22 -214 -50 -214 -165 0
-45 13 -89 66 -226 36 -93 78 -204 94 -245 52 -138 210 -545 219 -565 6 -11
57 -144 115 -295 58 -151 144 -376 191 -500 48 -124 90 -234 95 -245 5 -11 19
-45 30 -75 11 -30 25 -64 30 -75 7 -16 121 -311 190 -495 67 -178 245 -630
256 -652 16 -30 67 -72 102 -83 12 -3 962 -6 2111 -7 2087 0 2089 0 2129 21
22 11 49 33 60 48 10 16 49 107 87 203 37 96 82 213 100 260 18 47 76 198 129
335 53 138 101 258 106 267 6 10 10 23 10 29 0 6 6 25 14 42 8 18 72 181 141
362 70 182 131 339 136 350 4 11 85 220 179 465 94 245 175 454 180 465 10 21
55 138 164 423 71 185 76 215 42 280 -32 62 -138 101 -207 78 -19 -7 -117 -75
-218 -152 -100 -76 -253 -193 -339 -258 -87 -66 -222 -169 -302 -230 -80 -60
-181 -137 -225 -171 -160 -122 -293 -223 -415 -316 -69 -52 -127 -96 -130 -99
-5 -6 -230 -177 -255 -195 -17 -12 -12 -20 -67 105 -55 125 -483 1092 -503
1135 -7 17 -104 235 -215 485 -111 250 -208 469 -215 485 -8 17 -63 142 -124
279 -61 137 -118 257 -128 268 -50 56 -145 73 -218 39z m108 -638 c14 -35 138
-318 194 -443 42 -92 46 -101 248 -560 109 -245 210 -473 226 -508 16 -35 29
-65 29 -67 0 -3 11 -28 24 -57 20 -43 142 -319 201 -453 7 -16 32 -70 54 -118
23 -49 41 -92 41 -96 0 -4 9 -27 21 -51 17 -35 18 -45 7 -51 -7 -4 -143 -108
-303 -230 -159 -121 -333 -253 -385 -292 -52 -40 -97 -74 -100 -77 -3 -3 -78
-61 -167 -128 l-161 -122 -129 101 c-70 55 -135 105 -143 112 -8 7 -44 35 -80
62 -35 28 -73 58 -85 67 -11 9 -110 87 -220 174 -110 86 -243 192 -296 233
l-96 76 248 560 c136 308 259 585 272 615 14 30 105 235 202 455 97 220 208
470 247 555 38 85 71 160 73 165 8 29 50 115 56 115 4 0 14 -17 22 -37z m2886
-1485 c-49 -126 -98 -250 -196 -503 -57 -148 -134 -346 -170 -440 -36 -93 -73
-190 -83 -215 -59 -156 -134 -349 -145 -375 -7 -16 -32 -79 -55 -140 -23 -60
-55 -144 -71 -185 -16 -41 -53 -138 -83 -214 l-54 -140 -15 30 c-8 16 -88 193
-177 394 -188 424 -198 445 -216 485 -93 207 -123 280 -117 286 5 4 31 24 59
45 28 22 68 52 90 69 142 109 859 655 904 689 30 22 60 46 66 51 6 6 23 19 38
30 25 18 88 66 206 157 19 15 36 27 37 28 2 0 -7 -24 -18 -52z m-5699 -66 c30
-24 62 -49 70 -55 8 -7 258 -203 555 -435 297 -233 550 -432 562 -442 12 -10
33 -26 46 -35 l25 -16 -43 -98 c-24 -54 -51 -115 -61 -137 -9 -21 -18 -41 -19
-44 -1 -3 -8 -21 -17 -40 -9 -19 -31 -71 -51 -115 -56 -130 -227 -515 -254
-575 -14 -30 -32 -73 -41 -95 -8 -22 -18 -44 -22 -48 -7 -8 -58 116 -210 508
-21 55 -59 154 -85 220 -26 66 -58 147 -70 180 -12 33 -65 170 -118 305 -52
135 -143 369 -201 520 -59 151 -110 284 -115 295 -5 11 -17 40 -26 65 -9 25
-26 67 -36 93 l-19 48 37 -28 c21 -15 63 -47 93 -71z m4080 -1312 c28 -63 126
-284 217 -490 195 -441 190 -430 242 -544 23 -49 41 -93 41 -97 0 -5 -199 -9
-442 -9 l-443 0 -325 255 c-179 140 -326 258 -328 263 -1 5 39 41 90 79 51 39
195 149 320 244 125 96 239 183 254 194 15 11 39 29 53 41 105 86 256 193 262
187 4 -4 31 -60 59 -123z m-2255 -121 c143 -113 340 -267 438 -344 97 -76 177
-142 177 -146 0 -3 -89 -73 -197 -155 -109 -82 -200 -151 -203 -154 -3 -3 -50
-39 -105 -80 -55 -41 -102 -77 -105 -80 -3 -3 -21 -17 -41 -32 l-36 -27 -377
-1 c-207 0 -376 3 -376 6 0 6 226 520 291 662 16 35 29 65 29 67 0 2 15 36 33
77 19 40 69 153 112 250 52 119 82 175 89 170 6 -5 128 -101 271 -213z m1065
-835 c69 -55 149 -118 179 -142 l54 -42 -387 0 -387 0 88 67 c48 37 93 71 98
76 84 70 210 156 219 148 6 -4 67 -53 136 -107z"/>
</g>
</svg>
